<?xml version="1.0" standalone="no"?>
<!DOCTYPE svg PUBLIC "-//W3C//DTD SVG 20010904//EN"
 "http://www.w3.org/TR/2001/REC-SVG-20010904/DTD/svg10.dtd">
<svg version="1.0" xmlns="http://www.w3.org/2000/svg"
 width="384.000000pt" height="384.000000pt" viewBox="0 0 384.000000 384.000000"
 preserveAspectRatio="xMidYMid meet">
<metadata>
Created by potrace 1.14, written by Peter Selinger 2001-2017
</metadata>
<g transform="translate(0.000000,384.000000) scale(0.100000,-0.100000)"
fill="#000000" stroke="none">
<path d="M180 1925 l0 -795 90 0 90 0 0 607 c0 374 4 603 9 598 5 -6 120 -278
254 -605 l245 -595 88 -3 89 -3 249 606 c136 333 252 605 257 605 5 0 9 -262
9 -605 l0 -605 90 0 90 0 0 795 0 795 -117 0 -118 -1 -269 -660 c-148 -363
-274 -658 -279 -656 -6 2 -131 298 -278 658 l-268 654 -115 3 -116 3 0 -796z"/>
<path d="M2130 1925 l0 -795 90 0 90 0 0 607 c0 372 4 603 9 598 5 -6 120
-278 254 -605 l245 -595 89 -3 88 -3 249 606 c137 333 252 605 257 605 5 0 9
-267 9 -605 l0 -605 90 0 90 0 0 795 0 796 -117 -3 -118 -3 -269 -658 c-148
-362 -274 -656 -279 -654 -5 1 -130 297 -278 657 l-268 655 -115 3 -116 3 0
-796z"/>
</g>
</svg>
