<svg id="visual" viewBox="0 0 960 540" width="960" height="540" xmlns="http://www.w3.org/2000/svg" xmlns:xlink="http://www.w3.org/1999/xlink" version="1.1"><rect width="960" height="540" fill="#e0e0e0"></rect><g><g transform="translate(542 229)"><path d="M22.4 -26.1C29 -21.2 34.2 -14.1 35.6 -6.3C37 1.6 34.6 10.1 29.9 16.3C25.2 22.6 18.2 26.6 10.9 28.7C3.7 30.8 -3.8 30.9 -11.2 29C-18.6 27 -26 23.1 -30.8 16.8C-35.6 10.5 -37.9 1.7 -36.7 -6.7C-35.5 -15.1 -30.8 -23 -24.1 -28C-17.3 -32.9 -8.7 -34.8 -0.4 -34.3C7.9 -33.9 15.8 -31.1 22.4 -26.1Z" fill="none" stroke="#F7760E" stroke-width="10"></path></g><g transform="translate(343 211)"><path d="M20.8 -24.1C26.9 -19.6 31.7 -13 33 -5.8C34.2 1.4 31.8 9.2 28 16.5C24.2 23.9 18.9 30.7 11.9 33.8C4.8 36.8 -4 36.1 -12 33.1C-19.9 30.1 -26.9 24.9 -31 17.9C-35.2 10.9 -36.3 2.1 -34.8 -6.1C-33.3 -14.3 -29.1 -22 -22.8 -26.4C-16.6 -30.8 -8.3 -32 -0.5 -31.4C7.3 -30.9 14.7 -28.5 20.8 -24.1Z" fill="none" stroke="#F7760E" stroke-width="10"></path></g><g transform="translate(796 144)"><path d="M19.3 -23.6C23.9 -19.1 25.9 -12 27.5 -4.6C29.1 2.8 30.5 10.6 27.5 16C24.5 21.4 17.3 24.5 10.3 26.1C3.3 27.8 -3.5 27.9 -10.1 26.2C-16.8 24.5 -23.3 20.9 -26.5 15.3C-29.7 9.8 -29.6 2.3 -28.2 -4.9C-26.8 -12 -24.2 -18.9 -19.3 -23.4C-14.4 -27.9 -7.2 -30 0.1 -30.1C7.3 -30.1 14.6 -28.2 19.3 -23.6Z" stroke="#F7760E" fill="none" stroke-width="10"></path></g><g transform="translate(191 256)"><path d="M20.5 -24.9C26.4 -19.5 31 -12.9 32.4 -5.6C33.8 1.6 32 9.6 27.8 15.2C23.5 20.9 16.8 24.3 9.9 26.5C3 28.8 -4.1 29.8 -10.1 27.6C-16 25.5 -20.9 20.2 -24.8 14C-28.7 7.9 -31.6 0.9 -31.1 -6C-30.5 -13 -26.5 -19.9 -20.7 -25.3C-15 -30.7 -7.5 -34.7 -0.1 -34.5C7.3 -34.4 14.6 -30.2 20.5 -24.9Z" stroke="#F7760E" fill="none" stroke-width="10"></path></g><g transform="translate(818 349)"><path d="M16.2 -18.7C21.2 -15.2 25.4 -10.2 27 -4.3C28.5 1.5 27.3 8.3 23.9 13.4C20.5 18.4 14.8 21.8 8.9 23.4C3.1 25 -3 24.9 -9 23.3C-15 21.7 -20.9 18.6 -24.6 13.5C-28.4 8.5 -29.9 1.5 -28.3 -4.4C-26.6 -10.3 -21.6 -15.1 -16.4 -18.5C-11.1 -22 -5.6 -24 0 -24.1C5.7 -24.1 11.3 -22.2 16.2 -18.7Z" stroke="#F7760E" fill="none" stroke-width="10"></path></g><g transform="translate(738 57)"><path d="M18.9 -22.4C24.4 -17.9 28.6 -11.8 29.5 -5.4C30.4 1 27.8 7.8 24.2 13.8C20.5 19.7 15.7 24.8 9.8 26.9C4 29 -3 28.1 -9.4 25.8C-15.9 23.5 -22 19.8 -25.3 14.4C-28.6 9 -29.3 1.9 -27.6 -4.5C-26 -10.8 -22.2 -16.3 -17.2 -20.8C-12.2 -25.4 -6.1 -29 0.3 -29.3C6.7 -29.7 13.4 -26.8 18.9 -22.4Z" stroke="#F7760E" fill="none" stroke-width="10"></path></g><g transform="translate(425 124)"><path d="M17.3 -19.9C22.5 -16.3 26.9 -10.9 28.7 -4.5C30.6 2 29.9 9.4 26.4 15C22.9 20.6 16.5 24.3 9.9 26.3C3.3 28.2 -3.6 28.5 -9.7 26.4C-15.8 24.3 -21.1 19.8 -24.7 14C-28.2 8.3 -30.1 1.3 -29.2 -5.4C-28.2 -12.1 -24.6 -18.5 -19.3 -22.1C-13.9 -25.6 -7 -26.4 -0.5 -25.9C6.1 -25.3 12.1 -23.5 17.3 -19.9Z" stroke="#F7760E" fill="none" stroke-width="10"></path></g><g transform="translate(230 392)"><path d="M20.4 -25.1C25.3 -20.3 27.2 -12.7 28.2 -5.2C29.2 2.2 29.3 9.6 26.3 15.5C23.3 21.4 17.2 25.9 10.4 28.1C3.7 30.3 -3.7 30.4 -10.3 28.1C-16.8 25.7 -22.5 21 -25.9 15C-29.3 9 -30.4 1.7 -29 -5C-27.7 -11.7 -24 -17.9 -18.7 -22.6C-13.5 -27.3 -6.7 -30.5 0.5 -31.1C7.8 -31.7 15.6 -29.8 20.4 -25.1Z" stroke="#F7760E" fill="none" stroke-width="10"></path></g><g transform="translate(211 145)"><path d="M20.5 -24.2C26.9 -19.1 32.5 -12.9 33.6 -6.1C34.6 0.8 31.1 8.3 26.8 15.1C22.5 21.9 17.4 27.9 10.9 30.5C4.4 33.1 -3.5 32.3 -10.3 29.4C-17 26.4 -22.6 21.3 -26.9 15C-31.2 8.6 -34.3 1 -33.1 -5.9C-32 -12.8 -26.6 -19.1 -20.4 -24.1C-14.2 -29.2 -7.1 -33 0 -33C7.1 -33 14.2 -29.2 20.5 -24.2Z" stroke="#F7760E" fill="none" stroke-width="10"></path></g><g transform="translate(659 475)"><path d="M16.1 -19C20.7 -15.3 24.3 -10.1 25.4 -4.4C26.4 1.3 25.1 7.5 22 12.7C19 18 14.3 22.3 8.6 24.9C2.9 27.5 -3.9 28.4 -9.2 26.1C-14.5 23.9 -18.4 18.4 -21.4 12.6C-24.4 6.9 -26.6 0.9 -26.2 -5.1C-25.7 -11.1 -22.6 -17.2 -17.8 -20.8C-13 -24.5 -6.5 -25.8 -0.4 -25.4C5.7 -24.9 11.5 -22.7 16.1 -19Z" stroke="#F7760E" fill="none" stroke-width="10"></path></g><g transform="translate(754 230)"><path d="M22.3 -26.5C28.2 -21.5 31.9 -13.9 32.4 -6.4C32.8 1 29.9 8.3 26.1 15.1C22.2 22 17.4 28.3 11.1 30.7C4.8 33 -3 31.5 -9.7 28.3C-16.3 25.1 -21.6 20.4 -25.8 14.3C-30 8.3 -33 1 -31.7 -5.4C-30.4 -11.8 -24.7 -17.2 -18.7 -22.2C-12.7 -27.1 -6.3 -31.5 0.9 -32.6C8.2 -33.7 16.3 -31.4 22.3 -26.5Z" stroke="#F7760E" fill="none" stroke-width="10"></path></g><g transform="translate(518 315)"><path d="M23.3 -28.1C29.5 -22.6 33.3 -14.5 33.6 -6.8C33.9 0.9 30.6 8.4 26.2 14.2C21.7 20 16 24.1 9.4 27C2.8 30 -4.7 31.7 -11.1 29.7C-17.5 27.7 -22.9 22 -26.1 15.5C-29.4 9 -30.6 1.7 -29.2 -5C-27.8 -11.7 -23.9 -17.8 -18.6 -23.5C-13.4 -29.1 -6.7 -34.4 0.9 -35.5C8.6 -36.6 17.1 -33.6 23.3 -28.1Z" stroke="#F7760E" fill="none" stroke-width="10"></path></g><g transform="translate(414 384)"><path d="M18.1 -21.4C23.4 -17.2 27.4 -11.4 28.7 -4.9C30 1.5 28.6 8.6 25.2 14.7C21.9 20.8 16.6 26 10.1 28.9C3.6 31.8 -4.2 32.4 -11 30C-17.8 27.7 -23.6 22.3 -27.5 15.8C-31.4 9.2 -33.4 1.5 -32.1 -5.7C-30.9 -12.8 -26.3 -19.4 -20.4 -23.5C-14.5 -27.6 -7.3 -29.2 -0.4 -28.7C6.5 -28.2 12.9 -25.7 18.1 -21.4Z" stroke="#F7760E" fill="none" stroke-width="10"></path></g><g transform="translate(70 84)"><path d="M16.8 -19.4C21.9 -15.7 26.2 -10.6 27.4 -4.7C28.6 1.2 26.7 7.7 23.2 13.1C19.7 18.5 14.8 22.7 9 24.8C3.3 26.8 -3.2 26.8 -9.2 24.8C-15.2 22.9 -20.7 19 -23.8 13.7C-27 8.4 -27.7 1.7 -26.9 -5C-26 -11.7 -23.5 -18.4 -18.8 -22.1C-14 -25.9 -7 -26.7 -0.6 -26C5.8 -25.3 11.7 -23.1 16.8 -19.4Z" stroke="#F7760E" fill="none" stroke-width="10"></path></g><g transform="translate(326 404)"><path d="M18.6 -22.1C23.7 -17.8 27.3 -11.6 29.1 -4.6C31 2.4 31.1 10.2 27.9 16.3C24.6 22.3 17.9 26.6 10.9 28.4C4 30.1 -3.3 29.5 -10 27.2C-16.8 24.9 -23.1 20.9 -26.8 15.1C-30.5 9.4 -31.7 1.8 -30.4 -5.3C-29.1 -12.5 -25.4 -19.2 -20 -23.5C-14.5 -27.7 -7.2 -29.6 -0.3 -29.2C6.7 -28.9 13.4 -26.5 18.6 -22.1Z" stroke="#F7760E" fill="none" stroke-width="10"></path></g><g transform="translate(910 455)"><path d="M18 -22.5C22.5 -17.7 24.7 -11.2 25.2 -5C25.7 1.3 24.4 7.3 21.5 12.6C18.7 18 14.3 22.6 8.9 24.7C3.4 26.9 -3.1 26.6 -8.5 24.2C-13.9 21.8 -18.2 17.4 -21.3 12.2C-24.5 7 -26.6 0.9 -25.8 -4.8C-25.1 -10.5 -21.5 -15.9 -16.7 -20.6C-11.9 -25.4 -6 -29.4 0.4 -29.9C6.8 -30.4 13.5 -27.3 18 -22.5Z" stroke="#F7760E" fill="none" stroke-width="10"></path></g><g transform="translate(121 368)"><path d="M21 -24.4C27.3 -19.7 32.5 -13.2 34 -5.8C35.5 1.5 33.2 9.7 28.8 16C24.4 22.3 17.9 26.7 10.9 28.6C4 30.5 -3.4 30 -9.7 27.4C-16 24.7 -21.2 20 -24.6 14.2C-28 8.4 -29.6 1.4 -28.6 -5.2C-27.6 -11.8 -24 -18.1 -18.9 -23C-13.7 -27.9 -6.8 -31.4 0.3 -31.7C7.3 -32 14.7 -29.1 21 -24.4Z" stroke="#F7760E" fill="none" stroke-width="10"></path></g><g transform="translate(630 342)"><path d="M17.4 -20.1C22.2 -16.6 25.8 -10.9 26.8 -4.8C27.8 1.3 26.3 7.9 23 12.9C19.6 17.9 14.3 21.3 8.7 23.1C3 24.9 -3.1 25 -8.3 23C-13.5 21 -17.9 16.9 -21.4 11.9C-24.8 6.9 -27.3 0.8 -26.7 -5.1C-26.1 -11 -22.5 -16.7 -17.5 -20.2C-12.6 -23.7 -6.3 -25 0 -25C6.2 -25 12.5 -23.6 17.4 -20.1Z" stroke="#F7760E" fill="none" stroke-width="10"></path></g><g transform="translate(330 297)"><path d="M18.4 -21.8C22.8 -18.3 24.6 -11.5 24.7 -5.1C24.9 1.2 23.5 7 20.9 12.6C18.3 18.2 14.4 23.6 9 26.3C3.5 29 -3.5 29 -9.7 26.7C-15.9 24.4 -21.2 19.9 -24.6 14.1C-28 8.4 -29.5 1.4 -28.7 -5.3C-27.8 -12.1 -24.6 -18.8 -19.4 -22.2C-14.2 -25.6 -7.1 -25.8 -0.1 -25.7C7 -25.6 14 -25.4 18.4 -21.8Z" stroke="#F7760E" fill="none" stroke-width="10"></path></g><g transform="translate(637 102)"><path d="M20.3 -24.7C25.8 -19.6 29.4 -12.7 30.3 -5.7C31.2 1.4 29.4 8.7 25.6 14.5C21.9 20.4 16.3 24.9 9.7 27.6C3.2 30.4 -4.3 31.4 -10.9 29.3C-17.6 27.2 -23.4 22 -26.8 15.7C-30.2 9.3 -31.2 1.8 -30.3 -5.7C-29.4 -13.1 -26.4 -20.6 -21.1 -25.7C-15.7 -30.9 -7.8 -33.7 -0.2 -33.5C7.4 -33.2 14.8 -29.9 20.3 -24.7Z" stroke="#F7760E" fill="none" stroke-width="10"></path></g><g transform="translate(345 45)"><path d="M18.8 -21.7C24.7 -17.5 29.9 -11.9 30.8 -5.6C31.8 0.7 28.4 7.6 24.6 14.2C20.7 20.7 16.4 27 10.3 30.1C4.1 33.1 -3.9 33 -11.2 30.5C-18.5 28 -25.1 23.2 -27.9 16.9C-30.7 10.6 -29.5 2.8 -27.5 -4.2C-25.5 -11.1 -22.5 -17.2 -17.8 -21.6C-13 -26 -6.5 -28.7 0 -28.7C6.5 -28.6 13 -25.9 18.8 -21.7Z" stroke="#F7760E" fill="none" stroke-width="10"></path></g><g transform="translate(580 429)"><path d="M16.9 -19.6C21.8 -16 25.7 -10.6 27.3 -4.4C28.8 1.8 28.1 8.8 25 14.7C21.9 20.5 16.4 25.3 9.9 28C3.4 30.7 -4.1 31.4 -10.5 29C-16.9 26.6 -22.1 21.2 -24.6 15.1C-27.1 9 -26.8 2.1 -25.5 -4.4C-24.2 -10.8 -21.8 -17 -17.4 -20.6C-13 -24.3 -6.5 -25.4 -0.2 -25.1C6 -24.8 12 -23.1 16.9 -19.6Z" stroke="#F7760E" fill="none" stroke-width="10"></path></g><g transform="translate(859 48)"><path d="M21.1 -24.7C26.7 -20.5 30.2 -13.2 31 -5.9C31.8 1.5 30 8.9 26.4 15.4C22.8 22 17.5 27.6 10.5 31.1C3.6 34.5 -4.9 35.7 -12.4 33.3C-19.8 30.9 -26.2 24.8 -30.5 17.5C-34.9 10.2 -37.2 1.6 -35.8 -6.2C-34.3 -14.1 -29 -21.2 -22.4 -25.3C-15.8 -29.3 -7.9 -30.3 -0.1 -30.2C7.8 -30.1 15.5 -29 21.1 -24.7Z" stroke="#F7760E" fill="none" stroke-width="10"></path></g><g transform="translate(721 403)"><path d="M18.8 -22.6C24.1 -17.9 28 -11.8 29.9 -4.7C31.9 2.3 31.7 10.3 28.2 16.2C24.7 22.2 17.8 26.1 10.9 27.5C4 29 -2.9 28 -9.2 25.6C-15.4 23.1 -20.9 19.2 -25.3 13.6C-29.7 8.1 -32.9 0.9 -32.1 -5.9C-31.2 -12.7 -26.3 -19.1 -20.3 -23.7C-14.2 -28.3 -7.1 -31.1 -0.2 -30.8C6.7 -30.6 13.4 -27.3 18.8 -22.6Z" stroke="#F7760E" fill="none" stroke-width="10"></path></g><g transform="translate(127 151)"><path d="M19.1 -23.5C23.8 -18.9 25.9 -11.9 26.3 -5.3C26.7 1.3 25.3 7.6 22.1 12.5C18.9 17.4 13.9 20.9 8.1 23.6C2.3 26.4 -4.4 28.3 -10.5 26.9C-16.7 25.6 -22.4 20.9 -25.9 14.9C-29.3 9 -30.5 1.7 -29 -4.8C-27.5 -11.3 -23.3 -17 -18 -21.6C-12.7 -26.2 -6.4 -29.6 0.4 -30.1C7.2 -30.6 14.4 -28.2 19.1 -23.5Z" stroke="#F7760E" fill="none" stroke-width="10"></path></g><g transform="translate(51 287)"><path d="M19.5 -23C24.5 -19 27.4 -12.2 28.7 -5C30.1 2.2 30 9.7 26.6 15.2C23.2 20.6 16.6 23.9 9.6 26.4C2.7 28.9 -4.5 30.6 -10.8 28.7C-17.1 26.9 -22.4 21.4 -25.7 15.1C-29 8.8 -30.3 1.6 -29 -4.9C-27.6 -11.5 -23.6 -17.4 -18.3 -21.4C-13.1 -25.5 -6.5 -27.6 0.3 -28C7.2 -28.4 14.4 -27.1 19.5 -23Z" stroke="#F7760E" fill="none" stroke-width="10"></path></g><g transform="translate(398 485)"><path d="M17.3 -20.1C22 -16.6 25.2 -10.8 25.7 -5C26.1 0.8 23.8 6.6 20.7 12C17.7 17.5 13.9 22.6 8.8 24.7C3.8 26.7 -2.6 25.6 -7.8 23C-13 20.4 -17 16.3 -20.4 11.3C-23.9 6.4 -26.7 0.6 -26 -4.7C-25.2 -10 -20.9 -14.8 -15.9 -18.3C-11 -21.7 -5.5 -23.8 0.4 -24.2C6.3 -24.7 12.5 -23.5 17.3 -20.1Z" stroke="#F7760E" fill="none" stroke-width="10"></path></g><g transform="translate(170 60)"><path d="M15.1 -18C19.4 -14.5 22.4 -9.5 23.5 -4C24.6 1.4 23.8 7.3 21.2 12.6C18.6 17.9 14.2 22.5 8.8 24.7C3.4 26.9 -3.1 26.7 -9.4 24.9C-15.7 23 -21.7 19.5 -25.5 14.2C-29.2 8.8 -30.7 1.6 -29.1 -4.7C-27.5 -11.1 -23 -16.5 -17.6 -19.8C-12.3 -23.1 -6.1 -24.3 -0.3 -23.9C5.5 -23.5 10.9 -21.5 15.1 -18Z" stroke="#F7760E" fill="none" stroke-width="10"></path></g><g transform="translate(509 84)"><path d="M19.7 -22.6C25.1 -19 28.6 -12.3 29.9 -5.3C31.2 1.8 30.1 9.3 26.5 15.1C22.9 20.8 16.7 24.9 10.3 26.3C4 27.6 -2.6 26.4 -8 23.7C-13.5 21 -17.8 16.9 -21.4 11.8C-25 6.7 -28 0.6 -27.1 -4.9C-26.3 -10.4 -21.7 -15.3 -16.5 -19C-11.3 -22.7 -5.7 -25 0.8 -25.9C7.2 -26.8 14.3 -26.2 19.7 -22.6Z" stroke="#F7760E" fill="none" stroke-width="10"></path></g><g transform="translate(899 284)"><path d="M17.3 -21C22.3 -16.4 26.2 -10.8 27.8 -4.5C29.4 1.9 28.7 9 25.7 15.3C22.6 21.5 17.1 26.7 10.4 29.5C3.8 32.3 -4.1 32.6 -10.9 30.1C-17.8 27.6 -23.6 22.3 -26.3 16C-29.1 9.7 -28.7 2.3 -27.2 -4.5C-25.7 -11.4 -23 -17.8 -18.3 -22.5C-13.5 -27.3 -6.8 -30.3 -0.3 -29.9C6.1 -29.6 12.2 -25.7 17.3 -21Z" stroke="#F7760E" fill="none" stroke-width="10"></path></g><g transform="translate(777 476)"><path d="M17.9 -21C23.5 -16.6 28.6 -11.3 30 -5C31.4 1.3 29.3 8.5 25.5 14.6C21.8 20.8 16.6 25.9 10.1 28.5C3.7 31.1 -3.8 31.1 -10.3 28.6C-16.9 26.1 -22.4 21.1 -25.7 15C-28.9 8.9 -29.9 1.7 -28.2 -4.5C-26.5 -10.7 -22.1 -15.9 -17 -20.3C-11.8 -24.7 -5.9 -28.4 0.1 -28.5C6.2 -28.7 12.3 -25.3 17.9 -21Z" stroke="#F7760E" fill="none" stroke-width="10"></path></g><g transform="translate(178 480)"><path d="M18.5 -22.9C23.6 -17.7 27.3 -11.6 29.2 -4.5C31.2 2.5 31.5 10.4 28.2 16.4C24.9 22.4 18 26.5 11 28.3C3.9 30.1 -3.3 29.5 -10.2 27.3C-17 25.1 -23.4 21.1 -26.9 15.4C-30.4 9.6 -30.9 2 -29.4 -4.9C-27.9 -11.9 -24.2 -18.2 -19 -23.4C-13.7 -28.7 -6.9 -32.8 -0.1 -32.7C6.7 -32.6 13.3 -28.2 18.5 -22.9Z" stroke="#F7760E" fill="none" stroke-width="10"></path></g><g transform="translate(658 195)"><path d="M19.8 -22.4C25.7 -18.7 30.4 -12.5 31.5 -5.6C32.6 1.2 30.1 8.6 26 14.4C21.9 20.2 16.2 24.5 9.8 26.7C3.4 29 -3.7 29.3 -10.7 27.6C-17.7 25.8 -24.7 22 -28.7 16.1C-32.7 10.1 -33.8 2 -32.4 -5.6C-31 -13.3 -27 -20.4 -21.2 -24C-15.4 -27.7 -7.7 -27.9 -0.4 -27.5C7 -27.1 14 -26 19.8 -22.4Z" stroke="#F7760E" fill="none" stroke-width="10"></path></g><g transform="translate(434 281)"><path d="M23 -26.9C28.7 -22.7 31.4 -14.4 33 -5.8C34.6 2.8 35 11.6 31.2 17.9C27.5 24.2 19.5 27.9 11.4 30.4C3.4 32.8 -4.7 34 -11.9 31.8C-19.1 29.6 -25.4 24 -29.8 17C-34.1 9.9 -36.5 1.5 -35.4 -6.6C-34.4 -14.7 -30 -22.6 -23.5 -26.6C-17 -30.7 -8.5 -30.9 0.1 -31C8.7 -31.1 17.4 -31.1 23 -26.9Z" stroke="#F7760E" fill="none" stroke-width="10"></path></g><g transform="translate(909 369)"><path d="M18.3 -22.4C23.5 -17.6 27.1 -11.5 28.3 -4.9C29.5 1.6 28.3 8.6 25.2 15C22 21.4 17 27.1 10.8 29.2C4.6 31.2 -2.8 29.6 -8.7 26.3C-14.6 23.1 -19.1 18.4 -22.1 12.9C-25 7.5 -26.4 1.3 -25.8 -5C-25.2 -11.3 -22.7 -17.6 -18 -22.5C-13.4 -27.4 -6.7 -30.9 0 -30.8C6.6 -30.8 13.2 -27.2 18.3 -22.4Z" stroke="#F7760E" fill="none" stroke-width="10"></path></g><g transform="translate(904 166)"><path d="M19.3 -22.7C25.6 -17.7 31.6 -12.2 33.4 -5.4C35.3 1.4 32.9 9.5 28.6 16.2C24.4 22.9 18.3 28.2 11 31.3C3.8 34.3 -4.7 35.2 -11.6 32.4C-18.5 29.6 -23.8 23.2 -27.9 16.1C-32 9 -34.8 1.2 -33.4 -5.7C-31.9 -12.6 -26.3 -18.6 -20 -23.6C-13.8 -28.5 -6.9 -32.4 -0.2 -32.1C6.5 -31.9 13 -27.6 19.3 -22.7Z" stroke="#F7760E" fill="none" stroke-width="10"></path></g><g transform="translate(68 445)"><path d="M19.9 -23.6C25.7 -18.9 30.1 -12.5 31.3 -5.5C32.5 1.4 30.5 8.9 27 16C23.4 23.1 18.3 29.7 11.7 32C5.2 34.3 -2.9 32.2 -9.8 28.9C-16.8 25.6 -22.6 21 -26.9 14.9C-31.2 8.8 -33.9 1.2 -32.7 -5.8C-31.6 -12.8 -26.4 -19.1 -20.3 -23.6C-14.2 -28.1 -7.1 -31 0 -31C7.1 -31 14.2 -28.2 19.9 -23.6Z" stroke="#F7760E" fill="none" stroke-width="10"></path></g><g transform="translate(50 201)"><path d="M19.6 -23.2C24.5 -19.2 27.1 -12.2 28.3 -5C29.5 2.1 29.4 9.5 26.2 15.2C23 21 16.8 25.1 10 27.6C3.2 30.1 -4.2 31 -11 29.1C-17.8 27.1 -23.9 22.2 -27.7 15.9C-31.5 9.6 -32.9 1.8 -31.2 -5.1C-29.5 -11.9 -24.7 -17.8 -19 -21.7C-13.3 -25.5 -6.6 -27.3 0.3 -27.8C7.3 -28.2 14.6 -27.2 19.6 -23.2Z" stroke="#F7760E" fill="none" stroke-width="10"></path></g><g transform="translate(275 495)"><path d="M16.8 -20.2C21.1 -16.3 23.6 -10.5 24.4 -4.6C25.1 1.4 24.1 7.3 21.3 12.3C18.5 17.4 13.9 21.4 8.3 24C2.7 26.5 -3.9 27.7 -9.9 26C-15.9 24.3 -21.3 19.9 -24.3 14.3C-27.3 8.6 -27.9 1.8 -25.9 -3.7C-24 -9.3 -19.5 -13.6 -14.7 -17.4C-10 -21.2 -5 -24.5 0.6 -25.2C6.2 -25.9 12.4 -24 16.8 -20.2Z" stroke="#F7760E" fill="none" stroke-width="10"></path></g><g transform="translate(491 440)"><path d="M18.3 -22.1C23 -17.7 25.9 -11.4 26.7 -5C27.4 1.4 26.2 7.9 22.9 12.8C19.5 17.6 14.2 20.9 8.1 23.6C2.1 26.3 -4.5 28.5 -10.4 27.1C-16.3 25.6 -21.5 20.5 -23.8 14.6C-26.2 8.8 -25.7 2.2 -24.1 -3.8C-22.4 -9.7 -19.7 -14.9 -15.5 -19.4C-11.3 -23.9 -5.6 -27.6 0.6 -28.3C6.7 -28.9 13.5 -26.5 18.3 -22.1Z" stroke="#F7760E" fill="none" stroke-width="10"></path></g><g transform="translate(262 65)"><path d="M19 -22.4C23.4 -18.9 25 -11.8 25.2 -5.2C25.5 1.3 24.3 7.4 21.4 12.2C18.4 17.1 13.7 20.9 8.3 22.7C3 24.6 -2.9 24.5 -9.1 23.1C-15.3 21.7 -21.7 19 -25.4 14C-29 9 -30 1.8 -28.5 -4.8C-27.1 -11.4 -23.3 -17.4 -18.2 -20.8C-13 -24.2 -6.5 -25 0.4 -25.5C7.3 -25.9 14.5 -25.9 19 -22.4Z" stroke="#F7760E" fill="none" stroke-width="10"></path></g><g transform="translate(719 307)"><path d="M18.8 -21.4C24.1 -18 28 -11.8 28.4 -5.6C28.8 0.6 25.7 6.9 22.3 12.8C18.8 18.7 14.9 24.4 9.5 26.6C4.1 28.8 -2.7 27.5 -9.3 25.3C-15.8 23 -22.1 19.7 -25 14.5C-27.8 9.4 -27.3 2.3 -25.2 -3.6C-23.1 -9.5 -19.5 -14.3 -15.1 -17.9C-10.6 -21.5 -5.3 -23.9 0.7 -24.8C6.8 -25.6 13.5 -24.9 18.8 -21.4Z" stroke="#F7760E" fill="none" stroke-width="10"></path></g></g></svg>