<svg id="visual" viewBox="0 0 960 540" width="960" height="540" xmlns="http://www.w3.org/2000/svg" xmlns:xlink="http://www.w3.org/1999/xlink" version="1.1">
  <g transform="translate(479.85 270.15)">
    <path d="M225 -0.1C225 112.3 112.5 224.7 0.1 224.7C-112.3 224.7 -224.7 112.3 -224.7 -0.1C-224.7 -112.5 -112.3 -225 0.1 -225C112.5 -225 225 -112.5 225 -0.1" fill="#2f80ed"></path>
    <g transform="scale(0.5) translate(-256, -266)">
      <path d="M224,435.8V76.1c0-6.7-5.4-12.1-12.2-12.1h-71.6c-6.8,0-12.2,5.4-12.2,12.1v359.7c0,6.7,5.4,12.2,12.2,12.2h71.6   C218.6,448,224,442.6,224,435.8z" fill="#e0e0e0" />
      <path d="M371.8,64h-71.6c-6.7,0-12.2,5.4-12.2,12.1v359.7c0,6.7,5.4,12.2,12.2,12.2h71.6c6.7,0,12.2-5.4,12.2-12.2V76.1   C384,69.4,378.6,64,371.8,64z" fill="#e0e0e0" />
    </g>
  </g>
</svg>
