<svg id="visual" viewBox="0 0 900 600" width="900" height="600" xmlns="http://www.w3.org/2000/svg" xmlns:xlink="http://www.w3.org/1999/xlink" version="1.1"><rect x="0" y="0" width="900" height="600" fill="#e0e0e0"></rect><g transform="translate(468.88227239176115 298.6171873162972)"><path d="M169.6 -190.8C210.6 -167.7 228.4 -105.5 222.5 -52.1C216.7 1.4 187.1 46.2 152.5 71.1C117.9 95.9 78.2 100.8 37.2 126.2C-3.9 151.6 -46.2 197.5 -94.8 204.2C-143.3 210.9 -198.1 178.5 -230.3 129.6C-262.5 80.8 -272.1 15.6 -247.5 -29.7C-222.9 -75 -164.2 -100.3 -117.2 -122.4C-70.3 -144.4 -35.1 -163.2 14.6 -180.6C64.3 -197.9 128.6 -213.9 169.6 -190.8" fill="#ff0066"></path></g></svg>