<svg xmlns="http://www.w3.org/2000/svg" version="1.1" xmlns:xlink="http://www.w3.org/1999/xlink" xmlns:svgjs="http://svgjs.com/svgjs" width="1920" height="1080" preserveAspectRatio="none" viewBox="0 0 1920 1080"><g mask="url(&quot;#SvgjsMask1059&quot;)" fill="none"><rect width="1920" height="1080" x="0" y="0" fill="rgba(51, 51, 51, 1)"></rect><path d="M1984 1080L0 1080 L0 543.99Q95.43 479.42, 160 574.85Q248.73 503.58, 320 592.31Q331.77 508.08, 416 519.84Q478.03 421.87, 576 483.9Q710.81 458.71, 736 593.53Q750.22 511.75, 832 525.97Q867.67 465.64, 928 501.31Q918.24 395.55, 1024 385.79Q1108.42 310.22, 1184 394.64Q1263.47 378.11, 1280 457.58Q1418.29 435.87, 1440 574.16Q1450.21 488.38, 1536 498.59Q1524.05 390.64, 1632 378.69Q1747.79 334.48, 1792 450.27Q1852.39 414.66, 1888 475.06Q1901.76 392.82, 1984 406.58z" fill="rgba(41, 59, 83, 1)"></path><path d="M2048 1080L0 1080 L0 735.31Q44.37 619.68, 160 664.06Q265.55 609.61, 320 715.15Q346.73 581.88, 480 608.6Q509.55 542.15, 576 571.71Q693.15 528.86, 736 646.01Q739.61 553.62, 832 557.22Q906.31 471.53, 992 545.83Q1058.71 516.54, 1088 583.25Q1202.24 601.49, 1184 715.73Q1294.6 666.33, 1344 776.93Q1384.5 721.43, 1440 761.93Q1452.85 678.78, 1536 691.63Q1578.45 638.08, 1632 680.52Q1666.58 555.1, 1792 589.68Q1855.56 557.24, 1888 620.8Q2012.12 584.92, 2048 709.04z" fill="#25467d"></path><path d="M1952 1080L0 1080 L0 770.88Q25.95 700.83, 96 726.77Q150.1 684.87, 192 738.97Q368.91 755.88, 352 932.79Q410.68 895.47, 448 954.16Q477.51 887.67, 544 917.18Q578.97 792.15, 704 827.12Q767.03 794.15, 800 857.19Q897.63 858.82, 896 956.44Q886.73 851.17, 992 841.91Q1016.79 706.7, 1152 731.49Q1208.83 692.32, 1248 749.14Q1317.8 722.94, 1344 792.75Q1360.94 713.69, 1440 730.63Q1536.95 667.58, 1600 764.52Q1688.04 692.56, 1760 780.6Q1822.47 747.08, 1856 809.55Q1932.42 789.97, 1952 866.4z" fill="#356cb1"></path><path d="M2016 1080L0 1080 L0 905.06Q81.26 826.32, 160 907.57Q337.23 924.8, 320 1102.02Q305.41 991.43, 416 976.84Q478.39 879.23, 576 941.62Q693.62 899.24, 736 1016.85Q772.13 956.98, 832 993.1Q862.44 927.54, 928 957.98Q996.28 866.26, 1088 934.55Q1201.75 888.3, 1248 1002.06Q1250.62 908.67, 1344 911.29Q1478.26 949.55, 1440 1083.81Q1539.43 1023.24, 1600 1122.68Q1627.72 990.4, 1760 1018.13Q1750.87 913, 1856 903.86Q2012.37 900.23, 2016 1056.61z" fill="rgba(224, 224, 224, 1)"></path></g><defs><mask id="SvgjsMask1059"><rect width="1920" height="1080" fill="#ffffff"></rect></mask></defs></svg>