<svg xmlns="http://www.w3.org/2000/svg" version="1.1" xmlns:xlink="http://www.w3.org/1999/xlink" xmlns:svgjs="http://svgjs.com/svgjs" width="1440" height="300" preserveAspectRatio="none" viewBox="0 0 1440 300"><g mask="url(&quot;#SvgjsMask1016&quot;)" fill="none"><path d="M563.94 269.01a12.68 12.68 0 1 0-19.64-16.05z" fill="rgba(231, 54, 53, 1)"></path><path d="M577.06 232.95 a3.75 3.75 0 1 0 7.5 0 a3.75 3.75 0 1 0 -7.5 0z" fill="rgba(0, 212, 255, 1)"></path><path d="M42.43 226.33a18.89 18.89 0 1 0 36.68 9.04z" fill="rgba(0, 212, 255, 1)"></path><path d="M1328.79 41.53 a15.79 15.79 0 1 0 31.58 0 a15.79 15.79 0 1 0 -31.58 0z" stroke="rgba(69, 252, 81, 1)"></path><path d="M404.65 230.78L430.57 230.78L430.57 256.7L404.65 256.7z" fill="rgba(231, 54, 53, 1)"></path><path d="M254 241.03L281.68 241.03L281.68 268.71L254 268.71z" stroke="rgba(0, 212, 255, 1)"></path><path d="M276.71 224.9L305.99 224.9L305.99 240.29L276.71 240.29z" stroke="rgba(69, 252, 81, 1)"></path><path d="M1152.53 122.38L1162.66 122.38L1162.66 128.69L1152.53 128.69z" fill="rgba(0, 212, 255, 1)"></path><path d="M321.6 255.55a25.03 25.03 0 1 0-49.1 9.76z" fill="rgba(231, 54, 53, 1)"></path><path d="M843.97 264.04a24.6 24.6 0 1 0 14.44 47.03z" fill="rgba(231, 54, 53, 1)"></path><path d="M104.28 203.23L108.71 203.23L108.71 218.69L104.28 218.69z" stroke="rgba(0, 212, 255, 1)"></path><path d="M768.8 232.56 a1.32 1.32 0 1 0 2.64 0 a1.32 1.32 0 1 0 -2.64 0z" stroke="rgba(231, 54, 53, 1)"></path><path d="M347.45 91.34L361.78 91.34L361.78 98.71L347.45 98.71z" stroke="rgba(69, 252, 81, 1)"></path><path d="M99.31 67.81 a13.25 13.25 0 1 0 26.5 0 a13.25 13.25 0 1 0 -26.5 0z" fill="rgba(231, 54, 53, 1)"></path><path d="M1419.72 185.19a6.74 6.74 0 1 0-13.27 2.35z" fill="rgba(231, 54, 53, 1)"></path><path d="M743.59 106.1L756.84 106.1L756.84 119.35L743.59 119.35z" stroke="rgba(0, 212, 255, 1)"></path><path d="M1140.23 28.37 a12.77 12.77 0 1 0 25.54 0 a12.77 12.77 0 1 0 -25.54 0z" fill="rgba(231, 54, 53, 1)"></path><path d="M272.89 243.46 a28.9 28.9 0 1 0 57.8 0 a28.9 28.9 0 1 0 -57.8 0z" fill="rgba(0, 212, 255, 1)"></path><path d="M210.45 273.67 a27.95 27.95 0 1 0 55.9 0 a27.95 27.95 0 1 0 -55.9 0z" stroke="rgba(231, 54, 53, 1)"></path><path d="M741.78 98.52 a1.29 1.29 0 1 0 2.58 0 a1.29 1.29 0 1 0 -2.58 0z" fill="rgba(231, 54, 53, 1)"></path><path d="M1286.15 109.78L1289.56 109.78L1289.56 113.19L1286.15 113.19z" stroke="rgba(69, 252, 81, 1)"></path><path d="M140.07 245.65a20.3 20.3 0 1 0-13.65-38.23z" stroke="rgba(231, 54, 53, 1)"></path><path d="M801.9 71.98L807.09 71.98L807.09 77.17L801.9 77.17z" stroke="rgba(0, 212, 255, 1)"></path><path d="M619.94 104.17a3.05 3.05 0 1 0 4.4-4.22z" stroke="rgba(231, 54, 53, 1)"></path><path d="M667.62 10.45L688.25 10.45L688.25 12.46L667.62 12.46z" fill="rgba(0, 212, 255, 1)"></path><path d="M841.8 140.76L846.01 140.76L846.01 144.97L841.8 144.97z" fill="rgba(0, 212, 255, 1)"></path><path d="M906.5 177.87a28.96 28.96 0 1 0 12.7-56.51z" fill="rgba(231, 54, 53, 1)"></path><path d="M706.36 266.21L725.91 266.21L725.91 285.76L706.36 285.76z" stroke="rgba(231, 54, 53, 1)"></path><path d="M368.08 131.99a28.05 28.05 0 1 0 40.07 39.26z" stroke="rgba(231, 54, 53, 1)"></path><path d="M1253.84 283.99 a4.66 4.66 0 1 0 9.32 0 a4.66 4.66 0 1 0 -9.32 0z" fill="rgba(231, 54, 53, 1)"></path><path d="M885.24 158.22L889.91 158.22L889.91 162.89L885.24 162.89z" fill="rgba(69, 252, 81, 1)"></path><path d="M920.91 108.34a0.95 0.95 0 1 0-1.69-0.87z" fill="rgba(0, 212, 255, 1)"></path><path d="M333.88 228.75 a6.23 6.23 0 1 0 12.46 0 a6.23 6.23 0 1 0 -12.46 0z" stroke="rgba(0, 212, 255, 1)"></path><path d="M952.26 261.83 a9.24 9.24 0 1 0 18.48 0 a9.24 9.24 0 1 0 -18.48 0z" stroke="rgba(69, 252, 81, 1)"></path><path d="M293.27 127.05L322.86 127.05L322.86 140.31L293.27 140.31z" stroke="rgba(231, 54, 53, 1)"></path><path d="M315.33 140.24a1.63 1.63 0 1 0 2.4-2.2z" stroke="rgba(0, 212, 255, 1)"></path><path d="M1125.98 45.53 a7.72 7.72 0 1 0 15.44 0 a7.72 7.72 0 1 0 -15.44 0z" fill="rgba(0, 212, 255, 1)"></path><path d="M1033.08 243.03a8.12 8.12 0 1 0-6.25-14.99z" fill="rgba(0, 212, 255, 1)"></path><path d="M1186.69 181.36L1202.04 181.36L1202.04 187.22L1186.69 187.22z" stroke="rgba(69, 252, 81, 1)"></path><path d="M234.91-2.25a22.48 22.48 0 1 0 22.63 38.85z" fill="rgba(231, 54, 53, 1)"></path><path d="M1130.05 45.07L1141.07 45.07L1141.07 56.09L1130.05 56.09z" fill="rgba(231, 54, 53, 1)"></path><path d="M405.46 251.42a1.28 1.28 0 1 0-0.91 2.39z" fill="rgba(231, 54, 53, 1)"></path><path d="M609.4 4.54L622.13 4.54L622.13 33.39L609.4 33.39z" stroke="rgba(231, 54, 53, 1)"></path><path d="M85.72 40.92a2.55 2.55 0 1 0 3.24 3.94z" fill="rgba(231, 54, 53, 1)"></path><path d="M1017.41 158.68L1026.57 158.68L1026.57 181.87L1017.41 181.87z" stroke="rgba(231, 54, 53, 1)"></path><path d="M676.94 3.89L682.93 3.89L682.93 27.38L676.94 27.38z" fill="rgba(231, 54, 53, 1)"></path><path d="M930.06 42.12L955.4 42.12L955.4 67.46L930.06 67.46z" fill="rgba(231, 54, 53, 1)"></path><path d="M1225.46 138.67a19.29 19.29 0 1 0 37.71-8.14z" fill="rgba(69, 252, 81, 1)"></path><path d="M138.7 221.8L165.71 221.8L165.71 248.81L138.7 248.81z" fill="rgba(0, 212, 255, 1)"></path><path d="M422.68 291.51L444.83 291.51L444.83 310.54L422.68 310.54z" stroke="rgba(69, 252, 81, 1)"></path><path d="M1177.78 78.74L1197.22 78.74L1197.22 98.18L1177.78 98.18z" stroke="rgba(0, 212, 255, 1)"></path><path d="M422.36 63.83 a5.23 5.23 0 1 0 10.46 0 a5.23 5.23 0 1 0 -10.46 0z" fill="rgba(69, 252, 81, 1)"></path><path d="M431.76 125.26L432.24 125.26L432.24 125.74L431.76 125.74z" fill="rgba(231, 54, 53, 1)"></path><path d="M379.92 174.47a13.96 13.96 0 1 0-21.81 17.44z" stroke="rgba(231, 54, 53, 1)"></path><path d="M74.05 202.02L84.13 202.02L84.13 212.1L74.05 212.1z" fill="rgba(231, 54, 53, 1)"></path><path d="M1411.17 183.47L1411.64 183.47L1411.64 194.76L1411.17 194.76z" stroke="rgba(69, 252, 81, 1)"></path><path d="M708.47 288.98 a28.06 28.06 0 1 0 56.12 0 a28.06 28.06 0 1 0 -56.12 0z" fill="rgba(0, 212, 255, 1)"></path><path d="M523.19 193.47L527.78 193.47L527.78 222L523.19 222z" fill="rgba(69, 252, 81, 1)"></path><path d="M776.16 24.55L777.25 24.55L777.25 25.64L776.16 25.64z" fill="rgba(69, 252, 81, 1)"></path><path d="M1050.87 35.55L1059.58 35.55L1059.58 59.08L1050.87 59.08z" fill="rgba(231, 54, 53, 1)"></path></g><defs><mask id="SvgjsMask1016"><rect width="1440" height="300" fill="#ffffff"></rect></mask></defs></svg>