<svg xmlns="http://www.w3.org/2000/svg" version="1.1" xmlns:xlink="http://www.w3.org/1999/xlink" xmlns:svgjs="http://svgjs.com/svgjs" width="6000" height="300" preserveAspectRatio="none" viewBox="0 0 6000 300"><g mask="url(&quot;#SvgjsMask1027&quot;)" fill="none"><path d="M4552.02 181.76L4552.17 181.76L4552.17 181.91L4552.02 181.91z" fill="rgba(0, 212, 255, 1)"></path><path d="M2951.34 245.93L2963.35 245.93L2963.35 262.7L2951.34 262.7z" fill="rgba(69, 252, 81, 1)"></path><path d="M5237.73 162.36L5258.46 162.36L5258.46 174.89L5237.73 174.89z" fill="rgba(0, 212, 255, 1)"></path><path d="M5305.29 19.1 a21.57 21.57 0 1 0 43.14 0 a21.57 21.57 0 1 0 -43.14 0z" stroke="rgba(0, 212, 255, 1)"></path><path d="M5035.33 220.97 a27.36 27.36 0 1 0 54.72 0 a27.36 27.36 0 1 0 -54.72 0z" stroke="rgba(231, 54, 53, 1)"></path><path d="M3800.42 261.32a12.13 12.13 0 1 0-15.65-18.54z" fill="rgba(0, 212, 255, 1)"></path><path d="M4442.1 64.37a11.26 11.26 0 1 0 14.74-17.03z" fill="rgba(231, 54, 53, 1)"></path><path d="M2517.74 89.37a16.88 16.88 0 1 0-20.28-26.99z" fill="rgba(69, 252, 81, 1)"></path><path d="M3813.16 233.35 a3.56 3.56 0 1 0 7.12 0 a3.56 3.56 0 1 0 -7.12 0z" stroke="rgba(231, 54, 53, 1)"></path><path d="M3334.87 130.09a10.6 10.6 0 1 0-21.2-0.36z" fill="rgba(231, 54, 53, 1)"></path><path d="M160.84 244.28 a18.85 18.85 0 1 0 37.7 0 a18.85 18.85 0 1 0 -37.7 0z" stroke="rgba(0, 212, 255, 1)"></path><path d="M1058.69 239.2L1068.09 239.2L1068.09 257.21L1058.69 257.21z" stroke="rgba(0, 212, 255, 1)"></path><path d="M3206.59 248.7a22.78 22.78 0 1 0 41.54 18.7z" fill="rgba(69, 252, 81, 1)"></path><path d="M1655.33 22.13a4.07 4.07 0 1 0-8.01-1.47z" stroke="rgba(231, 54, 53, 1)"></path><path d="M2793.92 107.33L2821.85 107.33L2821.85 135.26L2793.92 135.26z" stroke="rgba(69, 252, 81, 1)"></path><path d="M3598.31 131.09L3623.24 131.09L3623.24 156.02L3598.31 156.02z" stroke="rgba(69, 252, 81, 1)"></path><path d="M918.89 179.85 a12.9 12.9 0 1 0 25.8 0 a12.9 12.9 0 1 0 -25.8 0z" stroke="rgba(231, 54, 53, 1)"></path><path d="M3372.03 120.23a28.68 28.68 0 1 0 51.15-25.96z" fill="rgba(231, 54, 53, 1)"></path><path d="M3921.51 175.34L3943.46 175.34L3943.46 191.79L3921.51 191.79z" fill="rgba(0, 212, 255, 1)"></path><path d="M4827.85 68.4a4.41 4.41 0 1 0 5.48-6.91z" fill="rgba(69, 252, 81, 1)"></path><path d="M5134.68 176.06L5149.11 176.06L5149.11 177.45L5134.68 177.45z" stroke="rgba(69, 252, 81, 1)"></path><path d="M2953.25 113.19a6.05 6.05 0 1 0 6.78-10.02z" stroke="rgba(0, 212, 255, 1)"></path><path d="M1014.4 15.5 a9.41 9.41 0 1 0 18.82 0 a9.41 9.41 0 1 0 -18.82 0z" stroke="rgba(0, 212, 255, 1)"></path><path d="M4300.57 165.47 a20.16 20.16 0 1 0 40.32 0 a20.16 20.16 0 1 0 -40.32 0z" fill="rgba(0, 212, 255, 1)"></path><path d="M3615.67 226.27L3632.3 226.27L3632.3 242.9L3615.67 242.9z" fill="rgba(69, 252, 81, 1)"></path><path d="M4379.55 207.67L4405.69 207.67L4405.69 233.81L4379.55 233.81z" fill="rgba(0, 212, 255, 1)"></path><path d="M5691.18 289.6L5718.11 289.6L5718.11 316.53L5691.18 316.53z" fill="rgba(0, 212, 255, 1)"></path><path d="M4420.7 130.61L4432.35 130.61L4432.35 156.93L4420.7 156.93z" fill="rgba(69, 252, 81, 1)"></path><path d="M1117.41 32.47L1135.4 32.47L1135.4 52.34L1117.41 52.34z" stroke="rgba(69, 252, 81, 1)"></path><path d="M5840.97 19.95L5857.72 19.95L5857.72 36.7L5840.97 36.7z" fill="rgba(0, 212, 255, 1)"></path><path d="M2317.73 14.8 a2.98 2.98 0 1 0 5.96 0 a2.98 2.98 0 1 0 -5.96 0z" fill="rgba(0, 212, 255, 1)"></path><path d="M5534.65 213.17a21.33 21.33 0 1 0 13.25-40.55z" fill="rgba(69, 252, 81, 1)"></path><path d="M5908.13 255.15L5910.47 255.15L5910.47 257.49L5908.13 257.49z" fill="rgba(0, 212, 255, 1)"></path><path d="M5451.91 247.69 a27.91 27.91 0 1 0 55.82 0 a27.91 27.91 0 1 0 -55.82 0z" stroke="rgba(69, 252, 81, 1)"></path><path d="M1225.65 135.08L1251.55 135.08L1251.55 149.93L1225.65 149.93z" stroke="rgba(0, 212, 255, 1)"></path><path d="M2920.93 74.48a20.78 20.78 0 1 0-10.25 40.27z" fill="rgba(69, 252, 81, 1)"></path><path d="M838.96 124.31L854.27 124.31L854.27 131.48L838.96 131.48z" stroke="rgba(69, 252, 81, 1)"></path><path d="M5955.6 26L5965.66 26L5965.66 40.54L5955.6 40.54z" stroke="rgba(231, 54, 53, 1)"></path><path d="M3515.13 295.35 a9.2 9.2 0 1 0 18.4 0 a9.2 9.2 0 1 0 -18.4 0z" fill="rgba(0, 212, 255, 1)"></path><path d="M1669.28 142.1 a22.46 22.46 0 1 0 44.92 0 a22.46 22.46 0 1 0 -44.92 0z" stroke="rgba(0, 212, 255, 1)"></path><path d="M2002.82 257.19 a0.98 0.98 0 1 0 1.96 0 a0.98 0.98 0 1 0 -1.96 0z" stroke="rgba(69, 252, 81, 1)"></path><path d="M1895.47 279.95a21.3 21.3 0 1 0 28.03-32.08z" stroke="rgba(0, 212, 255, 1)"></path><path d="M5176.56 227.62a18.82 18.82 0 1 0-9.65 36.38z" stroke="rgba(0, 212, 255, 1)"></path><path d="M4174.01 57.21 a6.93 6.93 0 1 0 13.86 0 a6.93 6.93 0 1 0 -13.86 0z" fill="rgba(69, 252, 81, 1)"></path><path d="M1916.48 57.03L1919.59 57.03L1919.59 60.14L1916.48 60.14z" stroke="rgba(231, 54, 53, 1)"></path><path d="M2393.79 132.66L2415.34 132.66L2415.34 154.21L2393.79 154.21z" stroke="rgba(0, 212, 255, 1)"></path><path d="M3876.88 7.43L3891.59 7.43L3891.59 22.14L3876.88 22.14z" fill="rgba(0, 212, 255, 1)"></path><path d="M4665.14 143.95L4677.81 143.95L4677.81 166.49L4665.14 166.49z" stroke="rgba(231, 54, 53, 1)"></path><path d="M2752.55 95.49L2765.4 95.49L2765.4 120.12L2752.55 120.12z" fill="rgba(69, 252, 81, 1)"></path><path d="M2646.43 5.84a27.24 27.24 0 1 0-53.1 12.17z" stroke="rgba(69, 252, 81, 1)"></path><path d="M1307.02 111.7L1330.27 111.7L1330.27 134.95L1307.02 134.95z" stroke="rgba(0, 212, 255, 1)"></path><path d="M3712.45 122.43 a26.25 26.25 0 1 0 52.5 0 a26.25 26.25 0 1 0 -52.5 0z" stroke="rgba(69, 252, 81, 1)"></path><path d="M5453.07 187.38 a6.57 6.57 0 1 0 13.14 0 a6.57 6.57 0 1 0 -13.14 0z" stroke="rgba(231, 54, 53, 1)"></path><path d="M1683.37 57.22L1689.58 57.22L1689.58 75.61L1683.37 75.61z" stroke="rgba(0, 212, 255, 1)"></path><path d="M4035.41 231.33L4047.56 231.33L4047.56 236.81L4035.41 236.81z" stroke="rgba(231, 54, 53, 1)"></path><path d="M5297.44 179.7a17.91 17.91 0 1 0 24.41 26.22z" stroke="rgba(69, 252, 81, 1)"></path><path d="M4455.62 159.44L4473.74 159.44L4473.74 181.18L4455.62 181.18z" stroke="rgba(231, 54, 53, 1)"></path><path d="M2080.89 74.55 a13.15 13.15 0 1 0 26.3 0 a13.15 13.15 0 1 0 -26.3 0z" stroke="rgba(69, 252, 81, 1)"></path><path d="M4929.69 244.81a7.54 7.54 0 1 0-14.81-2.82z" stroke="rgba(69, 252, 81, 1)"></path><path d="M3262.05 254.09L3285.86 254.09L3285.86 277.9L3262.05 277.9z" stroke="rgba(0, 212, 255, 1)"></path><path d="M4562.95 54.32L4587.13 54.32L4587.13 65.18L4562.95 65.18z" fill="rgba(231, 54, 53, 1)"></path><path d="M3847.01 137.44 a1.38 1.38 0 1 0 2.76 0 a1.38 1.38 0 1 0 -2.76 0z" fill="rgba(69, 252, 81, 1)"></path><path d="M115.63 290.02a11.81 11.81 0 1 0 12.75-19.88z" stroke="rgba(69, 252, 81, 1)"></path><path d="M5203.33 267.27L5233.18 267.27L5233.18 273.44L5203.33 273.44z" fill="rgba(69, 252, 81, 1)"></path><path d="M1241.89 74.17 a29.77 29.77 0 1 0 59.54 0 a29.77 29.77 0 1 0 -59.54 0z" stroke="rgba(231, 54, 53, 1)"></path><path d="M5401.76 109.86L5404.68 109.86L5404.68 112.78L5401.76 112.78z" stroke="rgba(231, 54, 53, 1)"></path><path d="M303.48 171.89L315.64 171.89L315.64 184.05L303.48 184.05z" stroke="rgba(69, 252, 81, 1)"></path><path d="M2352.27 68.44L2376.05 68.44L2376.05 96.4L2352.27 96.4z" stroke="rgba(69, 252, 81, 1)"></path><path d="M104.06 14.23a17 17 0 1 0-11.19 32.11z" stroke="rgba(69, 252, 81, 1)"></path><path d="M1974.31 231.31L1976.94 231.31L1976.94 233.94L1974.31 233.94z" fill="rgba(69, 252, 81, 1)"></path><path d="M4030.14 39.89L4056.13 39.89L4056.13 65.88L4030.14 65.88z" fill="rgba(231, 54, 53, 1)"></path><path d="M2107.72 234.55L2112.49 234.55L2112.49 256.66L2107.72 256.66z" stroke="rgba(0, 212, 255, 1)"></path><path d="M5286.62 10.44 a29.99 29.99 0 1 0 59.98 0 a29.99 29.99 0 1 0 -59.98 0z" fill="rgba(231, 54, 53, 1)"></path><path d="M5791.17 193.85L5804.8 193.85L5804.8 207.48L5791.17 207.48z" fill="rgba(0, 212, 255, 1)"></path><path d="M4260.93 57.84a18.48 18.48 0 1 0 36.94 1.42z" stroke="rgba(69, 252, 81, 1)"></path><path d="M3084.2 285.2L3087.98 285.2L3087.98 288.98L3084.2 288.98z" fill="rgba(0, 212, 255, 1)"></path><path d="M4120.99-5.4a13.12 13.12 0 1 0 11.4 23.63z" fill="rgba(69, 252, 81, 1)"></path><path d="M775.38 274.74L804.16 274.74L804.16 303.52L775.38 303.52z" stroke="rgba(69, 252, 81, 1)"></path><path d="M788.95 26.4L797.93 26.4L797.93 47.08L788.95 47.08z" fill="rgba(69, 252, 81, 1)"></path><path d="M2127.05 265.1 a24.9 24.9 0 1 0 49.8 0 a24.9 24.9 0 1 0 -49.8 0z" stroke="rgba(69, 252, 81, 1)"></path><path d="M924.66 14.2L935.92 14.2L935.92 19.44L924.66 19.44z" stroke="rgba(231, 54, 53, 1)"></path><path d="M2526.19 191.58L2534.37 191.58L2534.37 199.76L2526.19 199.76z" fill="rgba(69, 252, 81, 1)"></path><path d="M5277.34 175.54L5300.52 175.54L5300.52 177.37L5277.34 177.37z" fill="rgba(0, 212, 255, 1)"></path><path d="M2239.68 200.53L2244.98 200.53L2244.98 205.83L2239.68 205.83z" stroke="rgba(0, 212, 255, 1)"></path><path d="M2343.1 127.87L2345.68 127.87L2345.68 156.05L2343.1 156.05z" stroke="rgba(69, 252, 81, 1)"></path><path d="M1856.11 53.64L1875.78 53.64L1875.78 54.98L1856.11 54.98z" fill="rgba(0, 212, 255, 1)"></path><path d="M1930.66 102.09L1938.84 102.09L1938.84 108.42L1930.66 108.42z" fill="rgba(0, 212, 255, 1)"></path><path d="M4278.03 285.53L4290.98 285.53L4290.98 298.48L4278.03 298.48z" stroke="rgba(69, 252, 81, 1)"></path><path d="M2161.42 240.93a5.94 5.94 0 1 0 4-11.19z" stroke="rgba(0, 212, 255, 1)"></path><path d="M3184 15.94a5.52 5.52 0 1 0-9.32-5.91z" stroke="rgba(0, 212, 255, 1)"></path><path d="M5375.26 70.43 a10.85 10.85 0 1 0 21.7 0 a10.85 10.85 0 1 0 -21.7 0z" fill="rgba(0, 212, 255, 1)"></path><path d="M2372.58 157.28 a26.31 26.31 0 1 0 52.62 0 a26.31 26.31 0 1 0 -52.62 0z" stroke="rgba(0, 212, 255, 1)"></path><path d="M4883.55 234.01L4889.48 234.01L4889.48 253.33L4883.55 253.33z" fill="rgba(231, 54, 53, 1)"></path><path d="M1308.9 28.33a16.69 16.69 0 1 0-1.83 33.33z" fill="rgba(231, 54, 53, 1)"></path><path d="M3960.83 76.79 a9.91 9.91 0 1 0 19.82 0 a9.91 9.91 0 1 0 -19.82 0z" stroke="rgba(69, 252, 81, 1)"></path><path d="M1035.5 233.22a14.98 14.98 0 1 0-25.12-16.32z" fill="rgba(0, 212, 255, 1)"></path><path d="M2897.53 207.93L2905.88 207.93L2905.88 216.28L2897.53 216.28z" fill="rgba(0, 212, 255, 1)"></path><path d="M919.58 283.8L937.33 283.8L937.33 301.55L919.58 301.55z" stroke="rgba(231, 54, 53, 1)"></path><path d="M2942.88 102.46a0.95 0.95 0 1 0-1.83 0.49z" stroke="rgba(231, 54, 53, 1)"></path><path d="M3317.21 101.76 a3.03 3.03 0 1 0 6.06 0 a3.03 3.03 0 1 0 -6.06 0z" stroke="rgba(69, 252, 81, 1)"></path><path d="M2327 103.95a25.38 25.38 0 1 0 41.64 29.03z" stroke="rgba(0, 212, 255, 1)"></path><path d="M2997.45 163.98a1.74 1.74 0 1 0-3.39-0.78z" stroke="rgba(231, 54, 53, 1)"></path><path d="M1814.84 92.71L1833.72 92.71L1833.72 114.95L1814.84 114.95z" stroke="rgba(69, 252, 81, 1)"></path><path d="M5852.52 274.99L5873.14 274.99L5873.14 295.61L5852.52 295.61z" fill="rgba(0, 212, 255, 1)"></path><path d="M3839.23 136.43 a19.37 19.37 0 1 0 38.74 0 a19.37 19.37 0 1 0 -38.74 0z" fill="rgba(69, 252, 81, 1)"></path><path d="M4531.56 262.04L4549.37 262.04L4549.37 282.42L4531.56 282.42z" fill="rgba(0, 212, 255, 1)"></path><path d="M642.74 83.78 a23.88 23.88 0 1 0 47.76 0 a23.88 23.88 0 1 0 -47.76 0z" fill="rgba(231, 54, 53, 1)"></path><path d="M2075.59 172.39L2104.82 172.39L2104.82 181.02L2075.59 181.02z" stroke="rgba(69, 252, 81, 1)"></path><path d="M4546.57 1.96a3.51 3.51 0 1 0 4.01 5.76z" stroke="rgba(231, 54, 53, 1)"></path><path d="M2815.61 110.09L2823.84 110.09L2823.84 118.32L2815.61 118.32z" stroke="rgba(0, 212, 255, 1)"></path><path d="M1213.43 197.96L1240.02 197.96L1240.02 224.55L1213.43 224.55z" stroke="rgba(69, 252, 81, 1)"></path><path d="M2153.88 131.75L2179.71 131.75L2179.71 157.58L2153.88 157.58z" fill="rgba(0, 212, 255, 1)"></path><path d="M1791.02 26.01 a29.89 29.89 0 1 0 59.78 0 a29.89 29.89 0 1 0 -59.78 0z" fill="rgba(69, 252, 81, 1)"></path><path d="M4299.75 17.98L4318 17.98L4318 36.23L4299.75 36.23z" stroke="rgba(69, 252, 81, 1)"></path><path d="M1424.37 247.18L1427.9 247.18L1427.9 262.42L1424.37 262.42z" fill="rgba(69, 252, 81, 1)"></path><path d="M4519.27 129.82 a19.85 19.85 0 1 0 39.7 0 a19.85 19.85 0 1 0 -39.7 0z" stroke="rgba(231, 54, 53, 1)"></path><path d="M4206.47 46.71L4229.51 46.71L4229.51 69.75L4206.47 69.75z" fill="rgba(231, 54, 53, 1)"></path><path d="M1478.72 140.61a14.89 14.89 0 1 0-20.47-21.64z" stroke="rgba(69, 252, 81, 1)"></path><path d="M1568.99 74.32L1594.79 74.32L1594.79 83.11L1568.99 83.11z" stroke="rgba(69, 252, 81, 1)"></path><path d="M4675.01 296.24L4688.2 296.24L4688.2 323.28L4675.01 323.28z" fill="rgba(231, 54, 53, 1)"></path><path d="M5955.22 287.64 a11.92 11.92 0 1 0 23.84 0 a11.92 11.92 0 1 0 -23.84 0z" stroke="rgba(0, 212, 255, 1)"></path><path d="M5491.76 288.1L5514.3 288.1L5514.3 310.64L5491.76 310.64z" stroke="rgba(69, 252, 81, 1)"></path><path d="M2237.74 76.88a3.51 3.51 0 1 0 4.16 5.65z" fill="rgba(69, 252, 81, 1)"></path><path d="M380.6 154.56 a8.18 8.18 0 1 0 16.36 0 a8.18 8.18 0 1 0 -16.36 0z" stroke="rgba(231, 54, 53, 1)"></path><path d="M2499.12 278.24 a16.25 16.25 0 1 0 32.5 0 a16.25 16.25 0 1 0 -32.5 0z" fill="rgba(231, 54, 53, 1)"></path><path d="M1510.2 226.97 a9.06 9.06 0 1 0 18.12 0 a9.06 9.06 0 1 0 -18.12 0z" stroke="rgba(231, 54, 53, 1)"></path><path d="M4815.62 142.3L4817.42 142.3L4817.42 164.73L4815.62 164.73z" fill="rgba(231, 54, 53, 1)"></path><path d="M4940.87 178.29a22.32 22.32 0 1 0 12.82 42.76z" fill="rgba(231, 54, 53, 1)"></path><path d="M852.67 291.9L869.82 291.9L869.82 314.65L852.67 314.65z" stroke="rgba(69, 252, 81, 1)"></path><path d="M4760.05 231.92a26.53 26.53 0 1 0-42.18-32.2z" stroke="rgba(69, 252, 81, 1)"></path><path d="M5420.07 87.65L5442.46 87.65L5442.46 110.04L5420.07 110.04z" fill="rgba(231, 54, 53, 1)"></path><path d="M2681.56 238.43L2698.08 238.43L2698.08 242.7L2681.56 242.7z" fill="rgba(231, 54, 53, 1)"></path><path d="M2130.56 192.16L2157.11 192.16L2157.11 218.71L2130.56 218.71z" fill="rgba(69, 252, 81, 1)"></path><path d="M5725.59 129.05L5750.14 129.05L5750.14 135.67L5725.59 135.67z" stroke="rgba(0, 212, 255, 1)"></path><path d="M2014.05 234.28 a13.69 13.69 0 1 0 27.38 0 a13.69 13.69 0 1 0 -27.38 0z" fill="rgba(69, 252, 81, 1)"></path><path d="M5713.93 1.3L5723.69 1.3L5723.69 19.56L5713.93 19.56z" fill="rgba(231, 54, 53, 1)"></path><path d="M4962.36 81.81 a17.32 17.32 0 1 0 34.64 0 a17.32 17.32 0 1 0 -34.64 0z" stroke="rgba(69, 252, 81, 1)"></path><path d="M4840.28 207.12L4849.56 207.12L4849.56 216.71L4840.28 216.71z" stroke="rgba(0, 212, 255, 1)"></path><path d="M2963.3 88.86L2967.89 88.86L2967.89 102.62L2963.3 102.62z" stroke="rgba(231, 54, 53, 1)"></path><path d="M5185.07 119.93L5193.5 119.93L5193.5 133.15L5185.07 133.15z" stroke="rgba(69, 252, 81, 1)"></path><path d="M1569.75 245.6 a6.76 6.76 0 1 0 13.52 0 a6.76 6.76 0 1 0 -13.52 0z" fill="rgba(231, 54, 53, 1)"></path><path d="M2588.57 242.58 a2.6 2.6 0 1 0 5.2 0 a2.6 2.6 0 1 0 -5.2 0z" fill="rgba(69, 252, 81, 1)"></path><path d="M785.29 93.38L803.48 93.38L803.48 111.57L785.29 111.57z" stroke="rgba(0, 212, 255, 1)"></path><path d="M809.98 77.55L814.66 77.55L814.66 81.97L809.98 81.97z" fill="rgba(231, 54, 53, 1)"></path><path d="M5774.14 179.45a11.89 11.89 0 1 0-8.51-22.21z" fill="rgba(0, 212, 255, 1)"></path><path d="M5084.79 158.42a7.83 7.83 0 1 0-1.15 15.62z" stroke="rgba(231, 54, 53, 1)"></path><path d="M4297.29 182.08 a26.79 26.79 0 1 0 53.58 0 a26.79 26.79 0 1 0 -53.58 0z" stroke="rgba(69, 252, 81, 1)"></path><path d="M4660.48 148.04a6.87 6.87 0 1 0-12.45 5.81z" stroke="rgba(231, 54, 53, 1)"></path><path d="M1247.13 274.27L1256.75 274.27L1256.75 297.21L1247.13 297.21z" stroke="rgba(0, 212, 255, 1)"></path><path d="M4360.28 128.91L4371.71 128.91L4371.71 139.89L4360.28 139.89z" stroke="rgba(69, 252, 81, 1)"></path><path d="M5396.67 264.55L5409.2 264.55L5409.2 283.62L5396.67 283.62z" fill="rgba(231, 54, 53, 1)"></path><path d="M125.89 245.75L147.29 245.75L147.29 271.46L125.89 271.46z" fill="rgba(69, 252, 81, 1)"></path><path d="M2063 16.72 a27.37 27.37 0 1 0 54.74 0 a27.37 27.37 0 1 0 -54.74 0z" stroke="rgba(69, 252, 81, 1)"></path><path d="M3579.51 164.62a28.86 28.86 0 1 0 51.52 26z" stroke="rgba(0, 212, 255, 1)"></path><path d="M5328.21 64.99a13.71 13.71 0 1 0 24.42 12.47z" fill="rgba(0, 212, 255, 1)"></path><path d="M3564.52 131.4a5.92 5.92 0 1 0-9.33-7.29z" stroke="rgba(231, 54, 53, 1)"></path><path d="M1810.47 63.18L1819.72 63.18L1819.72 72.43L1810.47 72.43z" stroke="rgba(231, 54, 53, 1)"></path><path d="M5869.95 94.79L5874.07 94.79L5874.07 98.54L5869.95 98.54z" fill="rgba(0, 212, 255, 1)"></path><path d="M1466.75 119.99a5.23 5.23 0 1 0-4.27 9.56z" stroke="rgba(0, 212, 255, 1)"></path><path d="M1251.59 78.49 a7.25 7.25 0 1 0 14.5 0 a7.25 7.25 0 1 0 -14.5 0z" fill="rgba(231, 54, 53, 1)"></path><path d="M1819.99 261.66a13.46 13.46 0 1 0-21.33 16.42z" stroke="rgba(69, 252, 81, 1)"></path><path d="M836.65 146.51L847.68 146.51L847.68 166.47L836.65 166.47z" stroke="rgba(0, 212, 255, 1)"></path><path d="M4182.23 35.53a8.83 8.83 0 1 0 11.56-13.35z" stroke="rgba(0, 212, 255, 1)"></path><path d="M2338.2 194.92 a21.32 21.32 0 1 0 42.64 0 a21.32 21.32 0 1 0 -42.64 0z" fill="rgba(0, 212, 255, 1)"></path><path d="M1555.25 227.48L1575.68 227.48L1575.68 247.91L1555.25 247.91z" fill="rgba(231, 54, 53, 1)"></path><path d="M526.19 158.47 a4.48 4.48 0 1 0 8.96 0 a4.48 4.48 0 1 0 -8.96 0z" stroke="rgba(0, 212, 255, 1)"></path><path d="M4776.68 200.18L4802.02 200.18L4802.02 225.52L4776.68 225.52z" fill="rgba(0, 212, 255, 1)"></path><path d="M3126.58 108.12L3155.75 108.12L3155.75 137.29L3126.58 137.29z" stroke="rgba(231, 54, 53, 1)"></path><path d="M5441 20.57L5467.42 20.57L5467.42 44.37L5441 44.37z" fill="rgba(69, 252, 81, 1)"></path><path d="M1153.94 3.69L1163.55 3.69L1163.55 13.3L1153.94 13.3z" stroke="rgba(231, 54, 53, 1)"></path><path d="M3182.41 123.75L3198.84 123.75L3198.84 129.99L3182.41 129.99z" fill="rgba(0, 212, 255, 1)"></path><path d="M5433.16 8.31 a7.03 7.03 0 1 0 14.06 0 a7.03 7.03 0 1 0 -14.06 0z" stroke="rgba(231, 54, 53, 1)"></path><path d="M5638.73 280.22 a22.42 22.42 0 1 0 44.84 0 a22.42 22.42 0 1 0 -44.84 0z" fill="rgba(231, 54, 53, 1)"></path><path d="M2088.15 77.17L2111.58 77.17L2111.58 81.71L2088.15 81.71z" stroke="rgba(69, 252, 81, 1)"></path><path d="M1575.49 87.83L1603.76 87.83L1603.76 89.52L1575.49 89.52z" stroke="rgba(69, 252, 81, 1)"></path><path d="M5771.71 154.78L5781.48 154.78L5781.48 164.55L5771.71 164.55z" stroke="rgba(69, 252, 81, 1)"></path><path d="M4366.82 301.38a19.65 19.65 0 1 0-3.7-39.13z" fill="rgba(0, 212, 255, 1)"></path><path d="M317.67 196.07L320.97 196.07L320.97 199.37L317.67 199.37z" fill="rgba(69, 252, 81, 1)"></path><path d="M1768.8 157.16a22.7 22.7 0 1 0 9.77 44.34z" stroke="rgba(231, 54, 53, 1)"></path><path d="M797.45 19.86L808.91 19.86L808.91 28.8L797.45 28.8z" stroke="rgba(231, 54, 53, 1)"></path><path d="M3681.44 166.24 a26.72 26.72 0 1 0 53.44 0 a26.72 26.72 0 1 0 -53.44 0z" fill="rgba(69, 252, 81, 1)"></path><path d="M5788.95 203.55L5807.51 203.55L5807.51 226.04L5788.95 226.04z" fill="rgba(231, 54, 53, 1)"></path><path d="M1059.57 158.71L1083.64 158.71L1083.64 172.46L1059.57 172.46z" fill="rgba(231, 54, 53, 1)"></path><path d="M1586.4 263.57L1604.87 263.57L1604.87 286.71L1586.4 286.71z" stroke="rgba(69, 252, 81, 1)"></path><path d="M2220.87 254.54 a25.42 25.42 0 1 0 50.84 0 a25.42 25.42 0 1 0 -50.84 0z" fill="rgba(231, 54, 53, 1)"></path><path d="M5252.95 74.35 a1.78 1.78 0 1 0 3.56 0 a1.78 1.78 0 1 0 -3.56 0z" stroke="rgba(69, 252, 81, 1)"></path><path d="M2213.34 286.14L2237.87 286.14L2237.87 310.67L2213.34 310.67z" stroke="rgba(69, 252, 81, 1)"></path><path d="M2760.82 77.56L2780.16 77.56L2780.16 96.9L2760.82 96.9z" fill="rgba(0, 212, 255, 1)"></path><path d="M115.1 95.93L133.55 95.93L133.55 118.19L115.1 118.19z" stroke="rgba(69, 252, 81, 1)"></path><path d="M2523.77 168.86L2544.76 168.86L2544.76 189.85L2523.77 189.85z" stroke="rgba(0, 212, 255, 1)"></path><path d="M1054.68 246L1059.11 246L1059.11 250.43L1054.68 250.43z" stroke="rgba(69, 252, 81, 1)"></path><path d="M2590.24 282.23 a4.33 4.33 0 1 0 8.66 0 a4.33 4.33 0 1 0 -8.66 0z" stroke="rgba(0, 212, 255, 1)"></path><path d="M468.48 125.63 a8.2 8.2 0 1 0 16.4 0 a8.2 8.2 0 1 0 -16.4 0z" fill="rgba(69, 252, 81, 1)"></path><path d="M2806.63 52.11L2808.77 52.11L2808.77 73.57L2806.63 73.57z" fill="rgba(69, 252, 81, 1)"></path><path d="M1823.21 119.3L1839.74 119.3L1839.74 135.83L1823.21 135.83z" stroke="rgba(69, 252, 81, 1)"></path><path d="M5071.06 159.39 a9.99 9.99 0 1 0 19.98 0 a9.99 9.99 0 1 0 -19.98 0z" fill="rgba(0, 212, 255, 1)"></path><path d="M2410.27 284.38 a8.94 8.94 0 1 0 17.88 0 a8.94 8.94 0 1 0 -17.88 0z" stroke="rgba(69, 252, 81, 1)"></path><path d="M5348.6 34.91a2.88 2.88 0 1 0 0.51-5.74z" stroke="rgba(231, 54, 53, 1)"></path><path d="M2089.67 119.94L2093.89 119.94L2093.89 124.16L2089.67 124.16z" stroke="rgba(0, 212, 255, 1)"></path><path d="M847.75 51.31L856.24 51.31L856.24 77.99L847.75 77.99z" stroke="rgba(69, 252, 81, 1)"></path><path d="M41.35 100.59a16.1 16.1 0 1 0 24.88 20.44z" stroke="rgba(69, 252, 81, 1)"></path><path d="M714.47 136.89 a29.67 29.67 0 1 0 59.34 0 a29.67 29.67 0 1 0 -59.34 0z" stroke="rgba(69, 252, 81, 1)"></path><path d="M3545.91 112.34L3562.43 112.34L3562.43 128.86L3545.91 128.86z" fill="rgba(0, 212, 255, 1)"></path><path d="M2036.96 259.02L2050.12 259.02L2050.12 274L2036.96 274z" stroke="rgba(69, 252, 81, 1)"></path><path d="M3648.15 106.94a5.31 5.31 0 1 0 9 5.64z" stroke="rgba(0, 212, 255, 1)"></path><path d="M3991.29 174.76a29.38 29.38 0 1 0 28.43-51.42z" fill="rgba(69, 252, 81, 1)"></path><path d="M567 16.29L591.26 16.29L591.26 37.27L567 37.27z" stroke="rgba(0, 212, 255, 1)"></path><path d="M4532.2 142.77a18.83 18.83 0 1 0 37.66 0.28z" fill="rgba(231, 54, 53, 1)"></path><path d="M2563.61 145.16L2589.51 145.16L2589.51 171.06L2563.61 171.06z" stroke="rgba(231, 54, 53, 1)"></path><path d="M539.8 164.12 a17.03 17.03 0 1 0 34.06 0 a17.03 17.03 0 1 0 -34.06 0z" stroke="rgba(231, 54, 53, 1)"></path><path d="M3532.05 149.23a14.14 14.14 0 1 0 10.54 26.24z" fill="rgba(0, 212, 255, 1)"></path><path d="M2365.36 225.66L2381.39 225.66L2381.39 241.69L2365.36 241.69z" stroke="rgba(0, 212, 255, 1)"></path><path d="M453.75 267.64a10.7 10.7 0 1 0 4.43-20.94z" fill="rgba(69, 252, 81, 1)"></path><path d="M3890.99 299.68L3898.67 299.68L3898.67 314.21L3890.99 314.21z" stroke="rgba(0, 212, 255, 1)"></path><path d="M5726.67 62.19a5.07 5.07 0 1 0-9.96 1.89z" fill="rgba(231, 54, 53, 1)"></path><path d="M1669.47 84.63L1670.69 84.63L1670.69 104.7L1669.47 104.7z" fill="rgba(231, 54, 53, 1)"></path><path d="M397.26 7.97L411.54 7.97L411.54 33.51L397.26 33.51z" stroke="rgba(231, 54, 53, 1)"></path><path d="M2355.07 259.95L2374.62 259.95L2374.62 279.5L2355.07 279.5z" fill="rgba(69, 252, 81, 1)"></path><path d="M5408.69 99.3a9.96 9.96 0 1 0 19.68 3.1z" stroke="rgba(231, 54, 53, 1)"></path><path d="M418.16 113.5L447.16 113.5L447.16 142.5L418.16 142.5z" fill="rgba(231, 54, 53, 1)"></path><path d="M2733.85 51.31L2763.84 51.31L2763.84 81.3L2733.85 81.3z" fill="rgba(69, 252, 81, 1)"></path><path d="M4532.25 104.88a5.81 5.81 0 1 0 10.78-4.34z" stroke="rgba(69, 252, 81, 1)"></path><path d="M543.59 97.12L567.05 97.12L567.05 103.5L543.59 103.5z" fill="rgba(231, 54, 53, 1)"></path><path d="M4296.06 28.97a7.46 7.46 0 1 0-5.26-13.96z" fill="rgba(231, 54, 53, 1)"></path><path d="M4571.55 266.39L4587.44 266.39L4587.44 282.28L4571.55 282.28z" stroke="rgba(69, 252, 81, 1)"></path><path d="M5132.69 5.92L5149.87 5.92L5149.87 10.23L5132.69 10.23z" stroke="rgba(231, 54, 53, 1)"></path><path d="M63.96 57.33 a5.06 5.06 0 1 0 10.12 0 a5.06 5.06 0 1 0 -10.12 0z" stroke="rgba(0, 212, 255, 1)"></path><path d="M404.64 233.09L430.82 233.09L430.82 239.78L404.64 239.78z" fill="rgba(69, 252, 81, 1)"></path><path d="M1126.69 37.73L1150.27 37.73L1150.27 61.31L1126.69 61.31z" stroke="rgba(69, 252, 81, 1)"></path><path d="M3138.27 150.31L3141.45 150.31L3141.45 162.64L3138.27 162.64z" fill="rgba(69, 252, 81, 1)"></path><path d="M5981.11 13.58L5991.18 13.58L5991.18 18.89L5981.11 18.89z" fill="rgba(0, 212, 255, 1)"></path><path d="M3315.74 141.09a14.32 14.32 0 1 0-24.12-15.44z" fill="rgba(0, 212, 255, 1)"></path><path d="M5433.65 111.31 a18.42 18.42 0 1 0 36.84 0 a18.42 18.42 0 1 0 -36.84 0z" stroke="rgba(231, 54, 53, 1)"></path><path d="M5589.52 91.58 a25.73 25.73 0 1 0 51.46 0 a25.73 25.73 0 1 0 -51.46 0z" stroke="rgba(69, 252, 81, 1)"></path><path d="M4471.48 22.57L4493.6 22.57L4493.6 44.69L4471.48 44.69z" fill="rgba(231, 54, 53, 1)"></path><path d="M2676.01 167.84L2684.63 167.84L2684.63 171.96L2676.01 171.96z" stroke="rgba(231, 54, 53, 1)"></path><path d="M5879.66 108.44L5896.66 108.44L5896.66 125.44L5879.66 125.44z" stroke="rgba(0, 212, 255, 1)"></path><path d="M2838.62 145.39 a16.31 16.31 0 1 0 32.62 0 a16.31 16.31 0 1 0 -32.62 0z" fill="rgba(231, 54, 53, 1)"></path><path d="M4700.57 86.05L4707.23 86.05L4707.23 92.71L4700.57 92.71z" fill="rgba(231, 54, 53, 1)"></path><path d="M110.04 277.35L118.63 277.35L118.63 287.46L110.04 287.46z" stroke="rgba(0, 212, 255, 1)"></path><path d="M4620.19 167.07 a12.37 12.37 0 1 0 24.74 0 a12.37 12.37 0 1 0 -24.74 0z" fill="rgba(0, 212, 255, 1)"></path><path d="M2233.99 245.53a11.8 11.8 0 1 0 16.2 17.16z" stroke="rgba(69, 252, 81, 1)"></path><path d="M2854.87 122.58L2880 122.58L2880 147.71L2854.87 147.71z" stroke="rgba(69, 252, 81, 1)"></path><path d="M5445.67 238.82L5470.53 238.82L5470.53 250.39L5445.67 250.39z" fill="rgba(231, 54, 53, 1)"></path><path d="M1997.37 96.03a18.68 18.68 0 1 0-5.6 36.94z" stroke="rgba(0, 212, 255, 1)"></path><path d="M4900.52 77.72a9.3 9.3 0 1 0-8.88 16.34z" stroke="rgba(69, 252, 81, 1)"></path><path d="M1067.72 55.65L1088.1 55.65L1088.1 76.03L1067.72 76.03z" stroke="rgba(231, 54, 53, 1)"></path><path d="M1639.6 242.46a3.19 3.19 0 1 0 4.67-4.34z" fill="rgba(69, 252, 81, 1)"></path><path d="M2854.31 85.75L2877.6 85.75L2877.6 104.79L2854.31 104.79z" stroke="rgba(231, 54, 53, 1)"></path><path d="M4896.99 222.21L4898.57 222.21L4898.57 242.64L4896.99 242.64z" stroke="rgba(69, 252, 81, 1)"></path></g><defs><mask id="SvgjsMask1027"><rect width="6000" height="300" fill="#ffffff"></rect></mask></defs></svg>