<svg xmlns="http://www.w3.org/2000/svg" version="1.1" xmlns:xlink="http://www.w3.org/1999/xlink" xmlns:svgjs="http://svgjs.com/svgjs" width="9000" height="300" preserveAspectRatio="none" viewBox="0 0 9000 300"><g mask="url(&quot;#SvgjsMask6847&quot;)" fill="none"><rect width="198.4" height="198.4" clip-path="url(&quot;#SvgjsClipPath6848&quot;)" x="1126.89" y="172.08" fill="url(#SvgjsPattern6849)" transform="rotate(168.86, 1226.09, 271.28)"></rect><rect width="168" height="168" clip-path="url(&quot;#SvgjsClipPath6850&quot;)" x="8348.53" y="112.88" fill="url(#SvgjsPattern6851)" transform="rotate(337.7, 8432.53, 196.88)"></rect><rect width="72" height="72" clip-path="url(&quot;#SvgjsClipPath6852&quot;)" x="7674.11" y="133.27" fill="url(#SvgjsPattern6853)" transform="rotate(248.68, 7710.11, 169.27)"></rect><rect width="173.04" height="173.04" clip-path="url(&quot;#SvgjsClipPath6854&quot;)" x="1160.37" y="152.96" fill="url(#SvgjsPattern6855)" transform="rotate(130.85, 1246.89, 239.48)"></rect><path d="M2706.77 189.82 L2769.3599999999997 123.66999999999999L2776.2870021504873 194.96700215048787z" stroke="rgba(0, 212, 255, 1)" stroke-width="1" stroke-dasharray="3, 2"></path><rect width="113.28" height="113.28" clip-path="url(&quot;#SvgjsClipPath6856&quot;)" x="2621.09" y="79.51" fill="url(#SvgjsPattern6857)" transform="rotate(175.85, 2677.73, 136.15)"></rect><path d="M5808.89 124.98L5798.66 132.68 5788.9 124.39 5778.67 132.1 5768.9 123.81 5758.67 131.51 5748.91 123.22M5809.12 116.98L5798.89 124.69 5789.13 116.4 5778.9 124.1 5769.14 115.81 5758.91 123.51 5749.15 115.22" stroke="rgba(69, 252, 81, 1)" stroke-width="1" stroke-dasharray="2, 2"></path><path d="M1780.4 200.35a5.6 5.6 0 1 0 7.97 7.87 5.6 5.6 0 1 0-7.97-7.87zM1791.78 211.59a5.6 5.6 0 1 0 7.97 7.87 5.6 5.6 0 1 0-7.97-7.87zM1803.17 222.83a5.6 5.6 0 1 0 7.97 7.87 5.6 5.6 0 1 0-7.97-7.87zM1814.56 234.07a5.6 5.6 0 1 0 7.97 7.87 5.6 5.6 0 1 0-7.97-7.87z" stroke="rgba(207, 68, 32, 1)" stroke-width="1.61" stroke-dasharray="4, 4"></path><path d="M5120.73 256.98 L5111.38 244.63L5125.156699613649 241.70330038635112z" fill="rgba(0, 212, 255, 1)"></path><rect width="132.2" height="132.2" clip-path="url(&quot;#SvgjsClipPath6858&quot;)" x="5855" y="26.26" fill="url(#SvgjsPattern6859)" transform="rotate(12.54, 5921.1, 92.36)"></rect><rect width="121.8" height="121.8" clip-path="url(&quot;#SvgjsClipPath6860&quot;)" x="4508.31" y="111.42" fill="url(#SvgjsPattern6861)" transform="rotate(108.42, 4569.21, 172.32)"></rect><path d="M2306.51 335.65 L2322.5400000000004 346.82L2306.111027701013 349.6489722989874z" stroke="rgba(69, 252, 81, 1)" stroke-width="1" stroke-dasharray="2, 2"></path><path d="M948.16 189.95 L918.55 210.13L948.7676683374461 215.45266833744614z" fill="rgba(69, 252, 81, 1)"></path><path d="M4848.34 170.12 L4838.43 258.91999999999996L4887.648373796002 258.78337379600157z" fill="rgba(69, 252, 81, 1)"></path><rect width="156" height="156" clip-path="url(&quot;#SvgjsClipPath6862&quot;)" x="7357.64" y="11.23" fill="url(#SvgjsPattern6863)" transform="rotate(239.96, 7435.64, 89.23)"></rect><rect width="60" height="60" clip-path="url(&quot;#SvgjsClipPath6864&quot;)" x="4291.89" y="193.69" fill="url(#SvgjsPattern6865)" transform="rotate(89.44, 4321.89, 223.69)"></rect><path d="M5400.89 164.01 L5341.150000000001 99.83000000000001L5339.997614133168 162.94238586683278z" stroke="rgba(0, 212, 255, 1)" stroke-width="1" stroke-dasharray="3, 3"></path><circle r="26.63136536143731" cx="8728.98" cy="153.97" fill="rgba(69, 252, 81, 1)"></circle><path d="M483.69 106.51L491.66 96.48 503.19 102.06 511.16 92.03 522.69 97.6 530.65 87.57 542.18 93.15" stroke="rgba(207, 68, 32, 1)" stroke-width="2.5"></path><path d="M6196.73 131.82a5.6 5.6 0 1 0 9.47-5.98 5.6 5.6 0 1 0-9.47 5.98zM6210.27 123.29a5.6 5.6 0 1 0 9.47-5.98 5.6 5.6 0 1 0-9.47 5.98zM6223.8 114.75a5.6 5.6 0 1 0 9.48-5.97 5.6 5.6 0 1 0-9.48 5.97zM6237.34 106.22a5.6 5.6 0 1 0 9.47-5.97 5.6 5.6 0 1 0-9.47 5.97zM6178.19 162.41a5.6 5.6 0 1 0 9.47-5.97 5.6 5.6 0 1 0-9.47 5.97zM6191.72 153.88a5.6 5.6 0 1 0 9.48-5.97 5.6 5.6 0 1 0-9.48 5.97zM6205.26 145.35a5.6 5.6 0 1 0 9.48-5.97 5.6 5.6 0 1 0-9.48 5.97zM6218.8 136.82a5.6 5.6 0 1 0 9.47-5.97 5.6 5.6 0 1 0-9.47 5.97zM6159.65 193.01a5.6 5.6 0 1 0 9.47-5.97 5.6 5.6 0 1 0-9.47 5.97zM6173.18 184.48a5.6 5.6 0 1 0 9.48-5.97 5.6 5.6 0 1 0-9.48 5.97zM6186.72 175.95a5.6 5.6 0 1 0 9.47-5.97 5.6 5.6 0 1 0-9.47 5.97zM6200.26 167.42a5.6 5.6 0 1 0 9.47-5.97 5.6 5.6 0 1 0-9.47 5.97z" stroke="rgba(69, 252, 81, 1)" stroke-width="1.65"></path><rect width="179.52" height="179.52" clip-path="url(&quot;#SvgjsClipPath6866&quot;)" x="7513.88" y="110.12" fill="url(#SvgjsPattern6867)" transform="rotate(232.39, 7603.64, 199.88)"></rect><rect width="60" height="60" clip-path="url(&quot;#SvgjsClipPath6868&quot;)" x="2652.69" y="180.05" fill="url(#SvgjsPattern6869)" transform="rotate(184.29, 2682.69, 210.05)"></rect><circle r="32.048843147963524" cx="4945.12" cy="195.51" stroke="rgba(69, 252, 81, 1)" stroke-width="2.14"></circle><rect width="85.19999999999999" height="85.19999999999999" clip-path="url(&quot;#SvgjsClipPath6870&quot;)" x="8892.28" y="119.14" fill="url(#SvgjsPattern6871)" transform="rotate(291.31, 8934.88, 161.74)"></rect><rect width="70.8" height="70.8" clip-path="url(&quot;#SvgjsClipPath6872&quot;)" x="2667.14" y="44.72" fill="url(#SvgjsPattern6873)" transform="rotate(350.31, 2702.54, 80.12)"></rect><rect width="77.6" height="77.6" clip-path="url(&quot;#SvgjsClipPath6874&quot;)" x="2250.46" y="229.07" fill="url(#SvgjsPattern6875)" transform="rotate(130.52, 2289.26, 267.87)"></rect><rect width="116.4" height="116.4" clip-path="url(&quot;#SvgjsClipPath6876&quot;)" x="3482.27" y="226.84" fill="url(#SvgjsPattern6877)" transform="rotate(106.12, 3540.47, 285.04)"></rect><rect width="136.4" height="136.4" clip-path="url(&quot;#SvgjsClipPath6878&quot;)" x="7798.99" y="29.74" fill="url(#SvgjsPattern6879)" transform="rotate(118.57, 7867.19, 97.94)"></rect><rect width="97.4" height="97.4" clip-path="url(&quot;#SvgjsClipPath6880&quot;)" x="1522.75" y="98.19" fill="url(#SvgjsPattern6881)" transform="rotate(336.94, 1571.45, 146.89)"></rect><path d="M6785.2 43.49L6776.08 52.48 6765.3 45.55 6756.18 54.54 6745.41 47.62 6736.29 56.61 6725.52 49.69M6784.37 35.53L6775.25 44.52 6764.48 37.6 6755.36 46.59 6744.58 39.66 6735.46 48.65 6724.69 41.73M6783.54 27.57L6774.42 36.56 6763.65 29.64 6754.53 38.63 6743.76 31.71 6734.64 40.7 6723.87 33.77" stroke="rgba(207, 68, 32, 1)" stroke-width="2.05" stroke-dasharray="2, 2"></path><rect width="108" height="108" clip-path="url(&quot;#SvgjsClipPath6882&quot;)" x="3899.84" y="236.59" fill="url(#SvgjsPattern6883)" transform="rotate(281.67, 3953.84, 290.59)"></rect><rect width="101.64" height="101.64" clip-path="url(&quot;#SvgjsClipPath6884&quot;)" x="1937.8" y="237.28" fill="url(#SvgjsPattern6885)" transform="rotate(236.88, 1988.62, 288.1)"></rect><path d="M1454.8000000000002 179.64 L1485.6200000000001 132.55L1503.836408597061 189.721408597061z" fill="rgba(207, 68, 32, 1)"></path><path d="M3170.47 208.91 L3162.3799999999997 163.94L3142.453924776226 210.39607522377364z" stroke="rgba(69, 252, 81, 1)" stroke-width="2" stroke-dasharray="3, 2"></path><rect width="120" height="120" clip-path="url(&quot;#SvgjsClipPath6886&quot;)" x="3999.86" y="-13.5" fill="url(#SvgjsPattern6887)" transform="rotate(356.4, 4059.86, 46.5)"></rect><path d="M156.47 126.59L169.27 126.8 171.88 139.34 184.68 139.55 187.28 152.09 200.09 152.3 202.69 164.84M151.37 132.75L164.17 132.96 166.77 145.5 179.58 145.71 182.18 158.25 194.99 158.46 197.59 171M146.27 138.91L159.07 139.13 161.67 151.66 174.48 151.88 177.08 164.42 189.89 164.63 192.49 177.17" stroke="rgba(207, 68, 32, 1)" stroke-width="1"></path><path d="M6169.47-0.15L6160.34 8.82 6149.58 1.88 6140.44 10.86 6129.68 3.92 6120.55 12.89 6109.79 5.95M6168.66-8.11L6159.53 0.86 6148.76-6.08 6139.63 2.9 6128.87-4.04 6119.73 4.93 6108.97-2.01M6167.85-16.07L6158.71-7.09 6147.95-14.04 6138.82-5.06 6128.05-12 6118.92-3.02 6108.16-9.97" stroke="rgba(0, 212, 255, 1)" stroke-width="1.91" stroke-dasharray="4, 4"></path><path d="M7392.61 120.85a5.6 5.6 0 1 0-1.74 11.07 5.6 5.6 0 1 0 1.74-11.07zM7390.12 136.66a5.6 5.6 0 1 0-1.74 11.06 5.6 5.6 0 1 0 1.74-11.06zM7387.64 152.46a5.6 5.6 0 1 0-1.74 11.07 5.6 5.6 0 1 0 1.74-11.07zM7385.15 168.27a5.6 5.6 0 1 0-1.73 11.06 5.6 5.6 0 1 0 1.73-11.06zM7381.77 86.76a5.6 5.6 0 1 0-1.74 11.06 5.6 5.6 0 1 0 1.74-11.06zM7379.28 102.56a5.6 5.6 0 1 0-1.74 11.07 5.6 5.6 0 1 0 1.74-11.07zM7376.8 118.37a5.6 5.6 0 1 0-1.74 11.06 5.6 5.6 0 1 0 1.74-11.06zM7374.32 134.17a5.6 5.6 0 1 0-1.74 11.07 5.6 5.6 0 1 0 1.74-11.07z" stroke="rgba(207, 68, 32, 1)" stroke-width="2.13" stroke-dasharray="3, 2"></path><path d="M2649.83 214.19L2638.61 220.37 2630.12 210.79 2618.9 216.96 2610.41 207.38 2599.19 213.56 2590.7 203.97" stroke="rgba(207, 68, 32, 1)" stroke-width="1"></path><rect width="166.56" height="166.56" clip-path="url(&quot;#SvgjsClipPath6888&quot;)" x="7927.96" y="147.24" fill="url(#SvgjsPattern6889)" transform="rotate(126.62, 8011.24, 230.52)"></rect><circle r="36.81189643476031" cx="5438.28" cy="73.35" fill="rgba(69, 252, 81, 1)"></circle><circle r="26.08307995435145" cx="5576.92" cy="156.06" fill="rgba(207, 68, 32, 1)"></circle><path d="M4847.24 238.99L4834.45 238.36 4832.25 225.75 4819.46 225.12 4817.26 212.51 4804.47 211.88 4802.27 199.26M4852.53 233L4839.74 232.37 4837.54 219.75 4824.75 219.13 4822.56 206.51 4809.77 205.89 4807.57 193.27M4857.83 227L4845.04 226.37 4842.84 213.76 4830.05 213.13 4827.85 200.52 4815.06 199.89 4812.87 187.27" stroke="rgba(207, 68, 32, 1)" stroke-width="1.13" stroke-dasharray="3, 2"></path><rect width="108" height="108" clip-path="url(&quot;#SvgjsClipPath6890&quot;)" x="7461.29" y="225.71" fill="url(#SvgjsPattern6891)" transform="rotate(114.78, 7515.29, 279.71)"></rect><path d="M6646.2699999999995 363.39 L6705.599999999999 316.64L6713.645678566878 377.7256785668781z" stroke="rgba(207, 68, 32, 1)" stroke-width="1" stroke-dasharray="3, 3"></path><path d="M2087.96 89.22 L2156.37 98.71000000000001L2094.291473578771 121.83852642122916z" stroke="rgba(207, 68, 32, 1)" stroke-width="1.53" stroke-dasharray="2, 2"></path><path d="M916.07 226.3a5.6 5.6 0 1 0-9.88 5.27 5.6 5.6 0 1 0 9.88-5.27zM901.95 233.83a5.6 5.6 0 1 0-9.88 5.27 5.6 5.6 0 1 0 9.88-5.27zM887.84 241.35a5.6 5.6 0 1 0-9.89 5.27 5.6 5.6 0 1 0 9.89-5.27zM873.72 248.88a5.6 5.6 0 1 0-9.88 5.27 5.6 5.6 0 1 0 9.88-5.27z" stroke="rgba(207, 68, 32, 1)" stroke-width="1" stroke-dasharray="2, 2"></path><rect width="121.8" height="121.8" clip-path="url(&quot;#SvgjsClipPath6892&quot;)" x="5391.68" y="109.58" fill="url(#SvgjsPattern6893)" transform="rotate(158.81, 5452.58, 170.48)"></rect><path d="M8809.539999999999 308.36 L8788.74 237.42000000000002L8837.757018650907 234.27298134909256z" fill="rgba(207, 68, 32, 1)"></path><rect width="93" height="93" clip-path="url(&quot;#SvgjsClipPath6894&quot;)" x="4429.36" y="49.66" fill="url(#SvgjsPattern6895)" transform="rotate(213.66, 4475.86, 96.16)"></rect><path d="M8092.96 138.76L8085.43 128.4 8093.88 118.78 8086.35 108.42 8094.81 98.8 8087.28 88.44 8095.73 78.82M8100.95 139.13L8093.42 128.77 8101.87 119.15 8094.34 108.79 8102.8 99.17 8095.27 88.81 8103.72 79.19" stroke="rgba(69, 252, 81, 1)" stroke-width="1" stroke-dasharray="4, 4"></path><circle r="25" cx="5910.59" cy="175.47" stroke="rgba(0, 212, 255, 1)" stroke-width="1" stroke-dasharray="4, 4"></circle><rect width="99.8" height="99.8" clip-path="url(&quot;#SvgjsClipPath6896&quot;)" x="8066.07" y="128.11" fill="url(#SvgjsPattern6897)" transform="rotate(204.54, 8115.97, 178.01)"></rect><rect width="185.76" height="185.76" clip-path="url(&quot;#SvgjsClipPath6898&quot;)" x="4403.14" y="154.67" fill="url(#SvgjsPattern6899)" transform="rotate(272.8, 4496.02, 247.55)"></rect><path d="M5771.34 293.44 L5752.06 308.29L5752.729585955025 291.89458595502384z" stroke="rgba(0, 212, 255, 1)" stroke-width="1" stroke-dasharray="3, 2"></path><circle r="48.040830924968446" cx="3698.7" cy="256.69" fill="rgba(69, 252, 81, 1)"></circle><path d="M8303 107 L8222.7 68L8306.900054556909 43.449945443092z" stroke="rgba(207, 68, 32, 1)" stroke-width="1.4"></path><path d="M1946.74 248.26 L1946.77 273.18L1931.7094242642763 275.76557573572387z" fill="rgba(0, 212, 255, 1)"></path><path d="M2633.43 80.59a5.6 5.6 0 1 0 3.78 10.54 5.6 5.6 0 1 0-3.78-10.54zM2638.83 95.65a5.6 5.6 0 1 0 3.77 10.54 5.6 5.6 0 1 0-3.77-10.54zM2644.22 110.71a5.6 5.6 0 1 0 3.78 10.55 5.6 5.6 0 1 0-3.78-10.55zM2649.62 125.78a5.6 5.6 0 1 0 3.77 10.54 5.6 5.6 0 1 0-3.77-10.54z" stroke="rgba(207, 68, 32, 1)" stroke-width="2.69" stroke-dasharray="2, 2"></path><path d="M7174.4 139.3 L7235.1 62.05L7249.787409138491 145.71240913849067z" stroke="rgba(69, 252, 81, 1)" stroke-width="1" stroke-dasharray="3, 3"></path><path d="M3827.89 96.08L3825.77 83.45 3837.62 78.61 3835.5 65.98 3847.36 61.14 3845.23 48.51 3857.09 43.67" stroke="rgba(69, 252, 81, 1)" stroke-width="1" stroke-dasharray="4, 4"></path><path d="M6774.31 260.54a5.6 5.6 0 1 0 2.87-10.82 5.6 5.6 0 1 0-2.87 10.82zM6778.4 245.08a5.6 5.6 0 1 0 2.87-10.83 5.6 5.6 0 1 0-2.87 10.83zM6782.5 229.61a5.6 5.6 0 1 0 2.87-10.83 5.6 5.6 0 1 0-2.87 10.83zM6786.6 214.14a5.6 5.6 0 1 0 2.87-10.82 5.6 5.6 0 1 0-2.87 10.82zM6781.58 295.57a5.6 5.6 0 1 0 2.87-10.82 5.6 5.6 0 1 0-2.87 10.82zM6785.68 280.11a5.6 5.6 0 1 0 2.86-10.83 5.6 5.6 0 1 0-2.86 10.83zM6789.77 264.64a5.6 5.6 0 1 0 2.87-10.83 5.6 5.6 0 1 0-2.87 10.83zM6793.87 249.17a5.6 5.6 0 1 0 2.87-10.82 5.6 5.6 0 1 0-2.87 10.82z" stroke="rgba(69, 252, 81, 1)" stroke-width="1.01" stroke-dasharray="2, 2"></path><rect width="161.20000000000002" height="161.20000000000002" clip-path="url(&quot;#SvgjsClipPath6900&quot;)" x="6039.92" y="102.57" fill="url(#SvgjsPattern6901)" transform="rotate(117.8, 6120.52, 183.17)"></rect><rect width="60" height="60" clip-path="url(&quot;#SvgjsClipPath6902&quot;)" x="2059.73" y="115.88" fill="url(#SvgjsPattern6903)" transform="rotate(192.16, 2089.73, 145.88)"></rect><circle r="25" cx="6504.32" cy="96.5" stroke="rgba(207, 68, 32, 1)" stroke-width="2.31" stroke-dasharray="2, 2"></circle><path d="M7317.84 64.13L7315.81 51.48 7327.7 46.73 7325.67 34.08 7337.56 29.33 7335.53 16.68 7347.43 11.93M7324.79 68.07L7322.77 55.43 7334.66 50.67 7332.63 38.03 7344.52 33.27 7342.49 20.63 7354.39 15.88M7331.75 72.02L7329.73 59.37 7341.62 54.62 7339.59 41.97 7351.48 37.22 7349.45 24.58 7361.34 19.82" stroke="rgba(0, 212, 255, 1)" stroke-width="2.33"></path><rect width="123.6" height="123.6" clip-path="url(&quot;#SvgjsClipPath6904&quot;)" x="327.69" y="-31.29" fill="url(#SvgjsPattern6905)" transform="rotate(296.81, 389.49, 30.51)"></rect><path d="M6931.72 72.23a5.6 5.6 0 1 0-4.19-10.39 5.6 5.6 0 1 0 4.19 10.39zM6925.74 57.39a5.6 5.6 0 1 0-4.19-10.39 5.6 5.6 0 1 0 4.19 10.39zM6919.76 42.55a5.6 5.6 0 1 0-4.19-10.39 5.6 5.6 0 1 0 4.19 10.39zM6913.78 27.71a5.6 5.6 0 1 0-4.19-10.39 5.6 5.6 0 1 0 4.19 10.39zM6958.52 95.93a5.6 5.6 0 1 0-4.19-10.39 5.6 5.6 0 1 0 4.19 10.39zM6952.54 81.09a5.6 5.6 0 1 0-4.19-10.39 5.6 5.6 0 1 0 4.19 10.39zM6946.56 66.25a5.6 5.6 0 1 0-4.19-10.39 5.6 5.6 0 1 0 4.19 10.39zM6940.58 51.41a5.6 5.6 0 1 0-4.19-10.39 5.6 5.6 0 1 0 4.19 10.39z" stroke="rgba(69, 252, 81, 1)" stroke-width="1.34" stroke-dasharray="3, 3"></path><rect width="128.4" height="128.4" clip-path="url(&quot;#SvgjsClipPath6906&quot;)" x="3073.01" y="-20.46" fill="url(#SvgjsPattern6907)" transform="rotate(286.19, 3137.21, 43.74)"></rect><rect width="96" height="96" clip-path="url(&quot;#SvgjsClipPath6908&quot;)" x="420.66" y="114.91" fill="url(#SvgjsPattern6909)" transform="rotate(37.06, 468.66, 162.91)"></rect><path d="M2953.08 153.63L2963.2 161.48 2957.75 173.08 2967.86 180.93 2962.42 192.52 2972.53 200.38 2967.09 211.97M2945.3 155.5L2955.42 163.35 2949.97 174.94 2960.09 182.8 2954.64 194.39 2964.75 202.25 2959.31 213.84" stroke="rgba(0, 212, 255, 1)" stroke-width="2.83" stroke-dasharray="3, 3"></path><circle r="49.79632541199264" cx="6924.19" cy="189.29" fill="rgba(0, 212, 255, 1)"></circle><path d="M615.56 27.18L603.59 31.74 596.51 21.06 584.55 25.62 577.47 14.95 565.5 19.51 558.43 8.84M618 19.56L606.03 24.12 598.96 13.45 586.99 18.01 579.92 7.33 567.95 11.89 560.87 1.22M620.45 11.94L608.48 16.5 601.4 5.83 589.44 10.39 582.36-0.28 570.39 4.28 563.32-6.4" stroke="rgba(0, 212, 255, 1)" stroke-width="1" stroke-dasharray="2, 2"></path><rect width="150.84" height="150.84" clip-path="url(&quot;#SvgjsClipPath6910&quot;)" x="6098.17" y="36.64" fill="url(#SvgjsPattern6911)" transform="rotate(165, 6173.59, 112.06)"></rect><rect width="96" height="96" clip-path="url(&quot;#SvgjsClipPath6912&quot;)" x="3749.87" y="-5.59" fill="url(#SvgjsPattern6913)" transform="rotate(308.99, 3797.87, 42.41)"></rect><rect width="177.92" height="177.92" clip-path="url(&quot;#SvgjsClipPath6914&quot;)" x="4153.2" y="154.76" fill="url(#SvgjsPattern6915)" transform="rotate(249.63, 4242.16, 243.72)"></rect><circle r="49.39557166545791" cx="5477.99" cy="242.81" fill="rgba(69, 252, 81, 1)"></circle><rect width="133.4" height="133.4" clip-path="url(&quot;#SvgjsClipPath6916&quot;)" x="3445.97" y="61.37" fill="url(#SvgjsPattern6917)" transform="rotate(345.22, 3512.67, 128.07)"></rect><path d="M8354.81 44.87a5.6 5.6 0 1 0-6.29-9.27 5.6 5.6 0 1 0 6.29 9.27zM8345.82 31.63a5.6 5.6 0 1 0-6.28-9.27 5.6 5.6 0 1 0 6.28 9.27zM8336.84 18.39a5.6 5.6 0 1 0-6.29-9.27 5.6 5.6 0 1 0 6.29 9.27zM8327.86 5.15a5.6 5.6 0 1 0-6.29-9.27 5.6 5.6 0 1 0 6.29 9.27zM8386.01 62.37a5.6 5.6 0 1 0-6.29-9.27 5.6 5.6 0 1 0 6.29 9.27zM8377.03 49.13a5.6 5.6 0 1 0-6.29-9.27 5.6 5.6 0 1 0 6.29 9.27zM8368.05 35.89a5.6 5.6 0 1 0-6.29-9.27 5.6 5.6 0 1 0 6.29 9.27zM8359.06 22.65a5.6 5.6 0 1 0-6.28-9.27 5.6 5.6 0 1 0 6.28 9.27zM8417.21 79.87a5.6 5.6 0 1 0-6.28-9.27 5.6 5.6 0 1 0 6.28 9.27zM8408.23 66.63a5.6 5.6 0 1 0-6.28-9.27 5.6 5.6 0 1 0 6.28 9.27zM8399.25 53.39a5.6 5.6 0 1 0-6.29-9.27 5.6 5.6 0 1 0 6.29 9.27zM8390.27 40.15a5.6 5.6 0 1 0-6.29-9.27 5.6 5.6 0 1 0 6.29 9.27z" fill="rgba(207, 68, 32, 1)"></path><circle r="25" cx="7577.25" cy="189.16" fill="rgba(69, 252, 81, 1)"></circle><path d="M2101.22 21.65L2114.02 21.2 2117.27 33.58 2130.07 33.13 2133.32 45.52 2146.11 45.07 2149.36 57.46M2096.45 28.07L2109.24 27.62 2112.49 40 2125.29 39.55 2128.54 51.94 2141.34 51.49 2144.59 63.87M2091.67 34.49L2104.47 34.04 2107.72 46.42 2120.52 45.97 2123.77 58.36 2136.57 57.91 2139.82 70.29" stroke="rgba(69, 252, 81, 1)" stroke-width="1.25"></path><rect width="114.12" height="114.12" clip-path="url(&quot;#SvgjsClipPath6918&quot;)" x="538.06" y="104.92" fill="url(#SvgjsPattern6919)" transform="rotate(144.47, 595.12, 161.98)"></rect><path d="M5004.33 180.33L5015.63 186.35 5012.23 198.7 5023.54 204.72 5020.14 217.07 5031.44 223.09 5028.05 235.44M4996.98 183.49L5008.28 189.52 5004.89 201.86 5016.19 207.89 5012.79 220.23 5024.1 226.26 5020.7 238.6M4989.63 186.66L5000.93 192.68 4997.54 205.03 5008.84 211.05 5005.45 223.4 5016.75 229.42 5013.35 241.77" stroke="rgba(69, 252, 81, 1)" stroke-width="1.89"></path><path d="M2186.0499999999997 349.95 L2182.3799999999997 357.42999999999995L2188.4178616416725 357.89286164167294z" stroke="rgba(0, 212, 255, 1)" stroke-width="2.17"></path><rect width="81.4" height="81.4" clip-path="url(&quot;#SvgjsClipPath6920&quot;)" x="1959.52" y="-28.86" fill="url(#SvgjsPattern6921)" transform="rotate(325.67, 2000.22, 11.84)"></rect><path d="M0 0 " stroke="rgba(0, 212, 255, 1)" stroke-width="1" stroke-dasharray="4, 4"></path><path d="M4266.19 289.38L4265.75 302.18 4253.17 304.56 4252.72 317.36 4240.14 319.73 4239.69 332.53 4227.11 334.91M4260.12 284.17L4259.68 296.97 4247.1 299.35 4246.65 312.14 4234.07 314.52 4233.62 327.32 4221.04 329.69" stroke="rgba(207, 68, 32, 1)" stroke-width="1"></path><path d="M4900.71 288.27 L4985.7 251.06L4901.5721497058985 228.03214970589846z" stroke="rgba(69, 252, 81, 1)" stroke-width="2.93" stroke-dasharray="4, 4"></path><path d="M7119.56 159.75L7108.81 152.79 7113.23 140.77 7102.48 133.82 7106.91 121.8 7096.16 114.84 7100.58 102.83" stroke="rgba(207, 68, 32, 1)" stroke-width="1"></path><rect width="126.24" height="126.24" clip-path="url(&quot;#SvgjsClipPath6922&quot;)" x="5018.71" y="5.98" fill="url(#SvgjsPattern6923)" transform="rotate(101.83, 5081.83, 69.1)"></rect><rect width="138.4" height="138.4" clip-path="url(&quot;#SvgjsClipPath6924&quot;)" x="6261.2" y="-25.45" fill="url(#SvgjsPattern6925)" transform="rotate(155.94, 6330.4, 43.75)"></rect><path d="M4701.4800000000005 345.2 L4644.09 340.94L4643.5919821265015 372.263017873498z" fill="rgba(207, 68, 32, 1)"></path><path d="M8333.53 212.23L8346.03 215 8346.06 227.81 8358.56 230.59 8358.6 243.39 8371.1 246.17 8371.13 258.98M8327.29 217.24L8339.8 220.02 8339.83 232.82 8352.33 235.6 8352.36 248.41 8364.87 251.19 8364.9 263.99" stroke="rgba(0, 212, 255, 1)" stroke-width="2.27" stroke-dasharray="3, 2"></path><circle r="32.195119191046174" cx="1497.78" cy="229.88" fill="rgba(69, 252, 81, 1)"></circle><path d="M6983.28 300.7a5.6 5.6 0 1 0 2.98-10.79 5.6 5.6 0 1 0-2.98 10.79zM6987.54 285.28a5.6 5.6 0 1 0 2.99-10.79 5.6 5.6 0 1 0-2.99 10.79zM6991.81 269.86a5.6 5.6 0 1 0 2.99-10.79 5.6 5.6 0 1 0-2.99 10.79zM6996.08 254.44a5.6 5.6 0 1 0 2.99-10.79 5.6 5.6 0 1 0-2.99 10.79zM6990.16 335.81a5.6 5.6 0 1 0 2.99-10.79 5.6 5.6 0 1 0-2.99 10.79zM6994.43 320.39a5.6 5.6 0 1 0 2.99-10.79 5.6 5.6 0 1 0-2.99 10.79zM6998.7 304.97a5.6 5.6 0 1 0 2.98-10.79 5.6 5.6 0 1 0-2.98 10.79zM7002.96 289.55a5.6 5.6 0 1 0 2.99-10.79 5.6 5.6 0 1 0-2.99 10.79zM6997.05 370.92a5.6 5.6 0 1 0 2.98-10.8 5.6 5.6 0 1 0-2.98 10.8zM7001.31 355.5a5.6 5.6 0 1 0 2.99-10.8 5.6 5.6 0 1 0-2.99 10.8zM7005.58 340.08a5.6 5.6 0 1 0 2.99-10.8 5.6 5.6 0 1 0-2.99 10.8zM7009.85 324.66a5.6 5.6 0 1 0 2.99-10.8 5.6 5.6 0 1 0-2.99 10.8z" stroke="rgba(69, 252, 81, 1)" stroke-width="2.8" stroke-dasharray="4, 4"></path><path d="M4810.08 19.28a5.6 5.6 0 1 0 4.75 10.14 5.6 5.6 0 1 0-4.75-10.14zM4816.87 33.76a5.6 5.6 0 1 0 4.76 10.14 5.6 5.6 0 1 0-4.76-10.14zM4823.67 48.25a5.6 5.6 0 1 0 4.75 10.14 5.6 5.6 0 1 0-4.75-10.14zM4830.46 62.73a5.6 5.6 0 1 0 4.76 10.14 5.6 5.6 0 1 0-4.76-10.14zM4782-2.9a5.6 5.6 0 1 0 4.76 10.14 5.6 5.6 0 1 0-4.76-10.14zM4788.8 11.59a5.6 5.6 0 1 0 4.75 10.14 5.6 5.6 0 1 0-4.75-10.14zM4795.59 26.07a5.6 5.6 0 1 0 4.76 10.14 5.6 5.6 0 1 0-4.76-10.14zM4802.39 40.56a5.6 5.6 0 1 0 4.75 10.14 5.6 5.6 0 1 0-4.75-10.14z" fill="rgba(69, 252, 81, 1)"></path><circle r="25.968418655418745" cx="3278.29" cy="153.86" stroke="rgba(0, 212, 255, 1)" stroke-width="1" stroke-dasharray="3, 2"></circle><rect width="119.56" height="119.56" clip-path="url(&quot;#SvgjsClipPath6926&quot;)" x="7023.9" y="-1.09" fill="url(#SvgjsPattern6927)" transform="rotate(248.79, 7083.68, 58.69)"></rect><rect width="99.6" height="99.6" clip-path="url(&quot;#SvgjsClipPath6928&quot;)" x="8615.36" y="100.67" fill="url(#SvgjsPattern6929)" transform="rotate(205.96, 8665.16, 150.47)"></rect><rect width="101.04" height="101.04" clip-path="url(&quot;#SvgjsClipPath6930&quot;)" x="7252.53" y="92.63" fill="url(#SvgjsPattern6931)" transform="rotate(91.41, 7303.05, 143.15)"></rect><rect width="61.2" height="61.2" clip-path="url(&quot;#SvgjsClipPath6932&quot;)" x="389.46" y="110.99" fill="url(#SvgjsPattern6933)" transform="rotate(247.55, 420.06, 141.59)"></rect><circle r="43.00534199684911" cx="1770.13" cy="257" stroke="rgba(0, 212, 255, 1)" stroke-width="2.15" stroke-dasharray="3, 2"></circle><rect width="96" height="96" clip-path="url(&quot;#SvgjsClipPath6934&quot;)" x="6977.92" y="166.26" fill="url(#SvgjsPattern6935)" transform="rotate(81.64, 7025.92, 214.26)"></rect><path d="M895.97 37.75 L909.46 129.66L938.922018410554 47.497981589446056z" fill="rgba(207, 68, 32, 1)"></path><path d="M4939.69 273.35L4940.65 286.12 4928.4 289.86 4929.37 302.63 4917.12 306.37 4918.08 319.14 4905.83 322.88M4933.08 268.83L4934.05 281.6 4921.8 285.35 4922.76 298.12 4910.51 301.86 4911.48 314.63 4899.23 318.37M4926.48 264.32L4927.44 277.09 4915.19 280.83 4916.16 293.6 4903.91 297.34 4904.87 310.11 4892.62 313.86" stroke="rgba(69, 252, 81, 1)" stroke-width="2.64" stroke-dasharray="3, 3"></path><path d="M7412.47 219.86a5.6 5.6 0 1 0-10.09-4.86 5.6 5.6 0 1 0 10.09 4.86zM7398.05 212.91a5.6 5.6 0 1 0-10.09-4.86 5.6 5.6 0 1 0 10.09 4.86zM7383.64 205.97a5.6 5.6 0 1 0-10.09-4.86 5.6 5.6 0 1 0 10.09 4.86zM7369.22 199.03a5.6 5.6 0 1 0-10.09-4.86 5.6 5.6 0 1 0 10.09 4.86z" stroke="rgba(0, 212, 255, 1)" stroke-width="1.22" stroke-dasharray="3, 2"></path><rect width="77.6" height="77.6" clip-path="url(&quot;#SvgjsClipPath6936&quot;)" x="5165.99" y="109.01" fill="url(#SvgjsPattern6937)" transform="rotate(300.63, 5204.79, 147.81)"></rect><rect width="129.84" height="129.84" clip-path="url(&quot;#SvgjsClipPath6938&quot;)" x="8163.34" y="53.62" fill="url(#SvgjsPattern6939)" transform="rotate(244.72, 8228.26, 118.54)"></rect><path d="M6607.99 24.82a5.6 5.6 0 1 0 2.04-11.02 5.6 5.6 0 1 0-2.04 11.02zM6610.91 9.09a5.6 5.6 0 1 0 2.04-11.02 5.6 5.6 0 1 0-2.04 11.02zM6613.83-6.65a5.6 5.6 0 1 0 2.04-11.01 5.6 5.6 0 1 0-2.04 11.01zM6616.75-22.38a5.6 5.6 0 1 0 2.05-11.01 5.6 5.6 0 1 0-2.05 11.01zM6617.87 59.2a5.6 5.6 0 1 0 2.05-11.01 5.6 5.6 0 1 0-2.05 11.01zM6620.8 43.47a5.6 5.6 0 1 0 2.04-11.01 5.6 5.6 0 1 0-2.04 11.01zM6623.72 27.74a5.6 5.6 0 1 0 2.04-11.01 5.6 5.6 0 1 0-2.04 11.01zM6626.64 12.01a5.6 5.6 0 1 0 2.04-11.02 5.6 5.6 0 1 0-2.04 11.02zM6627.76 93.58a5.6 5.6 0 1 0 2.05-11.01 5.6 5.6 0 1 0-2.05 11.01zM6630.68 77.85a5.6 5.6 0 1 0 2.05-11.01 5.6 5.6 0 1 0-2.05 11.01zM6633.61 62.12a5.6 5.6 0 1 0 2.04-11.01 5.6 5.6 0 1 0-2.04 11.01zM6636.53 46.39a5.6 5.6 0 1 0 2.04-11.01 5.6 5.6 0 1 0-2.04 11.01z" stroke="rgba(0, 212, 255, 1)" stroke-width="2.14" stroke-dasharray="4, 4"></path><path d="M425.67999999999995 314.16 L460.46999999999997 284.8L474.7826343508385 331.1876343508386z" fill="rgba(0, 212, 255, 1)"></path><rect width="164.36" height="164.36" clip-path="url(&quot;#SvgjsClipPath6940&quot;)" x="4898.56" y="-75.39" fill="url(#SvgjsPattern6941)" transform="rotate(162.78, 4980.74, 6.79)"></rect><rect width="60" height="60" clip-path="url(&quot;#SvgjsClipPath6942&quot;)" x="5083.05" y="-25.65" fill="url(#SvgjsPattern6943)" transform="rotate(274.68, 5113.05, 4.35)"></rect><path d="M205.42 150.55L217.63 154.41 216.54 167.17 228.75 171.03 227.66 183.79 239.87 187.65 238.79 200.41M198.77 155L210.98 158.86 209.89 171.62 222.1 175.48 221.02 188.24 233.23 192.1 232.14 204.86" stroke="rgba(69, 252, 81, 1)" stroke-width="2.22" stroke-dasharray="2, 2"></path><path d="M7128.1900000000005 342.02 L7129.120000000001 273.05L7164.83173826617 343.71173826616933z" stroke="rgba(0, 212, 255, 1)" stroke-width="2.04"></path><rect width="127" height="127" clip-path="url(&quot;#SvgjsClipPath6944&quot;)" x="2776.46" y="147.49" fill="url(#SvgjsPattern6945)" transform="rotate(96.16, 2839.96, 210.99)"></rect><circle r="26.29568153377493" cx="5622.76" cy="243.13" fill="rgba(207, 68, 32, 1)"></circle><rect width="186.56" height="186.56" clip-path="url(&quot;#SvgjsClipPath6946&quot;)" x="7373.23" y="100.47" fill="url(#SvgjsPattern6947)" transform="rotate(342.67, 7466.51, 193.75)"></rect><rect width="138.4" height="138.4" clip-path="url(&quot;#SvgjsClipPath6948&quot;)" x="1379.42" y="37.69" fill="url(#SvgjsPattern6949)" transform="rotate(213.04, 1448.62, 106.89)"></rect><path d="M4369.74 234.65 L4366 162.81L4324.356767376025 242.24323262397445z" stroke="rgba(207, 68, 32, 1)" stroke-width="2.12"></path><path d="M8766.16 235.52L8759.83 246.65 8747.58 242.91 8741.24 254.04 8728.99 250.3 8722.65 261.42 8710.41 257.68M8763.21 228.09L8756.87 239.21 8744.62 235.47 8738.28 246.6 8726.04 242.86 8719.7 253.99 8707.45 250.25M8760.25 220.65L8753.91 231.78 8741.67 228.04 8735.33 239.17 8723.08 235.43 8716.74 246.56 8704.5 242.82" stroke="rgba(69, 252, 81, 1)" stroke-width="1" stroke-dasharray="3, 3"></path><path d="M7850.88 235.82 L7866.92 238.51L7868.869492416875 227.1955075831249z" fill="rgba(69, 252, 81, 1)"></path><rect width="99.2" height="99.2" clip-path="url(&quot;#SvgjsClipPath6950&quot;)" x="3085.52" y="234.46" fill="url(#SvgjsPattern6951)" transform="rotate(267.49, 3135.12, 284.06)"></rect><path d="M3844.81 75.9L3834.95 67.72 3840.76 56.31 3830.9 48.14 3836.72 36.72 3826.86 28.55 3832.67 17.14" stroke="rgba(207, 68, 32, 1)" stroke-width="2.09" stroke-dasharray="3, 2"></path><circle r="38.319004851773165" cx="3389.17" cy="50.64" fill="rgba(0, 212, 255, 1)"></circle><path d="M315.08 39.21a5.6 5.6 0 1 0-1.91 11.04 5.6 5.6 0 1 0 1.91-11.04zM312.36 54.98a5.6 5.6 0 1 0-1.9 11.04 5.6 5.6 0 1 0 1.9-11.04zM309.65 70.75a5.6 5.6 0 1 0-1.91 11.04 5.6 5.6 0 1 0 1.91-11.04zM306.93 86.52a5.6 5.6 0 1 0-1.9 11.03 5.6 5.6 0 1 0 1.9-11.03zM304.74 4.96a5.6 5.6 0 1 0-1.9 11.04 5.6 5.6 0 1 0 1.9-11.04zM302.02 20.73a5.6 5.6 0 1 0-1.9 11.04 5.6 5.6 0 1 0 1.9-11.04zM299.31 36.5a5.6 5.6 0 1 0-1.9 11.04 5.6 5.6 0 1 0 1.9-11.04zM296.59 52.27a5.6 5.6 0 1 0-1.9 11.03 5.6 5.6 0 1 0 1.9-11.03zM294.4-29.29a5.6 5.6 0 1 0-1.9 11.04 5.6 5.6 0 1 0 1.9-11.04zM291.68-13.52a5.6 5.6 0 1 0-1.9 11.04 5.6 5.6 0 1 0 1.9-11.04zM288.97 2.25a5.6 5.6 0 1 0-1.9 11.03 5.6 5.6 0 1 0 1.9-11.03zM286.25 18.01a5.6 5.6 0 1 0-1.9 11.04 5.6 5.6 0 1 0 1.9-11.04z" fill="rgba(0, 212, 255, 1)"></path><rect width="110.52" height="110.52" clip-path="url(&quot;#SvgjsClipPath6952&quot;)" x="3415.98" y="-40.04" fill="url(#SvgjsPattern6953)" transform="rotate(188.28, 3471.24, 15.22)"></rect><rect width="96" height="96" clip-path="url(&quot;#SvgjsClipPath6954&quot;)" x="202.68" y="131.08" fill="url(#SvgjsPattern6955)" transform="rotate(231.35, 250.68, 179.08)"></rect><path d="M6782.320000000001 138.21 L6759.83 229.46L6737.428485489702 150.18848548970192z" stroke="rgba(0, 212, 255, 1)" stroke-width="1" stroke-dasharray="3, 3"></path><rect width="180" height="180" clip-path="url(&quot;#SvgjsClipPath6956&quot;)" x="3153.15" y="9.38" fill="url(#SvgjsPattern6957)" transform="rotate(112.51, 3243.15, 99.38)"></rect><path d="M4205.5 250.44L4207.9 263.02 4196.15 268.12 4198.55 280.7 4186.8 285.79 4189.19 298.37 4177.45 303.47M4198.43 246.7L4200.83 259.28 4189.08 264.37 4191.47 276.96 4179.73 282.05 4182.12 294.63 4170.37 299.73" stroke="rgba(69, 252, 81, 1)" stroke-width="1"></path><rect width="129.6" height="129.6" clip-path="url(&quot;#SvgjsClipPath6958&quot;)" x="6460.26" y="113.13" fill="url(#SvgjsPattern6959)" transform="rotate(89.83, 6525.06, 177.93)"></rect><path d="M2856.39 32.1L2848.95 42.52 2837.15 37.54 2829.71 47.96 2817.91 42.99 2810.46 53.41 2798.66 48.44M2854.22 24.4L2846.77 34.82 2834.97 29.85 2827.53 40.27 2815.73 35.29 2808.28 45.71 2796.48 40.74" stroke="rgba(69, 252, 81, 1)" stroke-width="1.64"></path><circle r="25" cx="5214.11" cy="85.55" fill="rgba(0, 212, 255, 1)"></circle><rect width="60" height="60" clip-path="url(&quot;#SvgjsClipPath6960&quot;)" x="3316.6" y="191.48" fill="url(#SvgjsPattern6961)" transform="rotate(225.23, 3346.6, 221.48)"></rect><rect width="91.4" height="91.4" clip-path="url(&quot;#SvgjsClipPath6962&quot;)" x="4604.27" y="116.22" fill="url(#SvgjsPattern6963)" transform="rotate(208.5, 4649.97, 161.92)"></rect></g><defs><mask id="SvgjsMask6847"><rect width="9000" height="300" fill="#ffffff"></rect></mask><pattern x="0" y="0" width="12.4" height="12.4" patternUnits="userSpaceOnUse" id="SvgjsPattern6849"><path d="M0 12.4L6.2 0L12.4 12.4" stroke="rgba(0, 212, 255, 1)" fill="none"></path></pattern><clipPath id="SvgjsClipPath6848"><circle r="49.6" cx="1226.09" cy="271.28"></circle></clipPath><pattern x="0" y="0" width="168" height="6" patternUnits="userSpaceOnUse" id="SvgjsPattern6851"><rect width="168" height="3" x="0" y="0" fill="rgba(69, 252, 81, 1)"></rect><rect width="168" height="3" x="0" y="3" fill="rgba(0, 0, 0, 0)"></rect></pattern><clipPath id="SvgjsClipPath6850"><circle r="42" cx="8432.53" cy="196.88"></circle></clipPath><pattern x="0" y="0" width="6" height="6" patternUnits="userSpaceOnUse" id="SvgjsPattern6853"><path d="M0 6L3 0L6 6" stroke="rgba(69, 252, 81, 1)" fill="none"></path></pattern><clipPath id="SvgjsClipPath6852"><circle r="18" cx="7710.11" cy="169.27"></circle></clipPath><pattern x="0" y="0" width="12.36" height="12.36" patternUnits="userSpaceOnUse" id="SvgjsPattern6855"><path d="M0 12.36L6.18 0L12.36 12.36" stroke="rgba(69, 252, 81, 1)" fill="none"></path></pattern><clipPath id="SvgjsClipPath6854"><circle r="43.26" cx="1246.89" cy="239.48"></circle></clipPath><pattern x="0" y="0" width="7.08" height="7.08" patternUnits="userSpaceOnUse" id="SvgjsPattern6857"><path d="M0 7.08L3.54 0L7.08 7.08" stroke="rgba(207, 68, 32, 1)" fill="none"></path></pattern><clipPath id="SvgjsClipPath6856"><circle r="28.32" cx="2677.73" cy="136.15"></circle></clipPath><pattern x="0" y="0" width="13.22" height="13.22" patternUnits="userSpaceOnUse" id="SvgjsPattern6859"><path d="M6.61 1L6.61 12.22M1 6.61L12.22 6.61" stroke="rgba(69, 252, 81, 1)" fill="none" stroke-width="2.72"></path></pattern><clipPath id="SvgjsClipPath6858"><circle r="33.05" cx="5921.1" cy="92.36"></circle></clipPath><pattern x="0" y="0" width="121.8" height="12.18" patternUnits="userSpaceOnUse" id="SvgjsPattern6861"><rect width="121.8" height="6.09" x="0" y="0" fill="rgba(207, 68, 32, 1)"></rect><rect width="121.8" height="6.09" x="0" y="6.09" fill="rgba(0, 0, 0, 0)"></rect></pattern><clipPath id="SvgjsClipPath6860"><circle r="30.45" cx="4569.21" cy="172.32"></circle></clipPath><pattern x="0" y="0" width="156" height="6" patternUnits="userSpaceOnUse" id="SvgjsPattern6863"><rect width="156" height="3" x="0" y="0" fill="rgba(69, 252, 81, 1)"></rect><rect width="156" height="3" x="0" y="3" fill="rgba(0, 0, 0, 0)"></rect></pattern><clipPath id="SvgjsClipPath6862"><circle r="39" cx="7435.64" cy="89.23"></circle></clipPath><pattern x="0" y="0" width="60" height="6" patternUnits="userSpaceOnUse" id="SvgjsPattern6865"><rect width="60" height="3" x="0" y="0" fill="rgba(0, 212, 255, 1)"></rect><rect width="60" height="3" x="0" y="3" fill="rgba(0, 0, 0, 0)"></rect></pattern><clipPath id="SvgjsClipPath6864"><circle r="15" cx="4321.89" cy="223.69"></circle></clipPath><pattern x="0" y="0" width="11.22" height="11.22" patternUnits="userSpaceOnUse" id="SvgjsPattern6867"><path d="M5.61 1L5.61 10.22M1 5.61L10.22 5.61" stroke="rgba(207, 68, 32, 1)" fill="none" stroke-width="1"></path></pattern><clipPath id="SvgjsClipPath6866"><circle r="44.88" cx="7603.64" cy="199.88"></circle></clipPath><pattern x="0" y="0" width="6" height="6" patternUnits="userSpaceOnUse" id="SvgjsPattern6869"><path d="M3 1L3 5M1 3L5 3" stroke="rgba(0, 212, 255, 1)" fill="none" stroke-width="1.44"></path></pattern><clipPath id="SvgjsClipPath6868"><circle r="15" cx="2682.69" cy="210.05"></circle></clipPath><pattern x="0" y="0" width="8.52" height="8.52" patternUnits="userSpaceOnUse" id="SvgjsPattern6871"><path d="M0 8.52L4.26 0L8.52 8.52" stroke="rgba(69, 252, 81, 1)" fill="none"></path></pattern><clipPath id="SvgjsClipPath6870"><circle r="21.299999999999997" cx="8934.88" cy="161.74"></circle></clipPath><pattern x="0" y="0" width="7.08" height="7.08" patternUnits="userSpaceOnUse" id="SvgjsPattern6873"><path d="M0 7.08L3.54 0L7.08 7.08" stroke="rgba(69, 252, 81, 1)" fill="none"></path></pattern><clipPath id="SvgjsClipPath6872"><circle r="17.7" cx="2702.54" cy="80.12"></circle></clipPath><pattern x="0" y="0" width="7.76" height="7.76" patternUnits="userSpaceOnUse" id="SvgjsPattern6875"><path d="M0 7.76L3.88 0L7.76 7.76" stroke="rgba(0, 212, 255, 1)" fill="none"></path></pattern><clipPath id="SvgjsClipPath6874"><circle r="19.4" cx="2289.26" cy="267.87"></circle></clipPath><pattern x="0" y="0" width="11.64" height="11.64" patternUnits="userSpaceOnUse" id="SvgjsPattern6877"><path d="M0 11.64L5.82 0L11.64 11.64" stroke="rgba(69, 252, 81, 1)" fill="none"></path></pattern><clipPath id="SvgjsClipPath6876"><circle r="29.1" cx="3540.47" cy="285.04"></circle></clipPath><pattern x="0" y="0" width="13.64" height="13.64" patternUnits="userSpaceOnUse" id="SvgjsPattern6879"><path d="M0 13.64L6.82 0L13.64 13.64" stroke="rgba(69, 252, 81, 1)" fill="none"></path></pattern><clipPath id="SvgjsClipPath6878"><circle r="34.1" cx="7867.19" cy="97.94"></circle></clipPath><pattern x="0" y="0" width="9.74" height="9.74" patternUnits="userSpaceOnUse" id="SvgjsPattern6881"><path d="M0 9.74L4.87 0L9.74 9.74" stroke="rgba(207, 68, 32, 1)" fill="none"></path></pattern><clipPath id="SvgjsClipPath6880"><circle r="24.35" cx="1571.45" cy="146.89"></circle></clipPath><pattern x="0" y="0" width="6" height="6" patternUnits="userSpaceOnUse" id="SvgjsPattern6883"><path d="M0 6L3 0L6 6" stroke="rgba(207, 68, 32, 1)" fill="none"></path></pattern><clipPath id="SvgjsClipPath6882"><circle r="27" cx="3953.84" cy="290.59"></circle></clipPath><pattern x="0" y="0" width="7.26" height="7.26" patternUnits="userSpaceOnUse" id="SvgjsPattern6885"><path d="M3.63 1L3.63 6.26M1 3.63L6.26 3.63" stroke="rgba(69, 252, 81, 1)" fill="none" stroke-width="1.27"></path></pattern><clipPath id="SvgjsClipPath6884"><circle r="25.41" cx="1988.62" cy="288.1"></circle></clipPath><pattern x="0" y="0" width="6" height="6" patternUnits="userSpaceOnUse" id="SvgjsPattern6887"><path d="M0 6L3 0L6 6" stroke="rgba(207, 68, 32, 1)" fill="none"></path></pattern><clipPath id="SvgjsClipPath6886"><circle r="30" cx="4059.86" cy="46.5"></circle></clipPath><pattern x="0" y="0" width="166.56" height="6.94" patternUnits="userSpaceOnUse" id="SvgjsPattern6889"><rect width="166.56" height="3.47" x="0" y="0" fill="rgba(207, 68, 32, 1)"></rect><rect width="166.56" height="3.47" x="0" y="3.47" fill="rgba(0, 0, 0, 0)"></rect></pattern><clipPath id="SvgjsClipPath6888"><circle r="41.64" cx="8011.24" cy="230.52"></circle></clipPath><pattern x="0" y="0" width="6" height="6" patternUnits="userSpaceOnUse" id="SvgjsPattern6891"><path d="M0 6L3 0L6 6" stroke="rgba(0, 212, 255, 1)" fill="none"></path></pattern><clipPath id="SvgjsClipPath6890"><circle r="27" cx="7515.29" cy="279.71"></circle></clipPath><pattern x="0" y="0" width="12.18" height="12.18" patternUnits="userSpaceOnUse" id="SvgjsPattern6893"><path d="M0 12.18L6.09 0L12.18 12.18" stroke="rgba(207, 68, 32, 1)" fill="none"></path></pattern><clipPath id="SvgjsClipPath6892"><circle r="30.45" cx="5452.58" cy="170.48"></circle></clipPath><pattern x="0" y="0" width="93" height="9.3" patternUnits="userSpaceOnUse" id="SvgjsPattern6895"><rect width="93" height="4.65" x="0" y="0" fill="rgba(0, 212, 255, 1)"></rect><rect width="93" height="4.65" x="0" y="4.65" fill="rgba(0, 0, 0, 0)"></rect></pattern><clipPath id="SvgjsClipPath6894"><circle r="23.25" cx="4475.86" cy="96.16"></circle></clipPath><pattern x="0" y="0" width="9.98" height="9.98" patternUnits="userSpaceOnUse" id="SvgjsPattern6897"><path d="M4.99 1L4.99 8.98M1 4.99L8.98 4.99" stroke="rgba(69, 252, 81, 1)" fill="none" stroke-width="1.89"></path></pattern><clipPath id="SvgjsClipPath6896"><circle r="24.95" cx="8115.97" cy="178.01"></circle></clipPath><pattern x="0" y="0" width="10.32" height="10.32" patternUnits="userSpaceOnUse" id="SvgjsPattern6899"><path d="M5.16 1L5.16 9.32M1 5.16L9.32 5.16" stroke="rgba(69, 252, 81, 1)" fill="none" stroke-width="1"></path></pattern><clipPath id="SvgjsClipPath6898"><circle r="46.44" cx="4496.02" cy="247.55"></circle></clipPath><pattern x="0" y="0" width="8.06" height="8.06" patternUnits="userSpaceOnUse" id="SvgjsPattern6901"><path d="M0 8.06L4.03 0L8.06 8.06" stroke="rgba(69, 252, 81, 1)" fill="none"></path></pattern><clipPath id="SvgjsClipPath6900"><circle r="40.300000000000004" cx="6120.52" cy="183.17"></circle></clipPath><pattern x="0" y="0" width="60" height="6" patternUnits="userSpaceOnUse" id="SvgjsPattern6903"><rect width="60" height="3" x="0" y="0" fill="rgba(207, 68, 32, 1)"></rect><rect width="60" height="3" x="0" y="3" fill="rgba(0, 0, 0, 0)"></rect></pattern><clipPath id="SvgjsClipPath6902"><circle r="15" cx="2089.73" cy="145.88"></circle></clipPath><pattern x="0" y="0" width="12.36" height="12.36" patternUnits="userSpaceOnUse" id="SvgjsPattern6905"><path d="M0 12.36L6.18 0L12.36 12.36" stroke="rgba(207, 68, 32, 1)" fill="none"></path></pattern><clipPath id="SvgjsClipPath6904"><circle r="30.9" cx="389.49" cy="30.51"></circle></clipPath><pattern x="0" y="0" width="128.4" height="12.84" patternUnits="userSpaceOnUse" id="SvgjsPattern6907"><rect width="128.4" height="6.42" x="0" y="0" fill="rgba(69, 252, 81, 1)"></rect><rect width="128.4" height="6.42" x="0" y="6.42" fill="rgba(0, 0, 0, 0)"></rect></pattern><clipPath id="SvgjsClipPath6906"><circle r="32.1" cx="3137.21" cy="43.74"></circle></clipPath><pattern x="0" y="0" width="6" height="6" patternUnits="userSpaceOnUse" id="SvgjsPattern6909"><path d="M3 1L3 5M1 3L5 3" stroke="rgba(207, 68, 32, 1)" fill="none" stroke-width="1"></path></pattern><clipPath id="SvgjsClipPath6908"><circle r="24" cx="468.66" cy="162.91"></circle></clipPath><pattern x="0" y="0" width="150.84" height="8.38" patternUnits="userSpaceOnUse" id="SvgjsPattern6911"><rect width="150.84" height="4.19" x="0" y="0" fill="rgba(69, 252, 81, 1)"></rect><rect width="150.84" height="4.19" x="0" y="4.19" fill="rgba(0, 0, 0, 0)"></rect></pattern><clipPath id="SvgjsClipPath6910"><circle r="37.71" cx="6173.59" cy="112.06"></circle></clipPath><pattern x="0" y="0" width="96" height="6" patternUnits="userSpaceOnUse" id="SvgjsPattern6913"><rect width="96" height="3" x="0" y="0" fill="rgba(0, 212, 255, 1)"></rect><rect width="96" height="3" x="0" y="3" fill="rgba(0, 0, 0, 0)"></rect></pattern><clipPath id="SvgjsClipPath6912"><circle r="24" cx="3797.87" cy="42.41"></circle></clipPath><pattern x="0" y="0" width="11.12" height="11.12" patternUnits="userSpaceOnUse" id="SvgjsPattern6915"><path d="M0 11.12L5.56 0L11.12 11.12" stroke="rgba(69, 252, 81, 1)" fill="none"></path></pattern><clipPath id="SvgjsClipPath6914"><circle r="44.48" cx="4242.16" cy="243.72"></circle></clipPath><pattern x="0" y="0" width="133.4" height="13.34" patternUnits="userSpaceOnUse" id="SvgjsPattern6917"><rect width="133.4" height="6.67" x="0" y="0" fill="rgba(69, 252, 81, 1)"></rect><rect width="133.4" height="6.67" x="0" y="6.67" fill="rgba(0, 0, 0, 0)"></rect></pattern><clipPath id="SvgjsClipPath6916"><circle r="33.35" cx="3512.67" cy="128.07"></circle></clipPath><pattern x="0" y="0" width="6.34" height="6.34" patternUnits="userSpaceOnUse" id="SvgjsPattern6919"><path d="M0 6.34L3.17 0L6.34 6.34" stroke="rgba(0, 212, 255, 1)" fill="none"></path></pattern><clipPath id="SvgjsClipPath6918"><circle r="28.53" cx="595.12" cy="161.98"></circle></clipPath><pattern x="0" y="0" width="81.4" height="8.14" patternUnits="userSpaceOnUse" id="SvgjsPattern6921"><rect width="81.4" height="4.07" x="0" y="0" fill="rgba(207, 68, 32, 1)"></rect><rect width="81.4" height="4.07" x="0" y="4.07" fill="rgba(0, 0, 0, 0)"></rect></pattern><clipPath id="SvgjsClipPath6920"><circle r="20.35" cx="2000.22" cy="11.84"></circle></clipPath><pattern x="0" y="0" width="10.52" height="10.52" patternUnits="userSpaceOnUse" id="SvgjsPattern6923"><path d="M0 10.52L5.26 0L10.52 10.52" stroke="rgba(69, 252, 81, 1)" fill="none"></path></pattern><clipPath id="SvgjsClipPath6922"><circle r="31.56" cx="5081.83" cy="69.1"></circle></clipPath><pattern x="0" y="0" width="13.84" height="13.84" patternUnits="userSpaceOnUse" id="SvgjsPattern6925"><path d="M0 13.84L6.92 0L13.84 13.84" stroke="rgba(69, 252, 81, 1)" fill="none"></path></pattern><clipPath id="SvgjsClipPath6924"><circle r="34.6" cx="6330.4" cy="43.75"></circle></clipPath><pattern x="0" y="0" width="8.54" height="8.54" patternUnits="userSpaceOnUse" id="SvgjsPattern6927"><path d="M4.27 1L4.27 7.539999999999999M1 4.27L7.539999999999999 4.27" stroke="rgba(0, 212, 255, 1)" fill="none" stroke-width="1.35"></path></pattern><clipPath id="SvgjsClipPath6926"><circle r="29.89" cx="7083.68" cy="58.69"></circle></clipPath><pattern x="0" y="0" width="9.96" height="9.96" patternUnits="userSpaceOnUse" id="SvgjsPattern6929"><path d="M4.98 1L4.98 8.96M1 4.98L8.96 4.98" stroke="rgba(207, 68, 32, 1)" fill="none" stroke-width="2.17"></path></pattern><clipPath id="SvgjsClipPath6928"><circle r="24.9" cx="8665.16" cy="150.47"></circle></clipPath><pattern x="0" y="0" width="101.04" height="8.42" patternUnits="userSpaceOnUse" id="SvgjsPattern6931"><rect width="101.04" height="4.21" x="0" y="0" fill="rgba(69, 252, 81, 1)"></rect><rect width="101.04" height="4.21" x="0" y="4.21" fill="rgba(0, 0, 0, 0)"></rect></pattern><clipPath id="SvgjsClipPath6930"><circle r="25.26" cx="7303.05" cy="143.15"></circle></clipPath><pattern x="0" y="0" width="6.12" height="6.12" patternUnits="userSpaceOnUse" id="SvgjsPattern6933"><path d="M0 6.12L3.06 0L6.12 6.12" stroke="rgba(207, 68, 32, 1)" fill="none"></path></pattern><clipPath id="SvgjsClipPath6932"><circle r="15.3" cx="420.06" cy="141.59"></circle></clipPath><pattern x="0" y="0" width="6" height="6" patternUnits="userSpaceOnUse" id="SvgjsPattern6935"><path d="M0 6L3 0L6 6" stroke="rgba(207, 68, 32, 1)" fill="none"></path></pattern><clipPath id="SvgjsClipPath6934"><circle r="24" cx="7025.92" cy="214.26"></circle></clipPath><pattern x="0" y="0" width="7.76" height="7.76" patternUnits="userSpaceOnUse" id="SvgjsPattern6937"><path d="M0 7.76L3.88 0L7.76 7.76" stroke="rgba(69, 252, 81, 1)" fill="none"></path></pattern><clipPath id="SvgjsClipPath6936"><circle r="19.4" cx="5204.79" cy="147.81"></circle></clipPath><pattern x="0" y="0" width="129.84" height="10.82" patternUnits="userSpaceOnUse" id="SvgjsPattern6939"><rect width="129.84" height="5.41" x="0" y="0" fill="rgba(0, 212, 255, 1)"></rect><rect width="129.84" height="5.41" x="0" y="5.41" fill="rgba(0, 0, 0, 0)"></rect></pattern><clipPath id="SvgjsClipPath6938"><circle r="32.46" cx="8228.26" cy="118.54"></circle></clipPath><pattern x="0" y="0" width="164.36" height="11.74" patternUnits="userSpaceOnUse" id="SvgjsPattern6941"><rect width="164.36" height="5.87" x="0" y="0" fill="rgba(0, 212, 255, 1)"></rect><rect width="164.36" height="5.87" x="0" y="5.87" fill="rgba(0, 0, 0, 0)"></rect></pattern><clipPath id="SvgjsClipPath6940"><circle r="41.09" cx="4980.74" cy="6.79"></circle></clipPath><pattern x="0" y="0" width="6" height="6" patternUnits="userSpaceOnUse" id="SvgjsPattern6943"><path d="M0 6L3 0L6 6" stroke="rgba(207, 68, 32, 1)" fill="none"></path></pattern><clipPath id="SvgjsClipPath6942"><circle r="15" cx="5113.05" cy="4.35"></circle></clipPath><pattern x="0" y="0" width="127" height="12.7" patternUnits="userSpaceOnUse" id="SvgjsPattern6945"><rect width="127" height="6.35" x="0" y="0" fill="rgba(207, 68, 32, 1)"></rect><rect width="127" height="6.35" x="0" y="6.35" fill="rgba(0, 0, 0, 0)"></rect></pattern><clipPath id="SvgjsClipPath6944"><circle r="31.75" cx="2839.96" cy="210.99"></circle></clipPath><pattern x="0" y="0" width="8.48" height="8.48" patternUnits="userSpaceOnUse" id="SvgjsPattern6947"><path d="M4.24 1L4.24 7.48M1 4.24L7.48 4.24" stroke="rgba(69, 252, 81, 1)" fill="none" stroke-width="1.06"></path></pattern><clipPath id="SvgjsClipPath6946"><circle r="46.64" cx="7466.51" cy="193.75"></circle></clipPath><pattern x="0" y="0" width="138.4" height="13.84" patternUnits="userSpaceOnUse" id="SvgjsPattern6949"><rect width="138.4" height="6.92" x="0" y="0" fill="rgba(0, 212, 255, 1)"></rect><rect width="138.4" height="6.92" x="0" y="6.92" fill="rgba(0, 0, 0, 0)"></rect></pattern><clipPath id="SvgjsClipPath6948"><circle r="34.6" cx="1448.62" cy="106.89"></circle></clipPath><pattern x="0" y="0" width="9.92" height="9.92" patternUnits="userSpaceOnUse" id="SvgjsPattern6951"><path d="M0 9.92L4.96 0L9.92 9.92" stroke="rgba(0, 212, 255, 1)" fill="none"></path></pattern><clipPath id="SvgjsClipPath6950"><circle r="24.8" cx="3135.12" cy="284.06"></circle></clipPath><pattern x="0" y="0" width="6.14" height="6.14" patternUnits="userSpaceOnUse" id="SvgjsPattern6953"><path d="M3.07 1L3.07 5.14M1 3.07L5.14 3.07" stroke="rgba(207, 68, 32, 1)" fill="none" stroke-width="1"></path></pattern><clipPath id="SvgjsClipPath6952"><circle r="27.63" cx="3471.24" cy="15.22"></circle></clipPath><pattern x="0" y="0" width="96" height="6" patternUnits="userSpaceOnUse" id="SvgjsPattern6955"><rect width="96" height="3" x="0" y="0" fill="rgba(207, 68, 32, 1)"></rect><rect width="96" height="3" x="0" y="3" fill="rgba(0, 0, 0, 0)"></rect></pattern><clipPath id="SvgjsClipPath6954"><circle r="24" cx="250.68" cy="179.08"></circle></clipPath><pattern x="0" y="0" width="6" height="6" patternUnits="userSpaceOnUse" id="SvgjsPattern6957"><path d="M3 1L3 5M1 3L5 3" stroke="rgba(207, 68, 32, 1)" fill="none" stroke-width="1.16"></path></pattern><clipPath id="SvgjsClipPath6956"><circle r="45" cx="3243.15" cy="99.38"></circle></clipPath><pattern x="0" y="0" width="129.6" height="12.96" patternUnits="userSpaceOnUse" id="SvgjsPattern6959"><rect width="129.6" height="6.48" x="0" y="0" fill="rgba(207, 68, 32, 1)"></rect><rect width="129.6" height="6.48" x="0" y="6.48" fill="rgba(0, 0, 0, 0)"></rect></pattern><clipPath id="SvgjsClipPath6958"><circle r="32.4" cx="6525.06" cy="177.93"></circle></clipPath><pattern x="0" y="0" width="6" height="6" patternUnits="userSpaceOnUse" id="SvgjsPattern6961"><path d="M3 1L3 5M1 3L5 3" stroke="rgba(207, 68, 32, 1)" fill="none" stroke-width="1.05"></path></pattern><clipPath id="SvgjsClipPath6960"><circle r="15" cx="3346.6" cy="221.48"></circle></clipPath><pattern x="0" y="0" width="9.14" height="9.14" patternUnits="userSpaceOnUse" id="SvgjsPattern6963"><path d="M0 9.14L4.57 0L9.14 9.14" stroke="rgba(69, 252, 81, 1)" fill="none"></path></pattern><clipPath id="SvgjsClipPath6962"><circle r="22.85" cx="4649.97" cy="161.92"></circle></clipPath></defs></svg>