<svg xmlns="http://www.w3.org/2000/svg" version="1.1" xmlns:xlink="http://www.w3.org/1999/xlink" xmlns:svgjs="http://svgjs.com/svgjs" width="3000" height="300" preserveAspectRatio="none" viewBox="0 0 3000 300"><g mask="url(&quot;#SvgjsMask1020&quot;)" fill="none"><path d="M2171.73 215.8a8.75 8.75 0 1 0-15.69-7.73z" stroke="rgba(0, 212, 255, 1)"></path><path d="M2255.49 69.29a9.14 9.14 0 1 0 18.24-1.22z" fill="rgba(69, 252, 81, 1)"></path><path d="M1214.84 274.32a28.42 28.42 0 1 0 25.12-50.99z" stroke="rgba(0, 212, 255, 1)"></path><path d="M2907.9 207.41L2929.03 207.41L2929.03 228.54L2907.9 228.54z" fill="rgba(69, 252, 81, 1)"></path><path d="M1795.44 96.87a9.63 9.63 0 1 0 19.26 0.22z" stroke="rgba(0, 212, 255, 1)"></path><path d="M490.89 102.64a11.31 11.31 0 1 0 12.04-19.15z" stroke="rgba(231, 54, 53, 1)"></path><path d="M843.03 281.77L847.71 281.77L847.71 286.33L843.03 286.33z" fill="rgba(69, 252, 81, 1)"></path><path d="M172.39 251.05a26.76 26.76 0 1 0-13.97 51.67z" stroke="rgba(69, 252, 81, 1)"></path><path d="M1978.89 263.24a9.76 9.76 0 1 0-12.93 14.61z" fill="rgba(231, 54, 53, 1)"></path><path d="M2781.76 144.59 a25.05 25.05 0 1 0 50.1 0 a25.05 25.05 0 1 0 -50.1 0z" stroke="rgba(69, 252, 81, 1)"></path><path d="M767.57 179.74a18.65 18.65 0 1 0 37 4.76z" stroke="rgba(69, 252, 81, 1)"></path><path d="M2768.3 243.65a2.24 2.24 0 1 0-3.35-2.98z" stroke="rgba(231, 54, 53, 1)"></path><path d="M2024.49 56.42 a4.81 4.81 0 1 0 9.62 0 a4.81 4.81 0 1 0 -9.62 0z" fill="rgba(231, 54, 53, 1)"></path><path d="M2468.7 250.26a27.08 27.08 0 1 0 54.14 1.5z" fill="rgba(0, 212, 255, 1)"></path><path d="M1954.84 263.54a13.15 13.15 0 1 0 26.14 2.88z" stroke="rgba(231, 54, 53, 1)"></path><path d="M345.59 78.16 a20.35 20.35 0 1 0 40.7 0 a20.35 20.35 0 1 0 -40.7 0z" fill="rgba(231, 54, 53, 1)"></path><path d="M2283.59 56.66a8.86 8.86 0 1 0 13.88-11.02z" fill="rgba(0, 212, 255, 1)"></path><path d="M1570.63 249.04a22.36 22.36 0 1 0 29.16-33.91z" stroke="rgba(69, 252, 81, 1)"></path><path d="M2604.28 95.47 a24.46 24.46 0 1 0 48.92 0 a24.46 24.46 0 1 0 -48.92 0z" fill="rgba(231, 54, 53, 1)"></path><path d="M2795.64 95.4L2815.04 95.4L2815.04 114.8L2795.64 114.8z" fill="rgba(0, 212, 255, 1)"></path><path d="M592.9 102.71L616.23 102.71L616.23 126.04L592.9 126.04z" stroke="rgba(69, 252, 81, 1)"></path><path d="M360.42 265.32L387.44 265.32L387.44 282.39L360.42 282.39z" stroke="rgba(69, 252, 81, 1)"></path><path d="M1818.51 18.31L1823.01 18.31L1823.01 22.89L1818.51 22.89z" stroke="rgba(0, 212, 255, 1)"></path><path d="M1633.67 216.14a17.23 17.23 0 1 0 11.21 32.58z" fill="rgba(231, 54, 53, 1)"></path><path d="M114.25 63.07a27.02 27.02 0 1 0 53.3 8.92z" fill="rgba(69, 252, 81, 1)"></path><path d="M2815.07 142.51L2823.29 142.51L2823.29 148.68L2815.07 148.68z" fill="rgba(231, 54, 53, 1)"></path><path d="M487.08 256.45 a12.38 12.38 0 1 0 24.76 0 a12.38 12.38 0 1 0 -24.76 0z" stroke="rgba(69, 252, 81, 1)"></path><path d="M1224.12 103.63a11.39 11.39 0 1 0 21.64 7.14z" stroke="rgba(0, 212, 255, 1)"></path><path d="M1250.34 296.64a26.36 26.36 0 1 0-38.29-36.24z" stroke="rgba(231, 54, 53, 1)"></path><path d="M272.73 182.94a18.12 18.12 0 1 0-3.66 36.06z" stroke="rgba(0, 212, 255, 1)"></path><path d="M79.38 220.58L91.03 220.58L91.03 232.23L79.38 232.23z" stroke="rgba(231, 54, 53, 1)"></path><path d="M1012.35 176.05L1015 176.05L1015 178.7L1012.35 178.7z" stroke="rgba(0, 212, 255, 1)"></path><path d="M521.17 34.1L543.83 34.1L543.83 56.76L521.17 56.76z" fill="rgba(231, 54, 53, 1)"></path><path d="M350.39 138.35L378.68 138.35L378.68 166.64L350.39 166.64z" fill="rgba(69, 252, 81, 1)"></path><path d="M474.19 113.21L488.5 113.21L488.5 127.52L474.19 127.52z" fill="rgba(69, 252, 81, 1)"></path><path d="M1113.04 281.77L1140.17 281.77L1140.17 307.55L1113.04 307.55z" fill="rgba(69, 252, 81, 1)"></path><path d="M55.76 153.62 a1.34 1.34 0 1 0 2.68 0 a1.34 1.34 0 1 0 -2.68 0z" stroke="rgba(69, 252, 81, 1)"></path><path d="M2069.07 67.03 a12.66 12.66 0 1 0 25.32 0 a12.66 12.66 0 1 0 -25.32 0z" fill="rgba(231, 54, 53, 1)"></path><path d="M2229.29 33.4 a6.79 6.79 0 1 0 13.58 0 a6.79 6.79 0 1 0 -13.58 0z" stroke="rgba(231, 54, 53, 1)"></path><path d="M1981.27 240.32 a4.45 4.45 0 1 0 8.9 0 a4.45 4.45 0 1 0 -8.9 0z" stroke="rgba(0, 212, 255, 1)"></path><path d="M919.06 28.66 a18.09 18.09 0 1 0 36.18 0 a18.09 18.09 0 1 0 -36.18 0z" fill="rgba(69, 252, 81, 1)"></path><path d="M263.9 258.29L269.69 258.29L269.69 264.08L263.9 264.08z" stroke="rgba(0, 212, 255, 1)"></path><path d="M2648.2 274.06L2674.76 274.06L2674.76 300.62L2648.2 300.62z" stroke="rgba(0, 212, 255, 1)"></path><path d="M1565.76 171.74 a17.74 17.74 0 1 0 35.48 0 a17.74 17.74 0 1 0 -35.48 0z" stroke="rgba(231, 54, 53, 1)"></path><path d="M1134.58 209.37a5.05 5.05 0 1 0 7.41 6.86z" fill="rgba(231, 54, 53, 1)"></path><path d="M531.68 222.29 a29 29 0 1 0 58 0 a29 29 0 1 0 -58 0z" fill="rgba(0, 212, 255, 1)"></path><path d="M1058.32 26.15L1067.96 26.15L1067.96 35.79L1058.32 35.79z" fill="rgba(231, 54, 53, 1)"></path><path d="M442.03 173.08L456.16 173.08L456.16 173.99L442.03 173.99z" stroke="rgba(0, 212, 255, 1)"></path><path d="M787.56 89.26a14.24 14.24 0 1 0-7.61 27.45z" stroke="rgba(0, 212, 255, 1)"></path><path d="M1914.1 11.34a12.47 12.47 0 1 0 20.6-14.06z" fill="rgba(0, 212, 255, 1)"></path><path d="M2239.92 62.14a16.76 16.76 0 1 0-19.37-27.36z" stroke="rgba(0, 212, 255, 1)"></path><path d="M708.49 13.08L710.14 13.08L710.14 14.73L708.49 14.73z" stroke="rgba(0, 212, 255, 1)"></path><path d="M1832.45 231.1L1846.4 231.1L1846.4 245.05L1832.45 245.05z" fill="rgba(0, 212, 255, 1)"></path><path d="M2598.15 222.18L2620.18 222.18L2620.18 247.46L2598.15 247.46z" fill="rgba(69, 252, 81, 1)"></path><path d="M476.26 282.05L495.59 282.05L495.59 285.01L476.26 285.01z" stroke="rgba(231, 54, 53, 1)"></path><path d="M2033.22 172.9 a28.7 28.7 0 1 0 57.4 0 a28.7 28.7 0 1 0 -57.4 0z" fill="rgba(231, 54, 53, 1)"></path><path d="M94.72 112.83L95.71 112.83L95.71 113.82L94.72 113.82z" stroke="rgba(69, 252, 81, 1)"></path><path d="M1360.12 297.01L1386.24 297.01L1386.24 323.13L1360.12 323.13z" stroke="rgba(69, 252, 81, 1)"></path><path d="M1085.14 21.88L1110.36 21.88L1110.36 47.1L1085.14 47.1z" stroke="rgba(0, 212, 255, 1)"></path><path d="M1289.78 82.57a2.65 2.65 0 1 0-2.64-4.6z" fill="rgba(0, 212, 255, 1)"></path><path d="M1315.45 214.79a11.2 11.2 0 1 0-21.66-5.7z" stroke="rgba(0, 212, 255, 1)"></path><path d="M1410.67 119.29a6.59 6.59 0 1 0-3.35-12.75z" fill="rgba(0, 212, 255, 1)"></path><path d="M72.36 61.33L80.64 61.33L80.64 85.86L72.36 85.86z" stroke="rgba(0, 212, 255, 1)"></path><path d="M1076.03 154.15 a20.2 20.2 0 1 0 40.4 0 a20.2 20.2 0 1 0 -40.4 0z" stroke="rgba(69, 252, 81, 1)"></path><path d="M2774.28 69.96a6.6 6.6 0 1 0 9.81 8.84z" stroke="rgba(231, 54, 53, 1)"></path><path d="M1791.91 44.14L1804.48 44.14L1804.48 56.71L1791.91 56.71z" fill="rgba(0, 212, 255, 1)"></path><path d="M579.16 227.98L587.78 227.98L587.78 236.6L579.16 236.6z" fill="rgba(69, 252, 81, 1)"></path><path d="M411.25 35.34a22.11 22.11 0 1 0-41.24-15.95z" fill="rgba(0, 212, 255, 1)"></path><path d="M2004.67 177.6L2032.53 177.6L2032.53 205.46L2004.67 205.46z" stroke="rgba(231, 54, 53, 1)"></path><path d="M48.48 207.56 a8.16 8.16 0 1 0 16.32 0 a8.16 8.16 0 1 0 -16.32 0z" fill="rgba(0, 212, 255, 1)"></path><path d="M2754.13 6.35 a25.46 25.46 0 1 0 50.92 0 a25.46 25.46 0 1 0 -50.92 0z" stroke="rgba(0, 212, 255, 1)"></path><path d="M1690.6 155.71L1691.41 155.71L1691.41 156.52L1690.6 156.52z" fill="rgba(231, 54, 53, 1)"></path><path d="M2785.28 274.34L2801.72 274.34L2801.72 290.78L2785.28 290.78z" stroke="rgba(0, 212, 255, 1)"></path><path d="M1964.89 156.94L1980.76 156.94L1980.76 172.81L1964.89 172.81z" fill="rgba(231, 54, 53, 1)"></path><path d="M170.99 198.23L171.82 198.23L171.82 205.38L170.99 205.38z" fill="rgba(231, 54, 53, 1)"></path><path d="M746.54 186.55L772.36 186.55L772.36 214.83L746.54 214.83z" stroke="rgba(0, 212, 255, 1)"></path><path d="M614.52 173.51 a15.65 15.65 0 1 0 31.3 0 a15.65 15.65 0 1 0 -31.3 0z" fill="rgba(0, 212, 255, 1)"></path><path d="M2308.33 9.27L2318.82 9.27L2318.82 16.36L2308.33 16.36z" fill="rgba(69, 252, 81, 1)"></path><path d="M924.74 244.94L950.39 244.94L950.39 270.59L924.74 270.59z" stroke="rgba(69, 252, 81, 1)"></path><path d="M2855.47 216.8L2872.62 216.8L2872.62 233.95L2855.47 233.95z" fill="rgba(69, 252, 81, 1)"></path><path d="M93 66.5L117.84 66.5L117.84 73.15L93 73.15z" stroke="rgba(0, 212, 255, 1)"></path><path d="M230.93 75.83a7.52 7.52 0 1 0-1.75-14.94z" fill="rgba(231, 54, 53, 1)"></path><path d="M2265.85 127.15a8.51 8.51 0 1 0-2.14 16.88z" stroke="rgba(69, 252, 81, 1)"></path><path d="M331.83 187.41L359.78 187.41L359.78 208.6L331.83 208.6z" stroke="rgba(69, 252, 81, 1)"></path><path d="M1358.78 107.06a15.01 15.01 0 1 0-0.89-30.01z" stroke="rgba(69, 252, 81, 1)"></path><path d="M2768.04 277.79L2782.8 277.79L2782.8 292.55L2768.04 292.55z" stroke="rgba(0, 212, 255, 1)"></path><path d="M1289.56 237.65a19.95 19.95 0 1 0-10.79-38.42z" fill="rgba(69, 252, 81, 1)"></path><path d="M623.41 112.45a4.87 4.87 0 1 0 9.06 3.58z" fill="rgba(231, 54, 53, 1)"></path><path d="M1877.2 236.03a17.49 17.49 0 1 0-28.07 20.87z" stroke="rgba(231, 54, 53, 1)"></path><path d="M2037.08 297.6a2.68 2.68 0 1 0-2.98-4.45z" stroke="rgba(0, 212, 255, 1)"></path><path d="M1371.32 240.19L1374.77 240.19L1374.77 254.05L1371.32 254.05z" fill="rgba(231, 54, 53, 1)"></path><path d="M302.22 61.25L328.57 61.25L328.57 70.27L302.22 70.27z" fill="rgba(231, 54, 53, 1)"></path><path d="M741.01 87.23L763.52 87.23L763.52 109.74L741.01 109.74z" fill="rgba(231, 54, 53, 1)"></path><path d="M2631.67 138.32L2632.12 138.32L2632.12 138.77L2631.67 138.77z" fill="rgba(69, 252, 81, 1)"></path><path d="M2868.14 83.09L2888.27 83.09L2888.27 103.22L2868.14 103.22z" stroke="rgba(231, 54, 53, 1)"></path><path d="M1228.87 183.75a1.93 1.93 0 1 0 3.27 2.05z" fill="rgba(0, 212, 255, 1)"></path><path d="M687.6 282.57L688.46 282.57L688.46 283.43L687.6 283.43z" stroke="rgba(69, 252, 81, 1)"></path><path d="M1515.02 6.39L1516.95 6.39L1516.95 7.96L1515.02 7.96z" fill="rgba(69, 252, 81, 1)"></path><path d="M79.79 209.3a17.84 17.84 0 1 0 1.95 35.63z" fill="rgba(0, 212, 255, 1)"></path><path d="M1051.39 236.79L1052.26 236.79L1052.26 237.66L1051.39 237.66z" fill="rgba(231, 54, 53, 1)"></path><path d="M2974.92 220.21 a15.09 15.09 0 1 0 30.18 0 a15.09 15.09 0 1 0 -30.18 0z" fill="rgba(69, 252, 81, 1)"></path><path d="M996.33 144.69a2.81 2.81 0 1 0-1.68-5.36z" stroke="rgba(69, 252, 81, 1)"></path><path d="M2457.25 71.43 a24.45 24.45 0 1 0 48.9 0 a24.45 24.45 0 1 0 -48.9 0z" fill="rgba(231, 54, 53, 1)"></path><path d="M2351.25 216.25L2360.75 216.25L2360.75 225.75L2351.25 225.75z" stroke="rgba(0, 212, 255, 1)"></path><path d="M2859.51 117.79L2860.03 117.79L2860.03 118.31L2859.51 118.31z" fill="rgba(231, 54, 53, 1)"></path><path d="M2725.2 154.18 a9.86 9.86 0 1 0 19.72 0 a9.86 9.86 0 1 0 -19.72 0z" stroke="rgba(69, 252, 81, 1)"></path><path d="M485.5 112.24L497.58 112.24L497.58 117.73L485.5 117.73z" stroke="rgba(69, 252, 81, 1)"></path><path d="M1110.42 0.87 a17.83 17.83 0 1 0 35.66 0 a17.83 17.83 0 1 0 -35.66 0z" fill="rgba(231, 54, 53, 1)"></path><path d="M416.79 107.7a15.5 15.5 0 1 0 10.74 29.08z" fill="rgba(231, 54, 53, 1)"></path><path d="M2927.08 239.48a22.19 22.19 0 1 0-30.33-32.4z" fill="rgba(231, 54, 53, 1)"></path><path d="M2112.96 47.28L2137.79 47.28L2137.79 72.11L2112.96 72.11z" stroke="rgba(0, 212, 255, 1)"></path><path d="M1283.95 136.68 a25.33 25.33 0 1 0 50.66 0 a25.33 25.33 0 1 0 -50.66 0z" stroke="rgba(231, 54, 53, 1)"></path><path d="M2897.15 72.43L2909.1 72.43L2909.1 84.38L2897.15 84.38z" fill="rgba(69, 252, 81, 1)"></path><path d="M604.33 259.95L612.99 259.95L612.99 278.53L604.33 278.53z" stroke="rgba(0, 212, 255, 1)"></path><path d="M2061.08 219.51L2079.95 219.51L2079.95 238.38L2061.08 238.38z" fill="rgba(69, 252, 81, 1)"></path><path d="M1950.2 218.98L1964.53 218.98L1964.53 233.45L1950.2 233.45z" stroke="rgba(0, 212, 255, 1)"></path><path d="M869.72 98.53a2.17 2.17 0 1 0 1.51-4.07z" stroke="rgba(231, 54, 53, 1)"></path><path d="M1873.2 2.51L1888.57 2.51L1888.57 17.88L1873.2 17.88z" stroke="rgba(69, 252, 81, 1)"></path><path d="M2606.09 47.29a12.31 12.31 0 1 0 15.69 18.98z" fill="rgba(0, 212, 255, 1)"></path><path d="M2174.77 285.4L2204 285.4L2204 301.81L2174.77 301.81z" fill="rgba(231, 54, 53, 1)"></path><path d="M183.03 48.53 a21.37 21.37 0 1 0 42.74 0 a21.37 21.37 0 1 0 -42.74 0z" fill="rgba(231, 54, 53, 1)"></path><path d="M2818.38 118.79a12.15 12.15 0 1 0-10.69-21.81z" stroke="rgba(231, 54, 53, 1)"></path><path d="M1586 255.63L1598.19 255.63L1598.19 267.82L1586 267.82z" fill="rgba(69, 252, 81, 1)"></path><path d="M1342.53 210.56 a9.52 9.52 0 1 0 19.04 0 a9.52 9.52 0 1 0 -19.04 0z" stroke="rgba(0, 212, 255, 1)"></path><path d="M1413.83 100.42L1426 100.42L1426 112.59L1413.83 112.59z" stroke="rgba(231, 54, 53, 1)"></path></g><defs><mask id="SvgjsMask1020"><rect width="3000" height="300" fill="#ffffff"></rect></mask></defs></svg>