<!DOCTYPE svg PUBLIC "-//W3C//DTD SVG 1.1//EN" "http://www.w3.org/Graphics/SVG/1.1/DTD/svg11.dtd">
<!-- Uploaded to: SVG Repo, www.svgrepo.com, Transformed by: SVG Repo Mixer Tools -->
<svg width="800px" height="800px" viewBox="-4.8 -4.8 33.60 33.60" fill="none" xmlns="http://www.w3.org/2000/svg" stroke="#2f80ed" transform="matrix(1, 0, 0, 1, 0, 0)rotate(0)">
<g id="SVGRepo_bgCarrier" stroke-width="0" transform="translate(0,0), scale(1)">
<rect x="-4.8" y="-4.8" width="33.60" height="33.60" rx="16.8" fill="#2f80ed" strokewidth="0"/>
</g>
<g id="SVGRepo_tracerCarrier" stroke-linecap="round" stroke-linejoin="round" stroke="#CCCCCC" stroke-width="0.048"/>
<g id="SVGRepo_iconCarrier"> <path d="M3.51018 14.9907C4.15862 16.831 5.38765 18.4108 7.01208 19.492C8.63652 20.5732 10.5684 21.0972 12.5165 20.9851C14.4647 20.873 16.3237 20.1308 17.8133 18.8704C19.303 17.61 20.3426 15.8996 20.7756 13.997C21.2086 12.0944 21.0115 10.1026 20.214 8.32177C19.4165 6.54091 18.0617 5.06746 16.3539 4.12343C14.6461 3.17941 12.6777 2.81593 10.7454 3.08779C7.48292 3.54676 5.32746 5.91142 3 8M3 8V2M3 8H9" stroke="#ffffff" stroke-width="0.8879999999999999" stroke-linecap="round" stroke-linejoin="round"/> </g>
</svg>