<svg id="visual" viewBox="0 0 960 540" width="960" height="540" xmlns="http://www.w3.org/2000/svg" xmlns:xlink="http://www.w3.org/1999/xlink" version="1.1"><path d="M0 136L26.7 134.2C53.3 132.3 106.7 128.7 160 123.3C213.3 118 266.7 111 320 106.5C373.3 102 426.7 100 480 100C533.3 100 586.7 102 640 101.2C693.3 100.3 746.7 96.7 800 97.5C853.3 98.3 906.7 103.7 933.3 106.3L960 109L960 0L933.3 0C906.7 0 853.3 0 800 0C746.7 0 693.3 0 640 0C586.7 0 533.3 0 480 0C426.7 0 373.3 0 320 0C266.7 0 213.3 0 160 0C106.7 0 53.3 0 26.7 0L0 0Z" fill="#333333"></path><path d="M0 282L26.7 282C53.3 282 106.7 282 160 278.3C213.3 274.7 266.7 267.3 320 268.2C373.3 269 426.7 278 480 283.5C533.3 289 586.7 291 640 283.8C693.3 276.7 746.7 260.3 800 257.5C853.3 254.7 906.7 265.3 933.3 270.7L960 276L960 107L933.3 104.3C906.7 101.7 853.3 96.3 800 95.5C746.7 94.7 693.3 98.3 640 99.2C586.7 100 533.3 98 480 98C426.7 98 373.3 100 320 104.5C266.7 109 213.3 116 160 121.3C106.7 126.7 53.3 130.3 26.7 132.2L0 134Z" fill="#686868"></path><path d="M0 352L26.7 353.8C53.3 355.7 106.7 359.3 160 355.7C213.3 352 266.7 341 320 341.8C373.3 342.7 426.7 355.3 480 364.3C533.3 373.3 586.7 378.7 640 370.7C693.3 362.7 746.7 341.3 800 336.8C853.3 332.3 906.7 344.7 933.3 350.8L960 357L960 274L933.3 268.7C906.7 263.3 853.3 252.7 800 255.5C746.7 258.3 693.3 274.7 640 281.8C586.7 289 533.3 287 480 281.5C426.7 276 373.3 267 320 266.2C266.7 265.3 213.3 272.7 160 276.3C106.7 280 53.3 280 26.7 280L0 280Z" fill="#a2a2a2"></path><path d="M0 541L26.7 541C53.3 541 106.7 541 160 541C213.3 541 266.7 541 320 541C373.3 541 426.7 541 480 541C533.3 541 586.7 541 640 541C693.3 541 746.7 541 800 541C853.3 541 906.7 541 933.3 541L960 541L960 355L933.3 348.8C906.7 342.7 853.3 330.3 800 334.8C746.7 339.3 693.3 360.7 640 368.7C586.7 376.7 533.3 371.3 480 362.3C426.7 353.3 373.3 340.7 320 339.8C266.7 339 213.3 350 160 353.7C106.7 357.3 53.3 353.7 26.7 351.8L0 350Z" fill="#e0e0e0"></path></svg>