<?xml version="1.0" encoding="UTF-8" standalone="no"?>
<!-- Created with Inkscape (http://www.inkscape.org/) -->

<svg
   xmlns:dc="http://purl.org/dc/elements/1.1/"
   xmlns:cc="http://creativecommons.org/ns#"
   xmlns:rdf="http://www.w3.org/1999/02/22-rdf-syntax-ns#"
   xmlns:svg="http://www.w3.org/2000/svg"
   xmlns="http://www.w3.org/2000/svg"
   xmlns:sodipodi="http://sodipodi.sourceforge.net/DTD/sodipodi-0.dtd"
   xmlns:inkscape="http://www.inkscape.org/namespaces/inkscape"
   width="500mm"
   height="500mm"
   viewBox="0 0 500 500"
   version="1.1"
   id="svg4538"
   inkscape:version="0.92.1 r15371"
   sodipodi:docname="virginia.svg">
  <defs
     id="defs4532" />
  <sodipodi:namedview
     id="base"
     pagecolor="#ffffff"
     bordercolor="#666666"
     borderopacity="1.0"
     inkscape:pageopacity="0.0"
     inkscape:pageshadow="2"
     inkscape:zoom="0.24748737"
     inkscape:cx="674.92913"
     inkscape:cy="871.99539"
     inkscape:document-units="mm"
     inkscape:current-layer="layer1"
     showgrid="false"
     inkscape:window-width="1366"
     inkscape:window-height="715"
     inkscape:window-x="-8"
     inkscape:window-y="-8"
     inkscape:window-maximized="1" />
  <metadata
     id="metadata4535">
    <rdf:RDF>
      <cc:Work
         rdf:about="">
        <dc:format>image/svg+xml</dc:format>
        <dc:type
           rdf:resource="http://purl.org/dc/dcmitype/StillImage" />
        <dc:title />
      </cc:Work>
    </rdf:RDF>
  </metadata>
  <g
     inkscape:label="Layer 1"
     inkscape:groupmode="layer"
     id="layer1"
     transform="translate(0,203)">
    <path
       style="fill:#630031;fill-opacity:1;stroke-width:0.99999994"
       d="m 5.2662768,27.922651 c 1.01004,-0.78156 1.63224,-1.05817 3.58773,-1.59502 1.3011802,-0.35723 3.4252402,-0.98637 4.7201402,-1.3981 1.29489,-0.41174 2.80654,-0.8661 3.35923,-1.00968 0.88168,-0.22906 1.06948,-0.37801 1.5319,-1.21509 0.28987,-0.52473 0.61002,-1.14613 0.71143,-1.38091 0.11401,-0.26388 1.39805,-1.05622 3.36293,-2.07515 1.74819,-0.90654 3.24394,-1.72807 3.32391,-1.82561 0.08,-0.0975 0.31136,-0.76835 0.51422,-1.4907 0.45411,-1.61697 1.07574,-2.28637 2.92375,-3.1484 0.74378,-0.34695 1.42574,-0.6468 1.51549,-0.66634 0.0897,-0.0195 0.37717,-0.85439 0.63871,-1.85521 l 0.47553,-1.8196801 2.16984,-1.26845 c 1.19341,-0.69765 2.4216,-1.43704 2.72931,-1.6431 0.3077,-0.20606 1.24892,-0.83562 2.09159,-1.39903 0.84267,-0.5634 2.20412,-1.48767 3.02545,-2.05393 0.82133,-0.56626 1.94149,-1.3269899 2.48922,-1.6905099 0.54774,-0.36351 2.6697,-1.79825 4.71547,-3.1883 3.58289,-2.43449 3.16252,-2.29963 4.39407,-3.79159 0.30779,-0.37287 0.246,-1.1748 0.72231,-1.25783 0.42068,-0.0733 0.88339,0.41278 0.97618,0.82959 0.12439,0.55876 -0.4653,1.04625 -0.71327,1.56219 -0.21736,0.45223 -0.73126,0.84458 -0.6787,1.34357 0.0464,0.43977 0.83172,1.0335 0.83172,1.0335 3.59846,4.4715099 3.30453,4.1921899 5.48951,5.2164999 1.11233,0.52146 2.54279,1.19389 3.1788,1.4943 0.63602,0.3004 1.81963,0.72112 2.63028,0.93492 1.43544,0.37858 1.49238,0.37687 2.18269,-0.0658 0.38985,-0.24997 1.26253,-0.77077 1.93929,-1.15731 1.1303,-0.64559 1.25277,-0.78347 1.50449,-1.69377 0.28682,-1.0372599 0.39335,-1.1290799 2.23386,-1.9254799 l 0.79191,-0.34268 1.37963,1.53147 c 2.09167,2.3218499 1.99097,2.2593999 3.32215,2.0603799 2.41237,-0.36066 9.319692,-1.91876 9.519682,-2.1473899 0.0832,-0.0951 0.49912,-1.17693 0.92427,-2.40405 l 0.77301,-2.23115 0.62371,0.0835 c 0.39988,0.0535 0.8452,0.33078 1.24092,0.77258 0.33947,0.37899 0.71167,0.70546 0.82713,0.72551 0.11545,0.0201 1.62491,-0.92289 3.35436,-2.0954 1.729442,-1.17251 3.261802,-2.12001 3.405241,-2.10554 0.14343,0.0146 0.59168,0.255 0.99609,0.53456 0.40441,0.27957 0.81703,0.51924 0.91694,0.53262 0.18203,0.0244 1.10048,-0.88421 4.24653,-4.20093 l 1.68591,-1.77737 -0.36488,-1.19548 c -0.34862,-1.14222 -0.3447,-1.29783 0.0879,-3.4927 l 0.45279,-2.29723 3.28015,-4.91396 c 2.55495,-3.82757 3.46476,-5.36495 4.11522,-6.95381 0.45929,-1.12191 1.14131,-2.73655 1.51561,-3.58809 0.37429,-0.85152 1.10625,-2.5978 1.62658,-3.88059 0.85467,-2.10708 5.24157,-12.70004 5.74899,-13.882 0.14902,-0.34712 0.4179,-0.50837 0.94855,-0.56883 0.69522,-0.0793 0.84139,0.007 2.38726,1.41416 1.1922,1.08494 1.71267,1.71431 1.88568,2.2803 0.13143,0.42997 0.57011,1.28059 0.97483,1.89028 l 0.73585,1.1085 1.80379,-0.0263 c 2.1182,-0.031 2.12799,-0.037 4.20783,-2.62825 1.37326,-1.71093 1.5295,-2.01257 3.25694,-6.28771 0.99797,-2.4698 2.02598,-4.74183 2.28448,-5.04894 0.25849,-0.30709 0.81186,-1.036095 1.22969,-1.620005 0.41783,-0.58389 0.84187,-1.09837 0.94229,-1.14328 0.10042,-0.0448 0.85868,0.32654 1.685,0.82546 0.82633,0.4989 1.55213,0.91374 1.61291,0.92187 0.0608,0.008 0.8359,-1.1099 1.72254,-2.48454 l 1.61208,-2.49934 1.28041,-0.34085 c 1.10064,-0.29301 1.46127,-0.52369 2.56868,-1.64313 1.07023,-1.08185 1.48569,-1.71273 2.45473,-3.72755 0.82667,-1.71876 1.34107,-2.5485 1.76582,-2.84825 0.32965,-0.23266 0.65368,-0.41572 0.72009,-0.40683 0.17141,0.023 0.71672,-0.88288 0.76971,-1.27857 0.0244,-0.18249 -0.14658,-0.59329 -0.38003,-0.9129 l -0.42446,-0.58109 0.69277,-3.84979 c 0.74433,-4.13635 0.89003,-4.49081 2.24438,-5.4599 l 0.56043,-0.40101 2.00008,1.65164 c 4.3676,3.60668 7.04453,5.85164 8.5968,7.20958 0.5875,0.51395 1.13992,0.94405 1.2276,0.95579 0.0876,0.0118 0.36954,0.23753 0.62635,0.50176 0.25682,0.26423 0.94384,0.71936 1.5267,1.01138 l 1.05977,0.53098 0.42063,-0.40885 c 0.26504,-0.2576 0.78423,-1.52888 1.40357,-3.43667 1.40741,-4.33535 1.18498,-4.01403 2.6896,-3.88546 1.01592,0.0868 1.70652,0.31568 3.44976,1.14322 3.0615,1.45333 2.98368,1.32166 1.76082,2.9789 -0.55751,0.75557 -1.01929,1.41586 -1.02619,1.46737 -0.007,0.0515 0.56534,0.93099 1.27163,1.95449 l 1.28416,1.86088 3.05567,0.5447 3.05565,0.54471 1.12228,1.56612 c 0.94944,1.32492 1.31377,1.66209 2.3656,2.18926 2.26008,1.13274 2.41268,1.26816 3.3912,3.00903 0.91101,1.62079 0.93678,1.71684 0.68959,2.5702 -0.1758,0.60694 -1.01618,1.86347 -2.66493,3.984675 -2.96623,3.81617 -5.19615,7.86131 -5.438,9.8647 -0.14629,1.21168 -0.15328,3.08211 -0.0122,3.26678 0.0413,0.054 1.06148,0.29085 2.26708,0.52624 l 2.19201,0.42796 1.96513,-0.90259 c 1.08083,-0.49642 2.03354,-0.93345 2.11715,-0.97116 0.0836,-0.0377 0.7382,0.89997 1.45466,2.08373 1.31725,2.17642 1.89888,2.72952 3.47326,3.30299 0.34229,0.12468 1.24546,0.8521 2.00705,1.6165 1.7297,1.73607 2.14134,1.8988 3.55473,1.40531 1.61951,-0.56545 2.06801,-0.42365 4.61949,1.46044 1.24334,0.9181 2.71193,2.00206 3.2636,2.4088 0.55166,0.40674 1.96956,1.18069 3.1509,1.71987 l 2.14787,0.98034 1.24231,1.75385 c 1.15511,1.63072 1.2278,1.80226 1.03532,2.44336 -0.14786,0.49249 -0.49922,0.88742 -1.22975,1.38218 l -1.02278,0.69267 0.1544,2.23728 c 0.0849,1.23051 0.18327,2.35872 0.21855,2.50716 0.0372,0.15627 -0.49811,0.56158 -1.2715,0.96284 -0.92401,0.4794 -1.35335,0.82536 -1.39314,1.12251 -0.0581,0.43406 0.32821,0.72455 3.75732,2.82511 l 1.076,0.65912 0.6438,2.18356 c 0.74847,2.53853 0.7279,3.20167 -0.11942,3.84886 -0.69784,0.53304 -0.97935,0.51681 -3.05545,-0.17621 -0.84559,-0.28226 -1.59554,-0.521 -1.66656,-0.53053 -0.071,-0.009 -0.3302,0.33905 -0.57598,0.77462 l -0.44684,0.79192 0.74123,0.98951 c 0.51222,0.68378 0.85736,0.96908 1.11706,0.92336 0.32241,-0.0567 0.35895,0.0599 0.257,0.82144 -0.11403,0.85157 -0.15074,0.8926 -0.90382,1.01094 -0.43173,0.0679 -1.20066,0.12875 -1.70871,0.13537 -1.5706,0.0205 -1.94957,0.72545 -0.88693,1.65 0.54709,0.476 1.05614,0.67678 2.48168,0.97886 1.05068,0.22265 2.44123,0.69107 3.35775,1.1311 1.5497,0.74402 1.56819,0.76202 1.97164,1.9186699 0.39711,1.13847 0.39667,1.17508 -0.0172,1.46784 -0.23345,0.16515 -1.22269,0.86566 -2.19828,1.5567 l -1.77383,1.25645 -1.22596,-0.27866 c -0.6743,-0.15325 -2.04891,-0.67206 -3.0547,-1.15288 -1.00582,-0.48083 -1.85181,-0.87733 -1.88,-0.8811 -0.0282,-0.004 -0.0983,0.3444 -0.1558,0.77373 -0.12239,0.91404 -0.0577,0.99319 1.63622,2.00198 0.80652,0.48031 1.75545,1.30366 2.53459,2.19917 l 1.24541,1.4314 1.58203,-0.3063 c 1.12248,-0.21732 2.12701,-0.61334 3.45812,-1.36333 l 1.87612,-1.05704 4.08473,0.54693 c 4.03135,0.53979 4.08702,0.55343 4.2619,1.03173 0.0974,0.26663 0.63284,2.8740201 1.1898,5.7941901 l 1.01263,5.3094 -1.67605,1.10798 c -0.92185,0.60939 -1.80273,1.09101 -1.95755,1.07027 -0.22174,-0.0297 -0.26028,0.10623 -0.18166,0.64032 0.0549,0.3729 0.0911,0.74305 0.0804,0.82256 -0.0241,0.17996 -0.94609,0.28336 -3.84882,0.43166 -1.94015,0.0991 -7.26737,0.40161 -15.17698,0.86176 -1.07912,0.0628 -2.84349,0.15462 -3.92081,0.20413 -1.07733,0.0495 -4.00411,0.21405 -6.50393,0.36567 -2.49984,0.15162 -6.49667,0.38781 -8.88183,0.52485 -2.38518,0.13703 -5.77734,0.33386 -7.53814,0.43739 -1.76081,0.10352 -3.52387,0.18568 -3.91793,0.18258 -0.39405,-0.003 -0.85903,0.0261 -1.03328,0.0649 -0.17425,0.0388 -1.15202,0.10983 -2.1728,0.1579 -1.0208,0.0481 -2.5056,0.11811 -3.29956,0.15567 -0.79397,0.0375 -2.37462,0.1347 -3.51255,0.2159 -1.13793,0.0812 -4.06621,0.25704 -6.50729,0.39076 -2.44109,0.13373 -6.2972,0.35211 -8.56915,0.48531 -4.21295,0.24698 -10.50123,0.46298 -16.36641,0.56219 -1.07313,0.0182 -3.34046,0.0785 -5.03848,0.1341 -2.87362,0.0941 -5.95462,0.17722 -14.19073,0.38282 -1.80934,0.0452 -4.72418,0.1206 -6.47742,0.16764 -1.75324,0.0471 -4.34448,0.11608 -5.7583,0.15346 -1.41383,0.0374 -3.68132,0.099 -5.03888,0.13692 -4.85135,0.13558 -12.63161,0.33234 -17.888591,0.45239 -8.09266,0.18484 -10.479272,0.25422 -12.960392,0.37677 -1.24803,0.0617 -3.3138,-0.006 -4.59062,-0.14984 -1.27684,-0.1441 -2.7421,-0.21994 -3.25616,-0.16862 -0.51404,0.0513 -2.17701,0.0746 -3.69548,0.0517 -1.51846,-0.0229 -3.48959,-0.0505 -4.38027,-0.0616 -0.89067,-0.0109 -1.6443,-0.0526 -1.67472,-0.0924 -0.0305,-0.0398 0.0731,-0.36575 0.22991,-0.72428 0.15686,-0.35855 0.25008,-0.69787 0.20715,-0.75408 -0.0429,-0.0562 -0.99054,-0.0264 -2.10579,0.0661 -1.11525,0.0926 -2.53883,0.19764 -3.1635,0.23339 -0.9753,0.0558 -2.05546,0.16383 -3.06359,0.30634 -0.14359,0.0203 -0.27831,0.16556 -0.29937,0.32279 -0.022,0.16439 -0.32297,0.29825 -0.70817,0.31499 -0.82209,0.0358 -10.24088,-0.0799 -13.55364,-0.16643 -1.34783,-0.0353 -6.76423,-0.077 -9.72365,-0.075 -6.53972,0.005 -27.0201702,-0.21349 -27.6178402,-0.29373 -0.45629,-0.0613 -0.39769,-0.14299 0.72559,-1.01216 z"
       id="path6323"
       inkscape:connector-curvature="0"
       sodipodi:nodetypes="ccccsccccccccccccccaaaaaccccccsccsccsccscccccscccccccsccccccccscccccccccccccccsccsccccccscsccccccccccccscccccccccccccccccccccccccccccccccccccccccccsccccccsccccccccccccscscccscccccccccccscccccccccccccc" />
    <path
       style="color:#000000;font-style:normal;font-variant:normal;font-weight:normal;font-stretch:normal;font-size:medium;line-height:normal;font-family:sans-serif;font-variant-ligatures:normal;font-variant-position:normal;font-variant-caps:normal;font-variant-numeric:normal;font-variant-alternates:normal;font-feature-settings:normal;text-indent:0;text-align:start;text-decoration:none;text-decoration-line:none;text-decoration-style:solid;text-decoration-color:#000000;letter-spacing:normal;word-spacing:normal;text-transform:none;writing-mode:lr-tb;direction:ltr;text-orientation:mixed;dominant-baseline:auto;baseline-shift:baseline;text-anchor:start;white-space:normal;shape-padding:0;clip-rule:nonzero;display:inline;overflow:visible;visibility:visible;opacity:1;isolation:auto;mix-blend-mode:normal;color-interpolation:sRGB;color-interpolation-filters:linearRGB;solid-color:#000000;solid-opacity:1;vector-effect:none;fill:#cf4420;fill-opacity:1;fill-rule:nonzero;stroke:none;stroke-width:7;stroke-linecap:butt;stroke-linejoin:round;stroke-miterlimit:4;stroke-dasharray:none;stroke-dashoffset:0;stroke-opacity:1;color-rendering:auto;image-rendering:auto;shape-rendering:auto;text-rendering:auto;enable-background:accumulate"
       d="m 411.77396,-90.362485 a 3.50035,3.50035 0 0 0 -2.00195,0.6543 l -0.56055,0.40039 c -0.7931,0.567497 -2.00442,1.724717 -2.55274,3.058595 -0.54831,1.333878 -0.72348,2.538705 -1.0996,4.628906 l -0.69336,3.84961 a 3.50035,3.50035 0 0 0 0.0937,1.617187 c -1.07874,1.018275 -1.53021,2.008994 -2.25391,3.513672 -0.92337,1.919861 -0.87878,1.861084 -1.78906,2.78125 -1.0093,1.020262 -0.13747,0.498234 -0.98047,0.722656 l -1.28125,0.341797 a 3.50035,3.50035 0 0 0 -2.04102,1.484375 l -1.46094,2.265625 c -0.0384,-0.01926 -0.0831,-0.04777 -0.12109,-0.06641 -0.21777,-0.106673 -0.41676,-0.199952 -0.70508,-0.306641 -0.14415,-0.05334 -0.29951,-0.114615 -0.60351,-0.179687 -0.304,-0.06507 -0.6442,-0.481326 -2.22656,0.224609 a 3.50035,3.50035 0 0 0 -0.002,0.002 c -1.46056,0.653196 -1.09101,0.74104 -1.24219,0.900391 -0.15117,0.159351 -0.26361,0.292878 -0.38281,0.4375 -0.23839,0.289244 -0.48444,0.610896 -0.73633,0.96289 -0.36905,0.51575 -0.97464,1.300289 -1.06054,1.402344 a 3.50035,3.50035 0 0 0 0,0.002 c -0.6978,0.829011 -0.59021,0.885835 -0.77344,1.25 -0.18323,0.364166 -0.3815,0.787065 -0.60156,1.273438 -0.44014,0.972746 -0.96085,2.1905 -1.47657,3.466797 -1.7214,4.260194 -1.4135,3.752816 -2.74218,5.408203 -0.91844,1.144276 -1.20386,1.379967 -1.07227,1.322265 -0.055,-0.0015 -0.13695,-0.005 -0.29687,-0.002 -0.12775,-0.262212 -0.34028,-0.708375 -0.27539,-0.496093 -0.53461,-1.748935 -1.56146,-2.648555 -2.87696,-3.845704 -0.7872,-0.716569 -1.19277,-1.158508 -2.08593,-1.6875 -0.89255,-0.52862 -2.53443,-0.673888 -3.05274,-0.615234 h -0.002 c -0.54678,0.06238 -1.2448,0.187747 -2.01953,0.652344 -0.77541,0.465004 -1.45002,1.3175 -1.74805,2.011719 -0.61309,1.428106 -4.88848,11.760699 -5.77539,13.947265 -0.50646,1.248591 -1.24652,3.012442 -1.58789,3.789063 -0.3999,0.909786 -1.07731,2.513369 -1.55078,3.669922 -0.51683,1.262446 -1.25942,2.549198 -3.78711,6.335937 l -3.2793,4.914063 a 3.50035,3.50035 0 0 0 -0.52344,1.267578 l -0.45312,2.296875 c -0.21895,1.110864 -0.37873,1.790237 -0.40235,2.728515 -0.0236,0.938278 0.21206,1.845834 0.40039,2.462891 l -0.23046,-0.755859 -0.28125,0.296875 c -1.11376,1.174175 -1.64921,1.719225 -2.2461,2.330078 -0.18049,-0.08744 -0.30623,-0.196923 -1.01953,-0.269532 a 3.50035,3.50035 0 0 0 -0.004,0 c -1.11255,-0.112231 -1.27558,0.09596 -1.48829,0.166016 -0.2127,0.07006 -0.3268,0.122104 -0.42773,0.167969 -0.20186,0.09173 -0.33181,0.162664 -0.47266,0.240234 -0.28168,0.15514 -0.57351,0.329701 -0.91211,0.539063 -0.67719,0.418723 -1.52024,0.968167 -2.41992,1.578125 -0.41177,0.279166 -0.70635,0.46354 -1.07226,0.703125 -0.52847,-0.31762 -1.14064,-0.573213 -1.92188,-0.677735 l -0.62305,-0.08398 a 3.50035,3.50035 0 0 0 -3.77148,2.324219 l -0.77344,2.230468 c -0.0882,0.254489 -0.15853,0.432483 -0.24218,0.664063 -0.60748,0.150813 -1.27426,0.315203 -2.07618,0.496094 -1.80464,0.407078 -3.70047,0.782269 -4.80273,0.96875 -0.16142,-0.17231 -0.0845,-0.108283 -0.73828,-0.833985 l -1.37891,-1.53125 a 3.50035,3.50035 0 0 0 -3.99023,-0.871093 l -0.79297,0.34375 c -0.94181,0.407401 -1.61717,0.591831 -2.59375,1.433593 -0.81879,0.705752 -1.2307,1.677416 -1.45899,2.351563 -0.0567,0.0357 0.0498,-0.04044 -0.0312,0.0059 -0.51471,0.293983 -1.00413,0.59433 -1.48047,0.8847659 -0.0218,-0.00553 0.011,1.348e-4 -0.0117,-0.00586 -0.52817,-0.1392986 -1.76842,-0.5916259 -2.0293,-0.7148439 -0.64476,-0.304544 -2.07232,-0.977204 -3.1875,-1.5 -1.14859,-0.538452 -0.99956,-0.408487 -1.28906,-0.683594 -0.22659,-0.215315 -1.20991,-1.420492 -2.31641,-2.783203 0.35335,-0.580072 0.94964,-1.742072 0.60742,-3.279297 -0.25183,-1.131217 -0.72518,-1.786633 -1.41992,-2.421875 -0.69474,-0.635242 -1.8612,-1.394183 -3.57422,-1.095703 -1.07068,0.186641 -2.07882,0.978754 -2.51953,1.597656 -0.44071,0.618902 -0.55443,1.046127 -0.63672,1.302735 -0.61985,0.83818 -0.3691,0.69191 -3.32617,2.701171 -2.0412,1.386946 -4.20113,2.847782 -4.68359,3.167969 -0.59035,0.391807 -1.70137,1.145718 -2.54102,1.72461 -0.79855,0.550551 -2.16401,1.478854 -2.98437,2.0273436 -0.84309,0.5636859 -1.78277,1.1921326 -2.09375,1.4003907 0.0537,-0.035937 -1.3804,0.8473907 -2.54688,1.5292969 l -2.16992,1.2675781 a 3.50035,3.50035 0 0 0 -1.62109,2.1367187 l -0.47461,1.8203125 c -0.0151,0.05767 -0.0257,0.084357 -0.041,0.140625 -0.0739,0.034152 -0.1313,0.058423 -0.20703,0.09375 -1.1023,0.5141805 -2.15736,1.1010285 -3.06836,2.0820315 -0.911,0.981002 -1.43868,2.20333 -1.74414,3.291015 -0.007,0.02315 -0.0129,0.03744 -0.0195,0.06055 -0.55672,0.304116 -1.26644,0.683913 -2.06055,1.095703 -1.03498,0.536709 -1.90286,1.016868 -2.60352,1.449219 -0.35032,0.216176 -0.65391,0.413427 -0.97265,0.65625 -0.31874,0.242824 -0.6644,0.01309 -1.38867,1.689453 0.0484,-0.111936 -0.19759,0.370356 -0.38672,0.738282 -0.81743,0.226568 -1.90829,0.552292 -3.06446,0.919921 -1.22279,0.388804 -3.35871,1.020497 -4.58593,1.357422 -1.72889,0.474639 -3.0004,1.064138 -4.11524,1.792969 a 3.50035,3.50035 0 0 0 -0.6875,0.410156 c -0.58031,0.449035 -0.73891,0.254805 -1.6582,1.537109 -0.22982,0.320576 -0.64494,0.846656 -0.68945,1.988281 -0.0445,1.141626 0.8058,2.542577 1.4707,3.025391 1.32981,0.965629 1.60258,0.666966 1.82812,0.697266 0.63863,0.08574 0.48023,0.04012 0.6875,0.04687 0.20728,0.0068 0.46892,0.01255 0.79102,0.01953 0.64421,0.01395 1.5246,0.02901 2.58203,0.04492 2.11486,0.03182 4.93752,0.06756 7.94727,0.09961 6.01949,0.0641 12.76649,0.115813 16.07812,0.113282 2.92366,-0.002 8.45429,0.04346 9.62891,0.07422 1.70223,0.04446 4.87889,0.09548 7.75976,0.13086 1.44044,0.01769 2.8028,0.03183 3.86329,0.03906 1.06048,0.0072 1.59622,0.01929 2.17382,-0.0059 0.55738,-0.02422 1.09024,-0.101727 1.76172,-0.400391 0.15005,-0.06674 0.37635,-0.256917 0.57227,-0.367187 0.6082,-0.06772 1.22826,-0.145873 1.78515,-0.177735 0.416,-0.02381 1.204,-0.08808 1.9004,-0.140625 0.062,0.06714 0.45137,0.488767 0.62695,0.621094 0.18932,0.142681 0.3406,0.231759 0.46679,0.298828 0.25239,0.134138 0.41033,0.186485 0.53516,0.228516 0.24966,0.08406 0.37134,0.105062 0.47266,0.125 0.20263,0.03988 0.30026,0.04964 0.40039,0.06055 0.20025,0.02181 0.36442,0.03257 0.55273,0.04297 0.37663,0.0208 0.82073,0.03309 1.3086,0.03906 0.88273,0.011 2.8559,0.03965 4.37109,0.0625 1.59279,0.02402 2.94365,0.04661 4.0957,-0.06836 -0.47926,0.04785 1.39931,0.03808 2.51563,0.164062 a 3.50035,3.50035 0 0 0 0.002,0 c 1.57274,0.177176 3.58992,0.245308 5.1543,0.167969 2.43567,-0.120306 4.77881,-0.190258 12.86719,-0.375 5.26487,-0.12023 13.04486,-0.317269 17.90625,-0.453125 1.35457,-0.03784 3.62399,-0.09939 5.03515,-0.136719 1.4146,-0.0374 4.00569,-0.105221 5.75977,-0.152344 1.74951,-0.04694 4.66469,-0.122852 6.4707,-0.167969 8.23787,-0.205643 11.32877,-0.28824 14.2168,-0.382812 1.67889,-0.05497 3.95872,-0.115418 4.98437,-0.132812 5.90878,-0.09995 12.21466,-0.316449 16.51172,-0.56836 2.26409,-0.132739 6.12038,-0.351017 8.55469,-0.484375 2.45576,-0.134524 5.36109,-0.308523 6.56641,-0.394531 1.1062,-0.07894 2.69979,-0.176556 3.42773,-0.210938 0.79328,-0.03753 2.27813,-0.108155 3.29883,-0.15625 0.53885,-0.02538 1.06193,-0.05649 1.49414,-0.08789 0.43221,-0.03141 0.27489,0.07434 1.27539,-0.148438 -0.75272,0.167607 0.0453,0.01605 0.24609,0.01758 0.96258,0.0075 2.36209,-0.08236 4.15039,-0.1875 1.75735,-0.103327 5.14992,-0.300579 7.53321,-0.4375 2.39153,-0.137406 6.38696,-0.37342 8.89257,-0.52539 2.48779,-0.15089 5.44073,-0.316765 6.45313,-0.363282 1.1005,-0.05058 2.86041,-0.142871 3.96289,-0.207031 7.90744,-0.460023 13.24862,-0.762135 15.15234,-0.859375 1.47391,-0.0753 2.44833,-0.134736 3.21485,-0.220703 0.38325,-0.04298 0.69205,-0.07524 1.18359,-0.210937 0.24577,-0.06785 0.54071,-0.137041 1.04688,-0.447266 0.45899,-0.281315 1.25522,-1.050468 1.55664,-2.263672 0.22092,-0.136071 0.4251,-0.24564 0.65625,-0.398437 l 1.67773,-1.107422 a 3.50035,3.50035 0 0 0 1.50781,-3.576172 l -1.01367,-5.308593 c -0.28123,-1.474526 -0.55711,-2.868933 -0.77734,-3.9414066 -0.11012,-0.536237 -0.2059,-0.990054 -0.28516,-1.3476563 -0.0793,-0.3576023 0.0232,-0.2280129 -0.27734,-1.0507812 -0.0625,-0.1707832 -0.44071,-1.1274701 -1.22656,-1.7792969 -0.78586,-0.6518268 -1.43564,-0.7963353 -1.92188,-0.9140625 -0.97247,-0.2354545 -1.92008,-0.3353404 -3.9375,-0.6054688 l -3.2207,-0.4335937 c 0.15971,-0.4397277 0.43716,-0.8395149 0.4414,-1.2011719 0.0171,-1.4609671 -0.2877,-1.6635111 -0.49023,-2.2441411 -0.20534,-0.588693 -0.51168,-1.586863 -1.41992,-2.470703 -0.90824,-0.88384 -1.56192,-1.076746 -2.3418,-1.451172 -0.17279,-0.08296 -0.37859,-0.109554 -0.55664,-0.1875 0.13691,-0.47712 0.13681,-0.852358 0.16992,-1.099609 0.0181,-0.135055 0.0561,-0.276394 0.0937,-0.40625 0.91788,-0.218913 1.81028,-0.579969 2.19141,-0.871094 0.87107,-0.665329 1.98724,-2.468361 2.03125,-3.886719 0.044,-1.418358 -0.27961,-2.375517 -0.67969,-3.732422 l -0.64258,-2.183594 a 3.50035,3.50035 0 0 0 -1.52929,-1.99414 l -1.03516,-0.634766 c 0.39766,-0.453973 0.83068,-1.129613 0.44336,-2.759765 0.1372,0.577273 0.0488,0.267799 0.0371,0.158203 -0.0117,-0.109596 -0.0283,-0.28893 -0.0469,-0.501953 -0.0371,-0.426048 -0.0819,-0.999774 -0.12304,-1.595703 l -0.0156,-0.228516 -0.64453,0.4375 c 1.01511,-0.687496 2.18036,-1.811951 2.61914,-3.273438 0.15586,-0.519109 0.27185,-2.249219 -0.14062,-3.222656 -0.41248,-0.973436 -0.79963,-1.415661 -1.39063,-2.25 l -1.24219,-1.753906 a 3.50035,3.50035 0 0 0 -1.40234,-1.16211 l -2.14844,-0.980468 c -0.99278,-0.453118 -2.5744,-1.386256 -2.52734,-1.351563 -0.54906,-0.404812 -2.01884,-1.49044 -3.26172,-2.408203 -1.32082,-0.975334 -2.19008,-1.697747 -3.68359,-2.169922 -1.29431,-0.409192 -2.65677,-0.178074 -3.66211,0.109375 -0.0778,-0.0724 0.0624,0.03301 -0.42774,-0.458984 -0.47725,-0.479012 -0.96715,-0.919571 -1.44531,-1.304688 -0.47816,-0.385116 -0.54605,-0.658168 -1.84375,-1.130859 -0.57742,-0.210327 -0.51681,-0.199565 -0.61914,-0.296875 -0.10233,-0.09731 -0.44817,-0.523949 -1.05664,-1.529297 -0.39076,-0.645619 -0.76085,-1.220132 -1.08985,-1.691406 -0.1645,-0.235637 -0.30682,-0.43636 -0.50976,-0.679688 -0.10147,-0.121663 -0.19584,-0.244288 -0.46289,-0.482422 -0.13353,-0.119066 -0.28933,-0.274458 -0.7207,-0.503906 -0.43138,-0.229447 -1.47106,-0.84252 -3.10547,-0.105468 -0.2387,0.107656 -1.05696,0.485596 -2.13868,0.982421 l -0.9414,0.431641 -0.53711,-0.105469 c 0.001,-0.01159 6.1e-4,-0.03379 0.002,-0.04492 0.001,-0.0093 0.43576,-1.438049 1.28711,-2.982421 0.85135,-1.544373 2.06327,-3.383783 3.43945,-5.154297 0.85305,-1.097496 1.51439,-1.988897 2.03125,-2.761719 0.51687,-0.772822 0.90946,-1.281465 1.23243,-2.396484 0.1424,-0.491608 0.3983,-1.794756 0.10742,-2.878907 -0.29088,-1.084151 -0.64436,-1.557009 -1.10742,-2.380859 -0.50835,-0.904389 -1.01947,-1.81499 -1.94336,-2.634766 -0.92389,-0.819776 -1.77987,-1.209844 -2.93164,-1.787109 -0.80683,-0.404377 -0.22163,0.109246 -1.08789,-1.099609 l -1.12305,-1.566407 a 3.50035,3.50035 0 0 0 -2.23039,-1.406294 l -3.05664,-0.544922 -1.61719,-0.289062 -0.39062,-0.566406 c 0.17556,-0.232914 0.3321,-0.401107 0.56054,-0.824219 0.19058,-0.352977 0.4365,-0.855215 0.51758,-1.621094 0.0811,-0.765879 -0.13639,-1.763029 -0.52929,-2.427734 -0.78582,-1.329411 -1.52755,-1.558696 -2.09961,-1.867188 -0.57207,-0.308492 -1.14833,-0.570718 -1.90039,-0.927734 -1.8409,-0.873896 -3.2505,-1.348976 -4.65235,-1.46875 -0.24564,-0.02099 -0.51645,-0.142682 -1.47461,-0.05469 -0.95816,0.08799 -2.52639,1.017621 -3.08203,1.820313 -1.07785,1.557093 -1.08447,2.38029 -1.7168,4.378906 -0.0162,-0.01221 -0.007,-0.0057 -0.0273,-0.02148 -0.1497,-0.116551 -0.39774,-0.321463 -0.64648,-0.539063 -1.61434,-1.412236 -4.29781,-3.659799 -8.67383,-7.273437 l -2,-1.652341 a 3.50035,3.50035 0 0 0 -2.26172,-0.80079 z m 1.50976,6.748051 -0.17187,0.123047 c 0.002,-0.0054 0.02,-0.09401 0.0215,-0.09766 0.0492,-0.119711 -0.41085,0.376204 0.15039,-0.02539 z m -0.58203,2.044921 c 3.40618,2.820931 6.10462,5.071276 7.39844,6.203126 0.33876,0.29635 0.65977,0.563047 0.95508,0.792968 0.14765,0.114961 0.28365,0.218282 0.45898,0.337891 0.0877,0.0598 0.17931,0.123026 0.34571,0.216797 0.003,0.0018 0.0222,0.0078 0.0254,0.0098 0.92433,0.913516 1.48192,1.179554 2.33203,1.605469 l 1.06054,0.53125 a 3.50035,3.50035 0 0 0 4.00586,-0.61914 l 0.42188,-0.408204 c 0.68849,-0.669161 0.74457,-0.95296 0.91406,-1.28125 0.16949,-0.328289 0.30924,-0.648763 0.45508,-1.005859 0.29168,-0.714191 0.59597,-1.568199 0.92383,-2.578125 0.26894,-0.828439 0.13321,-0.521563 0.32422,-1.021484 0.0301,0.01194 0.074,0.02705 0.10742,0.04102 -0.007,0.01357 -0.008,0.01394 -0.0156,0.0293 -0.0644,0.129768 -0.20155,0.07702 -0.33984,1.109375 -9.6e-4,0.01149 -0.0341,0.422289 -0.0293,0.576172 0.005,0.155964 0.0182,0.279696 0.0332,0.384766 0.0299,0.210138 0.0651,0.345877 0.0957,0.455078 0.0613,0.218402 0.10746,0.329279 0.14453,0.417969 0.0741,0.177379 0.1159,0.253257 0.15234,0.322265 0.0729,0.138015 0.12123,0.214801 0.17188,0.298828 0.1013,0.168055 0.20598,0.334528 0.33398,0.53125 0.256,0.393445 0.58873,0.8862 0.95704,1.419922 l 1.28515,1.861328 a 3.50035,3.50035 0 0 0 2.26563,1.457031 l 3.05468,0.544922 1.6543,0.294922 0.29297,0.410156 c 1.03261,1.440985 2.34575,2.629334 3.64258,3.279297 1.1083,0.555475 1.45981,0.799289 1.42187,0.765625 -0.0379,-0.03366 0.0162,-0.0084 0.48633,0.828125 0.13153,0.234003 0.0562,0.07146 0.13281,0.22461 -0.0583,0.105514 0.007,-0.02149 -0.0801,0.109375 -0.35946,0.537479 -0.94453,1.335665 -1.74023,2.359375 -1.59005,2.045656 -2.97538,4.137225 -4.04101,6.070312 -1.06564,1.933088 -1.86669,3.527355 -2.10743,5.521485 -0.098,0.812019 -0.13579,1.654851 -0.13867,2.425781 -0.001,0.385465 0.005,0.739963 0.0332,1.111328 0.0143,0.185683 0.0293,0.369664 0.0781,0.636719 0.0489,0.267055 -0.17803,0.477595 0.70898,1.638672 0.8711,1.138967 1.11029,0.958498 1.30079,1.048828 0.19049,0.09033 0.28634,0.124304 0.37109,0.154297 0.1695,0.05998 0.2693,0.08636 0.37305,0.115234 0.20749,0.05775 0.40601,0.105695 0.64062,0.160156 0.46922,0.108924 1.05415,0.232999 1.69141,0.357422 l 2.1914,0.427735 a 3.50035,3.50035 0 0 0 2.13282,-0.253907 l 1.44921,-0.666015 c 0.57174,0.917058 1.09473,1.760929 1.85547,2.484375 0.9114,0.866713 2.04992,1.439591 3.04688,1.802734 -0.95541,-0.348011 -0.40174,-0.195004 -0.15235,0.0059 0.2494,0.200864 0.59262,0.505628 0.87696,0.791016 0.92424,0.927643 1.59638,1.734574 3.08789,2.324219 1.4851,0.587112 3.16181,0.239863 4.08398,-0.08008 0.0104,0.03122 0.34663,0.187225 1.40235,0.966797 1.24379,0.918437 2.71134,2.001488 3.26562,2.410156 1.15038,0.848173 2.40549,1.462648 3.77539,2.08789 l 1.28906,0.587891 0.40039,0.564453 -0.0254,0.01758 a 3.50035,3.50035 0 0 0 -1.52929,3.138672 l 0.15429,2.238281 c 0.0155,0.224475 0.031,0.396398 0.0469,0.609375 -0.27215,0.164618 -0.54874,0.295177 -0.83203,0.523438 -0.54832,0.441809 -1.42271,1.141104 -1.63867,2.753906 -0.089,0.664912 0.16609,2.037335 0.64648,2.75 0.48039,0.712665 0.89467,1.000814 1.29102,1.298828 0.63663,0.47869 1.62106,1.075769 2.77929,1.78711 -0.0705,-0.01291 0.0107,-0.01016 -0.14648,-0.03125 a 3.50035,3.50035 0 0 0 -0.0254,-0.002 c -1.53666,-0.194787 -2.07473,0.346976 -2.40625,0.566407 -0.33152,0.21943 -0.47424,0.366671 -0.5957,0.488281 -0.24294,0.24322 -0.35429,0.39496 -0.46876,0.548828 -0.22893,0.307737 -0.40815,0.592965 -0.59374,0.921875 l -0.44727,0.792969 a 3.50035,3.50035 0 0 0 -0.27344,2.80664 c -0.60434,0.321477 -1.23041,0.769098 -1.68945,1.623047 -0.64675,1.203154 -0.48964,2.741955 -0.0879,3.625 0.38294,0.841704 0.86625,1.320864 1.35156,1.75 -0.37345,0.01688 -0.77902,0.03509 -0.7793,0.03516 -4.6e-4,1.08e-4 -0.94873,0.376675 -0.94921,0.376953 -4.9e-4,2.77e-4 -0.43069,0.286745 -0.57618,0.416015 -0.14548,0.129271 -0.25242,0.245064 -0.33984,0.3476566 -0.3497,0.4103724 -0.4296,0.6221831 -0.50586,0.7832032 -0.15253,0.3220401 -0.17806,0.4411791 -0.21094,0.5527343 -0.0657,0.2231105 -0.0858,0.3379606 -0.11133,0.4648438 -0.0511,0.2537663 -0.0899,0.4987085 -0.12695,0.7753906 -0.0369,0.2752945 -0.11835,0.6652628 -0.0469,1.3730469 0.0715,0.7077841 0.46721,1.6889038 0.94336,2.2714844 0.95228,1.1651611 1.55326,1.3131616 2.41796,1.828125 0.33269,0.1981281 1.1328,0.8549269 1.68555,1.4902342 l 1.24414,1.431641 a 3.50035,3.50035 0 0 0 3.30664,1.138672 l 1.58203,-0.306641 c 1.51892,-0.294074 2.98164,-0.889001 4.50977,-1.75 l 0.85547,-0.482422 2.92383,0.392578 c 1.08824,0.145714 1.197,0.171783 1.73828,0.253907 0.20894,1.019764 0.47068,2.344535 0.74023,3.757812 l 0.57227,3.007813 c -0.27677,0.174691 -0.56993,0.359828 -0.74414,0.455078 -0.11889,0.065 -0.20713,0.104957 -0.16797,0.08789 0.0196,-0.0085 0.0646,-0.0322 0.22851,-0.08203 0.16392,-0.04983 0.31204,-0.250221 1.39258,-0.105469 -0.41684,-0.05583 -1.18601,-0.14124 -2.17187,0.355469 -0.64813,0.326545 -1.0962,0.892722 -1.42969,1.447265 -0.38265,0.02365 -0.48461,0.04047 -0.99219,0.06641 -1.97657,0.100961 -7.28939,0.401052 -15.20117,0.861328 -1.05576,0.06144 -2.82476,0.15468 -3.87891,0.203125 -1.14226,0.05248 -4.04283,0.214837 -6.55468,0.367187 -2.49407,0.15127 -6.49231,0.388718 -8.8711,0.525391 -2.38707,0.137139 -5.77871,0.333767 -7.54297,0.4375 -1.73247,0.101854 -3.85809,0.174409 -3.68359,0.175781 a 3.50035,3.50035 0 0 0 -0.002,0 c -0.58731,-0.0045 -0.7191,-0.09677 -1.82032,0.148438 0.82625,-0.183979 0.0937,-0.02387 -0.26171,0.002 -0.35544,0.02583 -0.83253,0.05348 -1.31446,0.07617 -1.0209,0.0481 -2.50614,0.118658 -3.30078,0.15625 -0.86,0.04062 -2.42604,0.137239 -3.5957,0.220703 -1.07054,0.07639 -4.02478,0.253803 -6.45117,0.386719 -2.44788,0.134101 -6.30222,0.352667 -8.58204,0.486328 -4.12884,0.242049 -10.39911,0.458168 -16.2207,0.556641 -1.12061,0.019 -3.3766,0.08049 -5.09375,0.136718 -2.85921,0.09363 -5.92971,0.175303 -14.16406,0.38086 -1.81267,0.04528 -4.72545,0.120828 -6.48242,0.167968 a 3.50035,3.50035 0 0 0 -0.002,0 c -1.75239,0.04708 -4.34281,0.116938 -5.75585,0.154297 -1.4165,0.03747 -3.68439,0.09872 -5.04493,0.136719 -4.84142,0.135302 -12.62062,0.331315 -17.86914,0.451172 -8.09694,0.184938 -10.52812,0.256065 -13.05469,0.380859 -0.93167,0.04606 -3.04448,-0.02231 -4.02539,-0.132812 -1.43736,-0.162216 -2.4887,-0.322362 -3.99609,-0.171875 0.12397,-0.01237 -1.85077,0.05498 -3.29492,0.0332 -0.9725,-0.01467 -1.86294,-0.0261 -2.80469,-0.03906 -0.0636,-0.0983 -0.002,-0.109589 -0.084,-0.216796 -6.7e-4,-8.79e-4 -0.47817,-0.523382 -0.67774,-0.673829 -0.19957,-0.150447 -0.36631,-0.245482 -0.50781,-0.318359 -0.283,-0.145753 -0.46984,-0.204222 -0.61719,-0.248047 -0.29469,-0.08765 -0.44165,-0.104377 -0.56445,-0.121094 -0.24559,-0.03343 -0.36687,-0.03504 -0.49024,-0.03906 -0.24672,-0.008 -0.45082,-0.0035 -0.68554,0.0039 -0.46945,0.01474 -1.02662,0.04722 -1.63477,0.09766 -1.08799,0.09034 -2.53715,0.19778 -3.07422,0.228516 -1.08482,0.06212 -2.24567,0.177379 -3.35351,0.333984 -0.59325,0.08387 -0.88977,0.390798 -1.30469,0.607422 -0.31689,0.0011 -0.50959,0.0027 -1.1875,-0.002 -1.04028,-0.0071 -2.3931,-0.02149 -3.82422,-0.03906 -2.86224,-0.03515 -6.05158,-0.08489 -7.66211,-0.126954 -1.52104,-0.03984 -6.82317,-0.08015 -9.81836,-0.07812 -2.3444,0.0018 -7.18794,-0.0423 -11.61718,-0.08203 0.37553,-0.440431 0.80108,-0.905649 0.99023,-1.248047 0.1577,-0.285473 0.27884,-0.553045 0.41406,-0.810547 0.0302,-0.01917 0.0252,-0.01847 0.0586,-0.03906 0.46108,-0.284521 1.22048,-0.709185 2.15039,-1.191406 0.89552,-0.464382 1.7239,-0.905764 2.36132,-1.25586 0.31872,-0.175047 0.58554,-0.32467 0.81446,-0.458984 0.11446,-0.06716 0.21644,-0.128009 0.3418,-0.208984 0.0627,-0.04049 0.1289,-0.08314 0.23632,-0.162109 0.10743,-0.07897 0.19298,-0.05431 0.66407,-0.628907 0.74008,-0.902571 0.54041,-0.873686 0.61718,-1.060547 0.0769,-0.187118 0.13609,-0.349991 0.19727,-0.527343 0.12235,-0.354705 0.24446,-0.752685 0.36328,-1.175782 0.14864,-0.529285 0.15942,-0.448427 0.13477,-0.421875 -0.0247,0.02655 0.15272,-0.15215 0.89843,-0.5 0.35057,-0.163529 0.69137,-0.317323 0.9336,-0.423828 0.12111,-0.05325 0.21853,-0.09471 0.26367,-0.113281 0.0451,-0.01857 0.4794,-0.07581 -0.41602,0.119141 1.17546,-0.256089 1.55133,-0.750346 1.80469,-1.015625 0.25354,-0.265458 0.35912,-0.434841 0.44531,-0.570313 0.17239,-0.270943 0.23362,-0.415033 0.29493,-0.550781 0.12261,-0.271496 0.19654,-0.474129 0.27539,-0.703125 0.15768,-0.457992 0.30909,-0.977217 0.45898,-1.550781 l 0.10937,-0.416016 0.91602,-0.535156 c 1.22034,-0.7133941 2.24303,-1.3078031 2.91211,-1.7558596 0.30442,-0.2038619 1.24563,-0.8353033 2.08789,-1.3984375 0.86497,-0.5783107 2.22425,-1.5000627 3.06836,-2.0820312 0.80301,-0.5536289 1.93239,-1.3210166 2.4375,-1.65625 0.61302,-0.4068332 2.69575,-1.8158299 4.74609,-3.2089847 0.52257,-0.355074 0.61376,-0.480069 1.01563,-0.769531 0.004,0.0032 0.006,0.0046 0.01,0.0078 1.60469,2.0004399 2.44701,3.1137594 3.4043,4.0234381 1.00939,0.959188 2.10423,1.4614075 3.14063,1.9472656 1.10948,0.5201236 2.54266,1.1939581 3.16992,1.4902344 1.01115,0.4775812 2.13929,0.8659954 3.23242,1.1542968 0.73001,0.1925316 1.20942,0.425524 2.36719,0.390625 1.15642,-0.034859 2.21433,-0.6481698 2.5957,-0.8925781 l 0.002,-0.00195 c 0.25283,-0.1620166 1.15968,-0.7072008 1.78516,-1.0644532 0.61106,-0.3490156 1.23286,-0.6390618 1.96289,-1.4609374 0.27078,-0.3048451 0.27118,-0.5515422 0.4375,-0.8671876 0.53546,0.6266767 0.96346,1.2432589 1.875,1.8085938 0.65683,0.4073622 1.69396,0.6911282 2.39258,0.6992188 0.69862,0.00809 1.04576,-0.08211 1.3457,-0.1269532 1.452,-0.2170808 3.74003,-0.6958195 5.8418,-1.1699218 1.05088,-0.2370512 2.03002,-0.4693206 2.80078,-0.6679688 0.38538,-0.099324 0.71307,-0.1879321 1.01758,-0.28125 0.15225,-0.046659 0.29286,-0.090828 0.49219,-0.1679688 0.0997,-0.03857 0.21116,-0.080566 0.39843,-0.1757812 0.18728,-0.095215 0.42014,-0.080649 1.08594,-0.8417969 0.61728,-0.7055701 0.4883,-0.7105405 0.55274,-0.8417969 0.0644,-0.1312563 0.10716,-0.2271293 0.15039,-0.328125 0.0864,-0.2019913 0.17015,-0.4129981 0.26367,-0.65625 0.0151,-0.039388 0.0352,-0.09974 0.0508,-0.140625 0.0956,0.020568 0.022,0.036643 0.13672,0.056641 1.46362,0.2548179 1.54974,-0.067479 1.76953,-0.1425781 0.21979,-0.075099 0.3266,-0.1262265 0.42383,-0.1718745 0.19445,-0.0913 0.31674,-0.160738 0.45117,-0.236328 0.26885,-0.15118 0.54989,-0.322546 0.88086,-0.529297 0.66193,-0.413504 1.49711,-0.959307 2.39258,-1.566406 0.56045,-0.379968 1.00494,-0.659545 1.46875,-0.957032 0.0729,0.03968 0.13534,0.07673 0.22656,0.121094 0.17872,0.08692 0.12196,0.22735 1.19531,0.371094 1.62994,0.217805 2.04307,-0.310481 2.36133,-0.5 0.31845,-0.18963 0.4777,-0.32499 0.63672,-0.457032 0.31802,-0.264082 0.58345,-0.518917 0.93945,-0.871093 0.712,-0.704353 1.73226,-1.767631 3.3125,-3.433594 l 1.68555,-1.777344 a 3.50035,3.50035 0 0 0 0.80859,-3.429687 l -0.36523,-1.197266 c -0.16029,-0.525163 -0.097,-0.266435 -0.0977,-0.240234 -6.6e-4,0.0262 0.0578,-0.468728 0.27149,-1.552735 l 0.31835,-1.611328 2.89258,-4.333984 c 2.58221,-3.868401 3.65927,-5.655039 4.44336,-7.570313 0.44511,-1.087267 1.13177,-2.712565 1.48047,-3.505859 0.40721,-0.926419 1.13181,-2.65762 1.66602,-3.974609 0.64491,-1.589942 3.06869,-7.427667 4.48633,-10.833985 0.36636,1.094251 0.75418,1.769368 1.29882,2.589844 l 0.73633,1.107422 a 3.50035,3.50035 0 0 0 2.9668,1.564453 l 1.80469,-0.02734 c 1.06232,-0.01555 2.52041,-0.01066 3.91992,-0.884765 1.3995,-0.874105 1.92407,-1.754094 2.96484,-3.050782 1.41784,-1.766473 2.03996,-2.877882 3.77344,-7.167968 0.48226,-1.193503 0.97529,-2.345629 1.36328,-3.203125 0.19399,-0.428749 0.36315,-0.788276 0.47656,-1.013672 0.11341,-0.225397 0.4455,-0.566081 -0.12304,0.109375 0.13352,-0.158632 0.28979,-0.384267 0.43359,-0.56836 0.0302,0.01735 0.0745,0.04398 0.10351,0.06055 0.16355,0.09347 0.30236,0.172692 0.44336,0.248047 0.0705,0.03768 0.13757,0.07384 0.24414,0.125 0.0533,0.02558 0.11332,0.05464 0.22852,0.101563 0.11521,0.04692 0.1288,0.132609 0.875,0.232422 a 3.50035,3.50035 0 0 0 0.008,0.002 c 4.8e-4,6.2e-5 0.91741,7.4e-5 0.91797,0 5.6e-4,-7.5e-5 0.45551,-0.08812 0.62305,-0.142579 0.33508,-0.108923 0.53958,-0.219176 0.69531,-0.310546 0.31147,-0.182741 0.43957,-0.302297 0.54492,-0.394532 0.2107,-0.184469 0.28273,-0.27377 0.35157,-0.351562 0.13766,-0.155584 0.20543,-0.245889 0.28125,-0.345703 0.15163,-0.199629 0.29805,-0.40528 0.4707,-0.654297 0.3453,-0.498034 0.77545,-1.142875 1.23633,-1.857422 l 0.87695,-1.363281 -0.0254,0.0078 c 1.35828,-0.361597 2.95073,-1.345835 4.15625,-2.564453 1.23018,-1.243534 2.10638,-2.562096 3.12109,-4.671875 0.55392,-1.151663 0.89462,-1.557854 0.82032,-1.566406 0.28352,-0.149413 0.53091,-0.318657 0.67773,-0.427735 0.36252,-0.269328 0.52196,-0.456908 0.66406,-0.621093 0.28421,-0.328371 0.43862,-0.573033 0.59571,-0.833985 0.31418,-0.521902 0.62299,-0.721638 0.8125,-2.136718 0.20023,-1.497594 -0.14724,-1.770905 -0.33204,-2.214844 -0.18479,-0.44394 -0.39345,-0.818648 -0.6914,-1.226563 l 0.45898,0.628907 0.42774,-2.376954 c 0.13634,-0.757656 0.15097,-0.70122 0.2539,-1.1875 z m 11.39844,1.056641 c 1.13048,0.152627 1.08056,0.328762 1.19727,0.394531 0.0616,0.0347 0.0601,0.03737 0.084,0.05273 -0.003,0.0099 -0.005,0.01345 -0.008,0.02344 -0.16435,-0.140292 -0.21888,-0.32865 -1.27344,-0.470703 z m -16.81836,2.796875 c -0.17408,0.05356 -0.29497,0.100055 -0.38867,0.140625 0.11252,-0.06455 0.23318,-0.08808 0.38867,-0.140625 z m 15.80664,4.113281 c 0.0627,0.0098 0.009,0.01779 0.0801,0.02734 h -0.004 c -0.0701,-0.0094 -0.0141,-0.01753 -0.0762,-0.02734 z m -13.71679,2.558594 c -0.037,0.01217 -0.0374,0.01715 -0.0859,0.03125 -0.20488,0.05954 -0.44426,0.232032 -1.4043,0.103516 0.68101,0.09105 1.10502,-0.01736 1.49024,-0.134766 z m -28.31446,22.095703 0.002,0.002 c -0.0667,0.0012 -0.0249,-0.0012 -0.10938,0 z m 72.58789,5.431641 v 0.002 c -0.002,0.0011 -0.003,8.5e-4 -0.006,0.002 -1.9e-4,8.8e-5 0.006,-0.004 0.006,-0.0039 z M 304.72122,-5.899591 c -0.001,-0.0015 0.0881,-0.0061 0.18164,0.06836 -0.0144,0.02645 -0.0132,0.02627 -0.0312,0.05664 a 3.50035,3.50035 0 0 0 -0.125,-0.09766 c 0,0 -0.0219,-0.02384 -0.0254,-0.02734 z m 169.46094,2.871094 c 0.11166,0.02707 0.24724,0.01793 0.36719,0.03516 -10e-4,0.006 -0.003,0.0116 -0.004,0.01758 -0.15785,-0.02725 -0.11542,0.04037 -0.32422,-0.02539 -0.0135,-0.0042 -0.0255,-0.02272 -0.0391,-0.02734 z m -133.14258,2.59375 -0.16211,0.472656 -0.008,-0.002 c 0.0595,-0.16743 0.10922,-0.295502 0.16992,-0.470703 z m -17.85351,3.3691408 -0.54883,0.2382812 c 0.003,-0.010399 0.0142,-0.022917 0.0176,-0.033203 0.0441,-0.0096 -0.0615,0.05142 0.53125,-0.2050781 z m -1.81836,0.3183593 c 0.12903,0.1432295 0.22498,0.1954757 0.33594,0.3242188 l -0.0332,0.013672 z M 269.80326,23.647284 c -0.17471,0.190372 -0.26497,0.174905 -0.25586,0.167969 0.01,-0.0074 0.1498,-0.09815 0.25586,-0.167969 z m 37.76171,5.972657 c -0.10835,0.808947 -0.38879,1.412555 -0.86523,1.86914 0.38101,-0.438856 0.74524,-0.972525 0.86523,-1.86914 z"
       id="path6325"
       inkscape:connector-curvature="0" />
    <path
       style="fill:#333333;fill-opacity:1;stroke-width:0.99999994"
       d="m 163.85543,67.352046 -0.56017,0.40101 c -1.35435,0.96909 -1.5005,1.323782 -2.24482,5.460135 l -0.69247,3.849899 0.42426,0.58084 c 0.23345,0.319617 0.40474,0.73062 0.38034,0.91313 -0.053,0.395684 -0.59857,1.301459 -0.76998,1.278467 -0.0664,-0.009 -0.3902,0.174016 -0.71985,0.406691 -0.42475,0.299746 -0.93911,1.129638 -1.76578,2.848398 -0.96904,2.014828 -1.38492,2.645569 -2.45515,3.727423 -1.10741,1.119452 -1.46768,1.350301 -2.56832,1.643301 l -1.28054,0.340572 -1.61231,2.499571 c -0.88664,1.374643 -1.66157,2.492613 -1.72237,2.484597 -0.0608,-0.0082 -0.78649,-0.42299 -1.61282,-0.921888 -0.82632,-0.498925 -1.58475,-0.870082 -1.68517,-0.825288 -0.10042,0.04493 -0.52423,0.559196 -0.94206,1.143079 -0.41783,0.583909 -0.97141,1.312968 -1.2299,1.62007 -0.2585,0.307102 -1.28665,2.578973 -2.28461,5.048779 -1.72745,4.275138 -1.88339,4.577058 -3.25666,6.287978 -2.07983,2.59125 -2.08981,2.59729 -4.20801,2.62827 l -1.8035,0.0259 -0.73588,-1.10847 c -0.40472,-0.60968 -0.8437,-1.46035 -0.97513,-1.89032 -0.17301,-0.566 -0.69347,-1.19502 -1.88567,-2.27997 -1.54587,-1.40716 -1.69172,-1.49368 -2.38694,-1.41438 -0.53065,0.0605 -0.79976,0.22185 -0.94878,0.56896 -0.50742,1.18197 -4.89433,11.77475 -5.749,13.88184 -0.52033,1.28278 -1.25197,3.02937 -1.62626,3.88091 -0.3743,0.85153 -1.05638,2.46597 -1.51567,3.58788 -0.65046,1.58888 -1.56056,3.12653 -4.11551,6.9541 l -3.2799,4.91392 -0.45269,2.29701 c -0.4326,2.19487 -0.43698,2.35061 -0.0884,3.49281 l 0.36483,1.19528 -1.68568,1.77766 c -3.14605,3.31674 -4.06423,4.22518 -4.24626,4.20079 -0.0999,-0.0135 -0.51284,-0.25321 -0.91725,-0.53279 -0.40441,-0.27956 -0.85238,-0.51972 -0.99581,-0.53433 -0.143437,-0.0145 -1.676033,0.93279 -3.405474,2.10529 -1.729451,1.1725 -3.238868,2.11558 -3.354319,2.09548 -0.115458,-0.0201 -0.487867,-0.34653 -0.827338,-0.72554 -0.395719,-0.44178 -0.84087,-0.71906 -1.240751,-0.77256 l -0.623734,-0.0832 -0.77308,2.23086 c -0.425149,1.22712 -0.840775,2.30889 -0.923976,2.40401 -0.199988,0.22862 -7.107462,1.78699 -9.519832,2.14765 -1.33118,0.19902 -1.230606,0.26151 -3.322278,-2.06034 l -1.37976,-1.53167 -0.791683,0.34261 c -1.840511,0.79639 -1.947151,0.8882 -2.233973,1.92545 -0.251719,0.9103 -0.373999,1.04838 -1.504299,1.69397 -0.676761,0.38653 -1.549566,0.90707 -1.939417,1.15702 -0.690311,0.44267 -0.747373,0.44474 -2.182812,0.0661 -0.810652,-0.21379 -1.99431,-0.63442 -2.630331,-0.93483 -0.636009,-0.30041 -2.066288,-0.97301 -3.178617,-1.49447 -2.18498,-1.02431 -1.891128,-0.74523 -5.489588,-5.21674 0,0 -0.785072,-0.59375 -0.831472,-1.03354 -0.05256,-0.49898 0.46115,-0.89136 0.678511,-1.34358 0.24797,-0.51594 0.837525,-1.00341 0.713134,-1.56218 -0.09279,-0.4168 -0.555488,-0.90271 -0.976167,-0.82942 -0.476311,0.0831 -0.414131,0.88496 -0.721921,1.25783 -1.231548,1.49196 -0.811157,1.357 -4.394047,3.79148 -2.045769,1.39007 -4.167735,2.82493 -4.715473,3.18844 -0.547732,0.36351 -1.667925,1.12408 -2.489255,1.69035 -0.82133,0.56626 -2.182985,1.49074 -3.025656,2.05414 -0.842669,0.56341 -1.783644,1.19282 -2.091343,1.39888 -0.307711,0.20606 -1.536139,0.94565 -2.72955,1.6433 l -2.169893,1.26815 -0.475422,1.82004 c -0.261541,1.00081 -0.549021,1.83568 -0.638723,1.85518 -0.08975,0.0196 -0.77189,0.31917 -1.515668,0.66611 -1.848011,0.86202 -2.469743,1.53168 -2.923852,3.14865 -0.202862,0.72234 -0.434182,1.39285 -0.514181,1.49035 -0.07997,0.0975 -1.575639,0.91919 -3.323829,1.82573 -1.96488,1.01891 -3.248575,1.81144 -3.362585,2.07531 -0.10141,0.23479 -0.421715,0.85606 -0.711585,1.38081 -0.46242,0.83706 -0.650526,0.98584 -1.532206,1.21491 -0.55269,0.14356 -2.064078,0.59801 -3.358968,1.00976 -1.2949,0.41172 -3.418945,1.04113 -4.7201254,1.39835 -1.9554898,0.53686 -2.5778547,0.81317 -3.5878946,1.59475 -1.1232801,0.86915 -1.1818271,0.95104 -0.7255373,1.01232 0.5976702,0.0803 21.0782313,0.29853 27.6179513,0.29353 2.95942,-0.003 8.375607,0.0396 9.723437,0.0749 3.312761,0.0865 12.731607,0.20219 13.553697,0.16639 0.385198,-0.0167 0.685966,-0.15031 0.707966,-0.31469 0.02106,-0.15724 0.156134,-0.30268 0.299723,-0.32298 1.008131,-0.1425 2.088078,-0.25064 3.06338,-0.30644 0.624668,-0.0357 2.04838,-0.14047 3.163631,-0.23307 1.11525,-0.0925 2.062914,-0.12234 2.105813,-0.0661 0.04293,0.0562 -0.05036,0.39542 -0.207221,0.75396 -0.156811,0.35854 -0.260461,0.68419 -0.22996,0.72401 0.03042,0.0398 0.784161,0.0816 1.674833,0.0925 0.89068,0.0111 2.861633,0.0386 4.380093,0.0615 1.51847,0.023 3.181342,0 3.695382,-0.0517 0.514059,-0.0513 1.979808,0.0249 3.256648,0.16896 1.276821,0.14386 3.342389,0.21156 4.590418,0.14986 2.481122,-0.12252 4.86779,-0.19187 12.96045,-0.37671 5.256979,-0.12004 13.036959,-0.3171 17.888309,-0.45268 1.35756,-0.0379 3.62514,-0.0995 5.03897,-0.13694 1.41382,-0.0374 4.00507,-0.10639 5.75831,-0.15349 1.75324,-0.047 4.6683,-0.12224 6.47764,-0.16743 8.23611,-0.2056 11.31673,-0.28882 14.19035,-0.38293 1.69802,-0.0556 3.96584,-0.11615 5.03896,-0.13435 5.86518,-0.0992 12.15298,-0.31473 16.36593,-0.56171 2.27195,-0.1332 6.12841,-0.35203 8.5695,-0.48578 2.44108,-0.13369 5.36917,-0.30946 6.5071,-0.39066 1.13793,-0.0812 2.71848,-0.17851 3.51245,-0.216 0.79396,-0.0376 2.27874,-0.10745 3.29954,-0.15555 1.02078,-0.0481 1.99874,-0.11883 2.17299,-0.15761 0.17425,-0.0388 0.63948,-0.0681 1.03353,-0.0651 0.39406,0.003 2.15678,-0.0789 3.91759,-0.18243 1.7608,-0.10353 5.15286,-0.30064 7.53804,-0.4377 2.38516,-0.13703 6.38231,-0.37288 8.88215,-0.52451 2.49982,-0.1516 5.42666,-0.31636 6.50399,-0.36586 1.07732,-0.0495 2.84157,-0.14132 3.92069,-0.20413 7.90961,-0.46014 13.2367,-0.76234 15.17686,-0.86143 2.90272,-0.1483 3.82475,-0.25207 3.84885,-0.43201 0.0107,-0.0795 -0.0257,-0.44979 -0.0806,-0.8227 -0.0786,-0.53409 -0.0398,-0.66998 0.1819,-0.64026 0.15482,0.0206 1.03565,-0.46085 1.9575,-1.07024 l 1.67587,-1.10794 -1.01234,-5.30924 c -0.55696,-2.92015 -1.09271,-5.52783 -1.19011,-5.79448 -0.17488,-0.47829 -0.2304,-0.49165 -4.26176,-1.03145 l -4.0845,-0.54674 -1.87637,1.05678 c -1.33111,0.74998 -2.33571,1.14591 -3.45819,1.36323 l -1.58181,0.30644 -1.2454,-1.43144 c -0.77914,-0.89551 -1.72821,-1.71903 -2.53473,-2.19935 -1.69392,-1.00878 -1.75847,-1.08789 -1.63608,-2.00195 0.0575,-0.42931 0.12735,-0.77758 0.15555,-0.77358 0.0282,0.004 0.87416,0.40026 1.87999,0.88108 1.00579,0.4808 2.3808,0.99965 3.05511,1.1529 l 1.22576,0.27853 1.77405,-1.25625 c 0.97559,-0.69103 1.96487,-1.39186 2.19832,-1.55702 0.41387,-0.29276 0.41416,-0.32914 0.0171,-1.46761 -0.40345,-1.15665 -0.42227,-1.17473 -1.97197,-1.91873 -0.91652,-0.44003 -2.30674,-0.90856 -3.35742,-1.1312 -1.42554,-0.30208 -1.93493,-0.50277 -2.48202,-0.97875 -1.06264,-0.92456 -0.68331,-1.62954 0.88729,-1.65005 0.50805,-0.007 1.27669,-0.0675 1.70842,-0.13539 0.75308,-0.11832 0.78979,-0.15922 0.90382,-1.01078 0.10195,-0.76153 0.0656,-0.87837 -0.25683,-0.82167 -0.2597,0.0457 -0.60503,-0.23915 -1.11725,-0.92292 l -0.74104,-0.98962 0.447,-0.79219 c 0.24579,-0.43558 0.50468,-0.78364 0.57568,-0.77462 0.071,0.01 0.82097,0.24845 1.66656,0.5307 2.0761,0.69303 2.35779,0.70927 3.05563,0.17622 0.84732,-0.64717 0.86785,-1.31033 0.11937,-3.84884 l -0.64388,-2.18335 -1.07591,-0.65939 c -3.42911,-2.10055 -3.81549,-2.39109 -3.75739,-2.82514 0.0398,-0.29715 0.46919,-0.64302 1.3932,-1.12242 0.77339,-0.40126 1.30895,-0.80647 1.27175,-0.96274 -0.0353,-0.14843 -0.13369,-1.27682 -0.21859,-2.50732 l -0.15451,-2.23708 1.02268,-0.693 c 0.73053,-0.49474 1.08203,-0.88931 1.22989,-1.38181 0.19249,-0.64111 0.11952,-0.81306 -1.03559,-2.44377 l -1.2423,-1.75392 -2.14767,-0.98028 c -1.18135,-0.5392 -2.59906,-1.31305 -3.15072,-1.71979 -0.55166,-0.40675 -2.02054,-1.49056 -3.26388,-2.40864 -2.55148,-1.8841 -2.99985,-2.02583 -4.61935,-1.46039 -1.4134,0.4935 -1.82513,0.33046 -3.55483,-1.4056 -0.76159,-0.76438 -1.66482,-1.49175 -2.00711,-1.61645 -1.57438,-0.57346 -2.15592,-1.1262 -3.47317,-3.30263 -0.71646,-1.18375 -1.37109,-2.1218 -1.45469,-2.0841 -0.0836,0.0377 -1.03636,0.47509 -2.11719,0.97152 l -1.96525,0.90226 -2.19212,-0.42788 c -1.2056,-0.23538 -2.22574,-0.47207 -2.26704,-0.52608 -0.14108,-0.18465 -0.13389,-2.05528 0.0124,-3.26696 0.24185,-2.0034 2.47168,-6.048353 5.43791,-9.864518 1.64875,-2.121217 2.48915,-3.377829 2.66495,-3.984783 0.24719,-0.853361 0.22165,-0.94959 -0.68936,-2.570374 -0.97852,-1.740879 -1.13145,-1.87587 -3.39152,-3.008604 -1.05183,-0.527182 -1.41579,-0.864605 -2.36524,-2.189533 l -1.12241,-1.566307 -3.05562,-0.544671 -3.05563,-0.544671 -1.28416,-1.860868 c -0.70629,-1.023514 -1.27876,-1.902909 -1.27176,-1.954397 0.007,-0.05152 0.46878,-0.711544 1.0263,-1.467088 1.22286,-1.657245 1.30036,-1.525826 -1.76114,-2.979156 -1.74324,-0.827545 -2.43348,-1.056288 -3.4494,-1.143087 -1.50462,-0.128569 -1.28235,-0.4498 -2.68976,3.885546 -0.61934,1.907805 -1.13849,3.17889 -1.40353,3.436488 l -0.42065,0.408755 -1.05988,-0.530701 c -0.58286,-0.292021 -1.2697,-0.747607 -1.52652,-1.011846 -0.25681,-0.264213 -0.53872,-0.489453 -0.62632,-0.501254 -0.0877,-0.01164 -0.64033,-0.442065 -1.22783,-0.956019 -1.55227,-1.357921 -4.22929,-3.602698 -8.59689,-7.209371 z m -32.23059,86.276384 c 0.29016,-2.7e-4 0.57849,0.0106 0.86351,0.0357 0.79258,0.0864 0.99207,0.92776 1.02991,1.68259 0.0584,1.79425 0.0576,4.9157 0.54829,5.26944 0.45923,0.35534 1.1477,-0.37293 1.66502,-0.7457 1.61326,-1.15289 3.28342,-1.80406 5.29477,-1.30585 2.55389,0.62865 3.75206,1.89294 3.91914,4.59611 0.12922,1.94833 0.13462,3.9344 0.16949,5.88748 l 0.14315,2.86184 c 2.70475,-0.1356 2.97077,1.39604 2.16576,2.31925 -0.32546,0.4262 -5.95475,0.7088 -6.56808,0.42426 -0.3145,0.0159 -0.8717,-0.39806 -0.83561,-0.93585 0.0972,-1.83362 1.77848,-1.00344 2.7156,-1.80713 0.0738,-0.4136 0.20465,-0.95618 0.20929,-1.49241 -0.0506,-2.26761 -0.10305,-4.56671 -0.24805,-6.82956 -0.13553,-2.07418 -1.18918,-2.96725 -3.22874,-2.77037 -0.65889,0.0646 -1.43554,0.29281 -1.95285,0.66558 -1.91358,1.45172 -3.13997,3.40485 -3.33778,5.74797 -0.135,1.70937 0.14007,3.42974 0.22996,5.22242 0.70452,0.21691 1.33824,0.27975 1.8588,0.60048 0.32396,0.17293 0.63224,0.6619 0.68419,1.06918 0.0126,0.25162 -0.37859,0.61833 -0.6506,0.85267 -0.18082,0.16671 -0.42942,0.24217 -0.64957,0.25321 -1.83045,-0.0344 -3.62799,-0.0387 -5.43171,-0.16899 -0.34911,-0.0455 -0.99389,-0.32883 -0.93897,-1.11983 0.10986,-1.58199 1.89646,-1.16715 2.48771,-1.32291 0.36767,-2.09939 -0.11165,-13.55188 -0.66559,-16.42483 -0.60387,-0.0958 -1.29925,-0.12414 -1.911,-0.37725 -0.38529,-0.13832 -0.84772,-0.55631 -0.86506,-0.90225 -0.0174,-0.34597 0.39135,-0.99719 0.67282,-1.04286 0.86803,-0.13811 1.75573,-0.24156 2.6262,-0.24235 z m 68.5276,1.53117 c 0.35792,-0.005 0.72704,0.008 1.10691,0.0382 5.0023,0.4113 7.22183,6.95236 5.59604,8.48424 -1.02359,0.96568 -11.74007,0.39981 -11.87524,0.84802 -0.52493,2.10727 2.11399,5.06449 4.67568,5.21983 2.43273,0.0987 4.51129,-0.57309 5.85235,-2.75281 0.11634,-0.19502 0.42475,-0.96686 0.6103,-1.03923 0.43085,-0.21076 0.84602,-0.1058 1.16841,0.0357 0.32396,0.17293 0.46417,0.45016 0.48782,0.92191 0.0174,0.34595 -0.25814,1.14782 -0.46095,1.50482 -3.15678,6.21197 -14.44762,4.25566 -15.06833,-3.72173 -0.33691,-5.54022 2.53821,-9.46801 7.90701,-9.53897 z m -41.81967,0.7245 c 0.15954,0.003 0.32044,0.0101 0.48266,0.0228 1.32881,0.091 2.80075,0.52202 3.97082,1.22007 4.72907,3.13656 5.5038,11.04294 0.77256,14.77997 -4.73124,3.73703 -11.7986,1.12787 -13.13925,-4.85862 -0.15734,-0.6227 -0.18902,-1.25212 -0.23151,-1.47072 -0.41358,-5.20234 3.19913,-9.77788 8.14472,-9.69346 z m 41.76954,1.5751 c -1.20154,0.004 -2.38325,0.31218 -3.47214,0.99737 -1.22332,0.75499 -2.11783,1.7775 -1.83451,3.65506 3.4077,0.0499 6.70978,-0.11573 10.28568,-0.48419 -0.29752,-2.16064 -1.15002,-3.44215 -2.81068,-3.86334 -0.71947,-0.20039 -1.44742,-0.30742 -2.16835,-0.3049 z m -16.02176,0 c 1.42069,0.0679 2.48281,1.11889 2.70578,2.9719 0.26606,2.1622 0.28184,4.36859 0.39223,6.57013 0.0835,1.0363 0.10296,2.0442 0.15658,3.11352 0.91206,-0.0457 1.39003,0.0563 1.7203,0.35501 0.68412,0.43863 1.02219,0.89472 0.64803,1.60714 -0.0786,0.31924 -0.78281,0.73294 -1.19166,0.75345 -0.69192,0.0347 -4.75109,0.20659 -4.89118,-0.70075 -0.17469,-0.96867 -0.0976,-1.94985 1.25006,-2.11201 0.3675,-3.36058 -0.23548,-9.10055 -0.863,-9.66814 -1.09622,-1.11165 -3.60702,1.6315 -3.62717,3.74499 -0.0359,1.79898 0.085,3.59008 0.27079,5.40949 0.0583,0.53308 0.55684,1.04426 0.89658,1.53167 0.64645,0.94501 0.46615,1.74191 -0.59686,1.92135 -0.96709,0.20614 -2.77872,0.54938 -3.38119,-0.77618 -0.39966,-1.68256 0.7847,-0.70133 0.64751,-3.43752 0.0234,-1.42002 -0.0791,-2.83361 -0.21291,-4.24574 -0.13544,-1.44357 0.0651,-3.72398 -0.80615,-4.12171 -0.88544,-0.6808 -2.86015,2.06643 -2.85358,4.08398 0.008,2.04904 0.17394,4.0903 0.27802,6.16603 0.91522,0.0172 1.54409,0.61638 1.93735,1.54255 0.35402,1.40108 -1.84581,1.54297 -6.08541,1.25108 -1.45313,-0.68384 0.0309,-2.52425 1.72289,-2.73523 l -0.50437,-10.06398 c 0,0 -0.0726,-0.18569 -0.19998,-0.21085 -0.80204,-0.27506 -1.81282,-0.31888 -1.65417,-1.55649 0.11783,-0.79415 1.47125,-1.46077 2.52647,-1.16684 0.67307,0.21849 1.23169,0.66307 1.97714,1.06712 1.86486,-1.16552 3.81595,-1.86227 5.57123,0.44595 0.73431,-0.44669 1.37593,-0.85743 2.05207,-1.20663 0.74887,-0.39227 1.46884,-0.5642 2.1146,-0.53329 z m -25.70179,0.62476 c -2.69596,0.004 -4.91742,2.18953 -5.50199,5.15109 -0.27183,1.49553 -0.009,2.96378 0.65991,4.34909 1.12942,2.40268 3.13459,4.03664 5.51853,3.791 2.60251,-0.28816 4.22154,-2.57651 4.7165,-5.28135 0.27509,-0.80203 0.20427,-2.84797 0.1602,-3.098 -0.62157,-2.96416 -2.1298,-4.74882 -5.29063,-4.90564 -0.0879,-0.005 -0.17555,-0.006 -0.26252,-0.006 z m 55.48189,7.49876 c 1.60338,0.0607 2.8232,1.17618 2.90008,2.70939 0.11188,1.6024 -1.14135,3.02125 -2.83652,3.16931 -1.75808,0.15121 -3.24271,-1.16149 -3.29799,-2.89285 -0.0521,-1.66843 1.14763,-2.89546 2.90886,-2.98378 0.11008,-0.006 0.21867,-0.006 0.32557,-0.003 z"
       id="path6327"
       inkscape:connector-curvature="0" />
    <path
       style="fill:#630031;fill-opacity:1;stroke-width:0.99999994"
       d="m 411.80775,67.352046 -0.56018,0.40101 c -1.35435,0.96909 -1.49997,1.323782 -2.24433,5.460135 l -0.69297,3.849899 0.42426,0.58084 c 0.23347,0.319617 0.40474,0.73062 0.38034,0.91313 -0.053,0.395684 -0.59857,1.301459 -0.76996,1.278467 -0.0664,-0.009 -0.39021,0.174016 -0.71986,0.406691 -0.42476,0.299746 -0.93911,1.129638 -1.7658,2.848398 -0.96903,2.014828 -1.38438,2.645569 -2.45462,3.727423 -1.10741,1.119452 -1.4682,1.350301 -2.56884,1.643301 l -1.28053,0.340572 -1.61179,2.499571 c -0.88664,1.374643 -1.66211,2.492613 -1.72291,2.484597 -0.0608,-0.0082 -0.78647,-0.42299 -1.61282,-0.921888 -0.82632,-0.498925 -1.58475,-0.870082 -1.68516,-0.825288 -0.10041,0.04493 -0.52422,0.559196 -0.94205,1.143079 -0.41783,0.583909 -0.97141,1.312968 -1.22991,1.62007 -0.2585,0.307102 -1.28612,2.578973 -2.2841,5.048779 -1.72744,4.275138 -1.88391,4.577058 -3.25715,6.287978 -2.07986,2.59125 -2.08981,2.59729 -4.20801,2.62827 l -1.80351,0.0259 -0.73588,-1.10847 c -0.40471,-0.60968 -0.84371,-1.46035 -0.97513,-1.89032 -0.17301,-0.566 -0.69347,-1.19502 -1.88568,-2.27997 -1.54588,-1.40716 -1.69172,-1.49368 -2.38694,-1.41438 -0.53065,0.0605 -0.79976,0.22185 -0.94877,0.56896 -0.50742,1.18197 -4.89434,11.77475 -5.749,13.88184 -0.52033,1.28278 -1.25198,3.02937 -1.62626,3.88091 -0.37431,0.85153 -1.05638,2.46597 -1.51567,3.58788 -0.65047,1.58888 -1.56056,3.12653 -4.11551,6.9541 l -3.27991,4.91392 -0.45267,2.29701 c -0.43262,2.19487 -0.43649,2.35061 -0.0879,3.49281 l 0.36483,1.19528 -1.68619,1.77766 c -3.14605,3.31674 -4.06423,4.22518 -4.24624,4.20079 -0.0999,-0.0135 -0.51287,-0.25321 -0.91726,-0.53279 -0.40441,-0.27956 -0.85238,-0.51972 -0.99581,-0.53433 -0.14343,-0.0145 -1.67603,0.93279 -3.40548,2.10529 -1.72945,1.1725 -3.23887,2.11558 -3.35431,2.09548 -0.11546,-0.0201 -0.48736,-0.34653 -0.82682,-0.72554 -0.39574,-0.44178 -0.8414,-0.71906 -1.24127,-0.77256 l -0.62375,-0.0832 -0.77306,2.23086 c -0.42516,1.22712 -0.84079,2.30889 -0.92398,2.40401 -0.2,0.22862 -7.10747,1.78699 -9.51984,2.14765 -1.33117,0.19902 -1.2306,0.26151 -3.32227,-2.06034 l -1.37924,-1.53167 -0.79222,0.34261 c -1.84049,0.79639 -1.94715,0.8882 -2.23396,1.92545 -0.25172,0.9103 -0.37401,1.04838 -1.50431,1.69397 -0.67675,0.38653 -1.54956,0.90707 -1.93942,1.15702 -0.6903,0.44267 -0.74737,0.44474 -2.18281,0.0661 -0.81064,-0.21379 -1.9938,-0.63442 -2.6298,-0.93483 -0.63601,-0.30041 -2.0668,-0.97301 -3.17913,-1.49447 -2.18498,-1.02431 -1.89114,-0.74523 -5.4896,-5.21674 0,0 -0.78507,-0.59375 -0.83148,-1.03354 -0.0525,-0.49898 0.46117,-0.89136 0.67852,-1.34358 0.24797,-0.51594 0.83804,-1.00341 0.71366,-1.56218 -0.0928,-0.4168 -0.55549,-0.90271 -0.97618,-0.82942 -0.4763,0.0831 -0.41465,0.88496 -0.72244,1.25783 -1.23153,1.49196 -0.81114,1.357 -4.39404,3.79148 -2.04576,1.39007 -4.16772,2.82493 -4.71546,3.18844 -0.54774,0.36351 -1.66793,1.12408 -2.48928,1.69035 -0.82132,0.56626 -2.18297,1.49074 -3.02564,2.05414 -0.84267,0.56341 -1.78364,1.19282 -2.09135,1.39888 -0.30771,0.20606 -1.53614,0.94565 -2.72955,1.6433 l -2.1699,1.26815 -0.4754,1.82004 c -0.26154,1.00081 -0.54904,1.83568 -0.63873,1.85518 -0.0897,0.0196 -0.7719,0.31917 -1.51567,0.66611 -1.84801,0.86202 -2.46922,1.53168 -2.92335,3.14865 -0.20286,0.72234 -0.43418,1.39285 -0.51417,1.49035 -0.08,0.0975 -1.57615,0.91919 -3.32435,1.82573 -1.96488,1.01891 -3.24856,1.81144 -3.36257,2.07531 -0.10141,0.23479 -0.42172,0.85606 -0.71159,1.38081 -0.46242,0.83706 -0.65001,0.98584 -1.5317,1.21491 -0.55269,0.14356 -2.0646,0.59801 -3.35948,1.00976 -1.2949,0.41172 -3.41894,1.04113 -4.72013,1.39835 -1.95548,0.53686 -2.57785,0.81317 -3.58789,1.59475 -1.12328,0.86915 -1.18183,0.95104 -0.72554,1.01232 0.59767,0.0803 21.07825,0.29853 27.61796,0.29353 2.95941,-0.003 8.37559,0.0396 9.72343,0.0749 3.31277,0.0865 12.73162,0.20219 13.55371,0.16639 0.38518,-0.0167 0.68648,-0.15031 0.70847,-0.31469 0.0212,-0.15724 0.15563,-0.30268 0.29922,-0.32298 1.00811,-0.1425 2.08806,-0.25064 3.06337,-0.30644 0.62466,-0.0357 2.04838,-0.14047 3.16362,-0.23307 1.11525,-0.0925 2.06293,-0.12234 2.10582,-0.0661 0.0429,0.0562 -0.0504,0.39542 -0.20722,0.75396 -0.15682,0.35854 -0.26045,0.68419 -0.22995,0.72401 0.0304,0.0398 0.78415,0.0816 1.67481,0.0925 0.8907,0.0111 2.86166,0.0386 4.3801,0.0615 1.51847,0.023 3.18185,0 3.69591,-0.0517 0.51406,-0.0513 1.9793,0.0249 3.25612,0.16896 1.27683,0.14386 3.34241,0.21156 4.59042,0.14986 2.48113,-0.12252 4.8678,-0.19187 12.96046,-0.37671 5.25698,-0.12004 13.03697,-0.3171 17.88832,-0.45268 1.35755,-0.0379 3.62513,-0.0995 5.03896,-0.13694 1.41383,-0.0374 4.00505,-0.10639 5.75831,-0.15349 1.75324,-0.047 4.66828,-0.12224 6.47764,-0.16743 8.2361,-0.2056 11.31723,-0.28882 14.19087,-0.38293 1.69802,-0.0556 3.96531,-0.11615 5.03843,-0.13435 5.86518,-0.0992 12.15351,-0.31473 16.36644,-0.56171 2.27195,-0.1332 6.12791,-0.35203 8.56901,-0.48578 2.44107,-0.13369 5.36916,-0.30946 6.50708,-0.39066 1.13795,-0.0812 2.71849,-0.17851 3.51245,-0.216 0.79396,-0.0376 2.27925,-0.10745 3.30007,-0.15555 1.02076,-0.0481 1.99821,-0.11883 2.17247,-0.15761 0.17425,-0.0388 0.63947,-0.0681 1.03351,-0.0651 0.39407,0.003 2.15681,-0.0789 3.91761,-0.18243 1.7608,-0.10353 5.15337,-0.30064 7.53856,-0.4377 2.38516,-0.13703 6.38178,-0.37288 8.88161,-0.52451 2.49984,-0.1516 5.42668,-0.31636 6.50402,-0.36586 1.0773,-0.0495 2.84157,-0.14132 3.92067,-0.20413 7.90961,-0.46014 13.23671,-0.76234 15.17687,-0.86143 2.90272,-0.1483 3.82474,-0.25207 3.84884,-0.43201 0.0109,-0.0795 -0.0251,-0.44979 -0.0801,-0.8227 -0.0786,-0.53409 -0.0404,-0.66998 0.18137,-0.64026 0.15484,0.0206 1.03566,-0.46085 1.95752,-1.07024 l 1.67638,-1.10794 -1.01285,-5.30924 c -0.55698,-2.92015 -1.0922,-5.52783 -1.1896,-5.79448 -0.17489,-0.47829 -0.23093,-0.49165 -4.26228,-1.03145 l -4.0845,-0.54674 -1.87637,1.05678 c -1.3311,0.74998 -2.33569,1.14591 -3.45819,1.36323 l -1.58181,0.30644 -1.24539,-1.43144 c -0.77915,-0.89551 -1.72821,-1.71903 -2.53474,-2.19935 -1.69391,-1.00878 -1.75847,-1.08789 -1.63607,-2.00195 0.0575,-0.42931 0.12787,-0.77758 0.15605,-0.77358 0.0282,0.004 0.87418,0.40026 1.87999,0.88108 1.00579,0.4808 2.3803,0.99965 3.05459,1.1529 l 1.22576,0.27853 1.77406,-1.25625 c 0.9756,-0.69103 1.96488,-1.39186 2.19832,-1.55702 0.41386,-0.29276 0.41418,-0.32914 0.0169,-1.46761 -0.40346,-1.15665 -0.42177,-1.17473 -1.97146,-1.91873 -0.91652,-0.44003 -2.30725,-0.90856 -3.35793,-1.1312 -1.42555,-0.30208 -1.93443,-0.50277 -2.4815,-0.97875 -1.06265,-0.92456 -0.68385,-1.62954 0.88675,-1.65005 0.50805,-0.007 1.27669,-0.0675 1.70844,-0.13539 0.75308,-0.11832 0.78978,-0.15922 0.90381,-1.01078 0.10195,-0.76153 0.0656,-0.87837 -0.25683,-0.82167 -0.25971,0.0457 -0.60502,-0.23915 -1.11725,-0.92292 l -0.74105,-0.98962 0.44702,-0.79219 c 0.24577,-0.43558 0.50466,-0.78364 0.57568,-0.77462 0.071,0.01 0.82097,0.24845 1.66655,0.5307 2.07611,0.69303 2.35778,0.70927 3.05562,0.17622 0.84733,-0.64717 0.86786,-1.31033 0.11938,-3.84884 l -0.64389,-2.18335 -1.0759,-0.65939 c -3.4291,-2.10055 -3.81548,-2.39109 -3.7574,-2.82514 0.0398,-0.29715 0.46919,-0.64302 1.39322,-1.12242 0.77337,-0.40126 1.30894,-0.80647 1.27174,-0.96274 -0.0353,-0.14843 -0.13369,-1.27682 -0.2186,-2.50732 l -0.15451,-2.23708 1.02269,-0.693 c 0.73052,-0.49474 1.08204,-0.88931 1.22989,-1.38181 0.19249,-0.64111 0.11951,-0.81306 -1.03558,-2.44377 l -1.24232,-1.75392 -2.14765,-0.98028 c -1.18134,-0.5392 -2.59906,-1.31305 -3.15071,-1.71979 -0.55169,-0.40675 -2.02055,-1.49056 -3.2639,-2.40864 -2.55149,-1.8841 -2.99985,-2.02583 -4.61936,-1.46039 -1.41338,0.4935 -1.82513,0.33046 -3.55481,-1.4056 -0.76161,-0.76438 -1.66484,-1.49175 -2.00711,-1.61645 -1.5744,-0.57346 -2.15593,-1.1262 -3.47318,-3.30263 -0.71647,-1.18375 -1.3711,-2.1218 -1.45468,-2.0841 -0.0836,0.0377 -1.03637,0.47509 -2.1172,0.97152 l -1.96524,0.90226 -2.1916,-0.42788 c -1.2056,-0.23538 -2.22575,-0.47207 -2.26705,-0.52608 -0.14108,-0.18465 -0.13441,-2.05528 0.0119,-3.26696 0.24186,-2.0034 2.47169,-6.048353 5.43793,-9.864518 1.64875,-2.121217 2.48915,-3.377829 2.66494,-3.984783 0.2472,-0.853361 0.22164,-0.94959 -0.68935,-2.570374 -0.97853,-1.740879 -1.13146,-1.87587 -3.39153,-3.008604 -1.05183,-0.527182 -1.41579,-0.864605 -2.36525,-2.189533 l -1.12239,-1.566307 -3.05564,-0.544671 -3.05562,-0.544671 -1.28416,-1.860868 c -0.7063,-1.023514 -1.27875,-1.902909 -1.27177,-1.954397 0.007,-0.05152 0.46879,-0.711544 1.02629,-1.467088 1.22288,-1.657245 1.30091,-1.525826 -1.76059,-2.979156 -1.74326,-0.827545 -2.43401,-1.056288 -3.44993,-1.143087 -1.50463,-0.128569 -1.28235,-0.4498 -2.68975,3.885546 -0.61934,1.907805 -1.1385,3.17889 -1.40354,3.436488 l -0.42066,0.408755 -1.05986,-0.530701 c -0.58288,-0.292021 -1.26971,-0.747607 -1.52652,-1.011846 -0.25683,-0.264213 -0.53874,-0.489453 -0.62632,-0.501254 -0.0877,-0.01164 -0.64034,-0.442065 -1.22785,-0.956019 -1.55226,-1.357921 -4.22876,-3.602698 -8.59637,-7.209371 z m 22.23428,73.522114 c 0.16399,0.003 0.33433,0.008 0.51213,0.0185 l 1.16065,0.0656 1.12498,0.62322 c 0.77335,0.42828 1.52884,0.97031 2.41692,1.73477 1.22901,1.05794 1.32678,1.1738 2.01279,2.38125 0.39661,0.69813 0.82259,1.58107 0.9462,1.96215 0.12367,0.38111 0.26144,0.66961 0.30644,0.64079 0.0448,-0.0286 0.35277,-0.41187 0.68472,-0.85161 1.33127,-1.76329 2.48819,-2.90835 4.70461,-4.65606 0.90617,-0.71453 1.07875,-0.80444 2.23398,-1.1658 1.45574,-0.45533 2.42541,-0.60778 3.4861,-0.5478 v 0 c 0.65219,0.0369 0.89759,0.10681 1.74148,0.4961 1.31326,0.60576 1.99443,1.21742 2.59676,2.33214 0.66735,1.23526 0.74639,1.66976 0.49659,2.72957 -0.11165,0.474 -0.29972,1.13149 -0.41857,1.46087 -0.11874,0.32938 -0.2935,0.95393 -0.38809,1.38803 -0.32893,1.50739 -1.04976,2.89158 -2.83858,5.45188 -1.24603,1.78326 -2.15771,3.279 -2.4257,3.98012 -0.0968,0.25305 -0.31335,0.66363 -0.48162,0.9126 -0.16817,0.24903 -0.45069,0.75856 -0.62736,1.13224 -0.29165,0.61639 -1.36554,1.98236 -2.76571,3.5176 -0.8254,0.90491 -1.32982,1.62489 -1.45677,2.07947 -0.1451,0.51983 -0.95861,1.58467 -1.37975,1.8061 -0.40921,0.21495 -0.60103,0.19788 -0.92501,-0.0827 -0.14557,-0.12602 -0.47964,-0.5446 -0.74208,-0.9302 -0.26246,-0.38558 -0.82685,-1.0509 -1.2542,-1.47846 -4.32798,-4.33012 -8.4209,-8.87064 -9.92238,-11.00707 -0.92649,-1.31834 -2.56164,-3.47673 -3.22514,-4.25712 -0.82783,-0.97364 -1.48352,-2.96531 -1.62367,-4.93302 l -0.0749,-1.05161 0.4377,-0.85474 c 0.63717,-1.24471 1.11744,-1.6895 2.36781,-2.19313 1.31022,-0.52774 2.17184,-0.71879 3.3197,-0.70438 z"
       id="path6329"
       inkscape:connector-curvature="0" />
  </g>
</svg>
